%TF.GenerationSoftware,KiCad,Pcbnew,10.0.1*%
%TF.CreationDate,2026-05-16T14:36:43+02:00*%
%TF.ProjectId,Super3DMakerSTM,53757065-7233-4444-9d61-6b657253544d,rev?*%
%TF.SameCoordinates,Original*%
%TF.FileFunction,Legend,Bot*%
%TF.FilePolarity,Positive*%
%FSLAX46Y46*%
G04 Gerber Fmt 4.6, Leading zero omitted, Abs format (unit mm)*
G04 Created by KiCad (PCBNEW 10.0.1) date 2026-05-16 14:36:43*
%MOMM*%
%LPD*%
G01*
G04 APERTURE LIST*
%ADD10C,0.300000*%
%ADD11C,0.000000*%
G04 APERTURE END LIST*
D10*
X96731427Y-96109757D02*
X96874285Y-96038328D01*
X96874285Y-96038328D02*
X97088570Y-96038328D01*
X97088570Y-96038328D02*
X97302856Y-96109757D01*
X97302856Y-96109757D02*
X97445713Y-96252614D01*
X97445713Y-96252614D02*
X97517142Y-96395471D01*
X97517142Y-96395471D02*
X97588570Y-96681185D01*
X97588570Y-96681185D02*
X97588570Y-96895471D01*
X97588570Y-96895471D02*
X97517142Y-97181185D01*
X97517142Y-97181185D02*
X97445713Y-97324042D01*
X97445713Y-97324042D02*
X97302856Y-97466900D01*
X97302856Y-97466900D02*
X97088570Y-97538328D01*
X97088570Y-97538328D02*
X96945713Y-97538328D01*
X96945713Y-97538328D02*
X96731427Y-97466900D01*
X96731427Y-97466900D02*
X96659999Y-97395471D01*
X96659999Y-97395471D02*
X96659999Y-96895471D01*
X96659999Y-96895471D02*
X96945713Y-96895471D01*
X95802856Y-96038328D02*
X95802856Y-96395471D01*
X96159999Y-96252614D02*
X95802856Y-96395471D01*
X95802856Y-96395471D02*
X95445713Y-96252614D01*
X96017142Y-96681185D02*
X95802856Y-96395471D01*
X95802856Y-96395471D02*
X95588570Y-96681185D01*
X94659999Y-96038328D02*
X94659999Y-96395471D01*
X95017142Y-96252614D02*
X94659999Y-96395471D01*
X94659999Y-96395471D02*
X94302856Y-96252614D01*
X94874285Y-96681185D02*
X94659999Y-96395471D01*
X94659999Y-96395471D02*
X94445713Y-96681185D01*
X93517142Y-96038328D02*
X93517142Y-96395471D01*
X93874285Y-96252614D02*
X93517142Y-96395471D01*
X93517142Y-96395471D02*
X93159999Y-96252614D01*
X93731428Y-96681185D02*
X93517142Y-96395471D01*
X93517142Y-96395471D02*
X93302856Y-96681185D01*
D11*
%TO.C,G\u002A\u002A\u002A*%
G36*
X59760878Y-136742456D02*
G01*
X59716316Y-136787017D01*
X59671755Y-136742456D01*
X59716316Y-136697895D01*
X59760878Y-136742456D01*
G37*
G36*
X65821228Y-99845614D02*
G01*
X65776667Y-99890175D01*
X65732106Y-99845614D01*
X65776667Y-99801052D01*
X65821228Y-99845614D01*
G37*
G36*
X65821228Y-112233684D02*
G01*
X65776667Y-112278245D01*
X65732106Y-112233684D01*
X65776667Y-112189123D01*
X65821228Y-112233684D01*
G37*
G36*
X65999474Y-99489123D02*
G01*
X65954913Y-99533684D01*
X65910351Y-99489123D01*
X65954913Y-99444561D01*
X65999474Y-99489123D01*
G37*
G36*
X66266842Y-99043509D02*
G01*
X66222281Y-99088070D01*
X66177720Y-99043509D01*
X66222281Y-98998947D01*
X66266842Y-99043509D01*
G37*
G36*
X66266842Y-117759298D02*
G01*
X66222281Y-117803859D01*
X66177720Y-117759298D01*
X66222281Y-117714737D01*
X66266842Y-117759298D01*
G37*
G36*
X66355965Y-117937544D02*
G01*
X66311404Y-117982105D01*
X66266842Y-117937544D01*
X66311404Y-117892982D01*
X66355965Y-117937544D01*
G37*
G36*
X66445088Y-118115789D02*
G01*
X66400527Y-118160351D01*
X66355965Y-118115789D01*
X66400527Y-118071228D01*
X66445088Y-118115789D01*
G37*
G36*
X82041579Y-95300351D02*
G01*
X81997018Y-95344912D01*
X81952456Y-95300351D01*
X81997018Y-95255789D01*
X82041579Y-95300351D01*
G37*
G36*
X82487193Y-97082807D02*
G01*
X82442632Y-97127368D01*
X82398071Y-97082807D01*
X82442632Y-97038245D01*
X82487193Y-97082807D01*
G37*
G36*
X83111053Y-97082807D02*
G01*
X83066492Y-97127368D01*
X83021930Y-97082807D01*
X83066492Y-97038245D01*
X83111053Y-97082807D01*
G37*
G36*
X83467544Y-97171930D02*
G01*
X83422983Y-97216491D01*
X83378421Y-97171930D01*
X83422983Y-97127368D01*
X83467544Y-97171930D01*
G37*
G36*
X85250000Y-97261052D02*
G01*
X85205439Y-97305614D01*
X85160878Y-97261052D01*
X85205439Y-97216491D01*
X85250000Y-97261052D01*
G37*
G36*
X85695614Y-97261052D02*
G01*
X85651053Y-97305614D01*
X85606492Y-97261052D01*
X85651053Y-97216491D01*
X85695614Y-97261052D01*
G37*
G36*
X86230351Y-111431579D02*
G01*
X86185790Y-111476140D01*
X86141228Y-111431579D01*
X86185790Y-111387017D01*
X86230351Y-111431579D01*
G37*
G36*
X97459825Y-78099649D02*
G01*
X97415263Y-78144210D01*
X97370702Y-78099649D01*
X97415263Y-78055088D01*
X97459825Y-78099649D01*
G37*
G36*
X101292106Y-89596491D02*
G01*
X101247544Y-89641052D01*
X101202983Y-89596491D01*
X101247544Y-89551930D01*
X101292106Y-89596491D01*
G37*
G36*
X65546824Y-113117485D02*
G01*
X65540522Y-113207879D01*
X65500015Y-113234459D01*
X65482354Y-113202928D01*
X65492979Y-113063640D01*
X65525058Y-113022388D01*
X65546824Y-113117485D01*
G37*
G36*
X65635947Y-112760994D02*
G01*
X65629645Y-112851388D01*
X65589138Y-112877968D01*
X65571477Y-112846437D01*
X65582102Y-112707149D01*
X65614181Y-112665897D01*
X65635947Y-112760994D01*
G37*
G36*
X65732106Y-112456491D02*
G01*
X65725674Y-112503672D01*
X65672690Y-112515906D01*
X65662024Y-112502844D01*
X65672690Y-112397076D01*
X65699497Y-112383133D01*
X65732106Y-112456491D01*
G37*
G36*
X77311035Y-77824854D02*
G01*
X77304733Y-77915247D01*
X77264225Y-77941827D01*
X77246565Y-77910297D01*
X77257189Y-77771009D01*
X77289269Y-77729757D01*
X77311035Y-77824854D01*
G37*
G36*
X93241345Y-71846199D02*
G01*
X93255288Y-71873005D01*
X93181930Y-71905614D01*
X93134749Y-71899182D01*
X93122515Y-71846199D01*
X93135577Y-71835532D01*
X93241345Y-71846199D01*
G37*
G36*
X95588246Y-65577895D02*
G01*
X95581814Y-65625076D01*
X95528831Y-65637310D01*
X95518164Y-65624247D01*
X95528831Y-65518479D01*
X95555637Y-65504536D01*
X95588246Y-65577895D01*
G37*
G36*
X96390351Y-84026316D02*
G01*
X96383919Y-84073497D01*
X96330936Y-84085731D01*
X96320270Y-84072668D01*
X96330936Y-83966900D01*
X96357743Y-83952957D01*
X96390351Y-84026316D01*
G37*
G36*
X96479474Y-83758947D02*
G01*
X96473042Y-83806129D01*
X96420059Y-83818362D01*
X96409393Y-83805300D01*
X96420059Y-83699532D01*
X96446865Y-83685589D01*
X96479474Y-83758947D01*
G37*
G36*
X100423158Y-85749747D02*
G01*
X100438276Y-85780694D01*
X100311755Y-85794700D01*
X100189155Y-85782277D01*
X100200351Y-85749747D01*
X100240693Y-85737976D01*
X100423158Y-85749747D01*
G37*
G36*
X73895310Y-97372456D02*
G01*
X73832288Y-97444910D01*
X73704831Y-97564686D01*
X73664035Y-97542234D01*
X73721752Y-97471835D01*
X73864562Y-97341707D01*
X74065088Y-97171930D01*
X73895310Y-97372456D01*
G37*
G36*
X84144476Y-88201317D02*
G01*
X84132635Y-88219460D01*
X84044577Y-88301539D01*
X84002281Y-88264909D01*
X84010248Y-88244863D01*
X84105174Y-88162016D01*
X84154980Y-88140331D01*
X84144476Y-88201317D01*
G37*
G36*
X92878511Y-88290440D02*
G01*
X92850999Y-88330031D01*
X92775618Y-88393333D01*
X92763159Y-88392466D01*
X92743532Y-88340876D01*
X92839209Y-88251138D01*
X92889015Y-88229454D01*
X92878511Y-88290440D01*
G37*
G36*
X79159681Y-67019962D02*
G01*
X79168973Y-67182105D01*
X79168111Y-67242573D01*
X79154047Y-67365807D01*
X79128215Y-67338070D01*
X79114354Y-67252176D01*
X79128215Y-67026140D01*
X79136547Y-67000853D01*
X79159681Y-67019962D01*
G37*
G36*
X84102772Y-87710321D02*
G01*
X84016149Y-87797219D01*
X83902246Y-87858596D01*
X83836825Y-87846056D01*
X83856977Y-87779230D01*
X84024562Y-87668895D01*
X84123673Y-87618085D01*
X84175061Y-87611519D01*
X84102772Y-87710321D01*
G37*
G36*
X87667684Y-101694912D02*
G01*
X87639900Y-101729418D01*
X87521423Y-101843905D01*
X87478071Y-101817228D01*
X87510604Y-101771205D01*
X87634035Y-101661263D01*
X87698610Y-101611477D01*
X87744762Y-101589347D01*
X87667684Y-101694912D01*
G37*
G36*
X90312626Y-64463859D02*
G01*
X90312748Y-64484965D01*
X90300799Y-64624483D01*
X90271541Y-64621521D01*
X90255192Y-64548289D01*
X90268239Y-64354152D01*
X90272649Y-64338829D01*
X90299775Y-64325634D01*
X90312626Y-64463859D01*
G37*
G36*
X90387897Y-63513557D02*
G01*
X90394849Y-63706316D01*
X90392250Y-63837103D01*
X90378266Y-63949076D01*
X90356226Y-63906842D01*
X90341482Y-63765492D01*
X90356226Y-63505789D01*
X90370122Y-63460641D01*
X90387897Y-63513557D01*
G37*
G36*
X89349649Y-63108222D02*
G01*
X89349649Y-63424139D01*
X88970878Y-63231017D01*
X88847928Y-63168153D01*
X88649638Y-63065849D01*
X88554971Y-63015614D01*
X88538807Y-62972607D01*
X88672028Y-62913521D01*
X88974223Y-62852339D01*
X89349649Y-62792306D01*
X89349649Y-63108222D01*
G37*
G36*
X86163278Y-98261083D02*
G01*
X86230351Y-98437473D01*
X86230380Y-98444763D01*
X86228161Y-98518638D01*
X86190281Y-98540925D01*
X86072181Y-98510276D01*
X85829299Y-98425343D01*
X85644519Y-98355832D01*
X85572911Y-98298331D01*
X85658178Y-98241010D01*
X85907561Y-98159245D01*
X86010832Y-98158623D01*
X86163278Y-98261083D01*
G37*
G36*
X90432644Y-103555897D02*
G01*
X90463701Y-103704953D01*
X90485336Y-104016512D01*
X90496962Y-104479184D01*
X90497997Y-105081579D01*
X90492523Y-105575122D01*
X90481343Y-105997035D01*
X90464747Y-106249188D01*
X90442411Y-106336142D01*
X90414010Y-106262456D01*
X90392914Y-106128671D01*
X90365419Y-105820861D01*
X90346854Y-105435734D01*
X90337149Y-105009770D01*
X90336235Y-104579449D01*
X90344044Y-104181253D01*
X90360508Y-103851660D01*
X90385557Y-103627153D01*
X90419123Y-103544210D01*
X90432644Y-103555897D01*
G37*
G36*
X90705635Y-103333280D02*
G01*
X90735905Y-103489433D01*
X90757812Y-103817145D01*
X90771125Y-104312148D01*
X90775614Y-104970175D01*
X90774374Y-105335392D01*
X90765228Y-105908441D01*
X90747378Y-106316229D01*
X90721056Y-106554487D01*
X90686492Y-106618947D01*
X90667657Y-106580024D01*
X90638444Y-106381655D01*
X90616308Y-106034582D01*
X90602274Y-105557768D01*
X90597369Y-104970175D01*
X90598894Y-104632438D01*
X90608978Y-104103808D01*
X90627622Y-103696450D01*
X90653802Y-103429328D01*
X90686492Y-103321403D01*
X90705635Y-103333280D01*
G37*
G36*
X130516596Y-127744359D02*
G01*
X130612532Y-127872910D01*
X130633774Y-127920049D01*
X130630999Y-128094537D01*
X130483376Y-128259978D01*
X130180048Y-128425106D01*
X129710158Y-128598652D01*
X129290401Y-128725085D01*
X128893826Y-128810797D01*
X128625241Y-128815365D01*
X128467439Y-128738544D01*
X128403214Y-128580091D01*
X128397142Y-128491912D01*
X128421064Y-128368741D01*
X128510810Y-128264610D01*
X128692634Y-128162045D01*
X128992789Y-128043576D01*
X129437529Y-127891728D01*
X129863225Y-127758390D01*
X130173402Y-127686595D01*
X130380706Y-127682086D01*
X130516596Y-127744359D01*
G37*
G36*
X87162433Y-111041672D02*
G01*
X87164379Y-111044749D01*
X87188901Y-111161423D01*
X87225174Y-111414343D01*
X87269200Y-111766635D01*
X87316985Y-112181424D01*
X87364532Y-112621835D01*
X87407845Y-113050994D01*
X87442929Y-113432024D01*
X87465786Y-113728052D01*
X87472421Y-113902202D01*
X87464808Y-114020151D01*
X87440780Y-114073292D01*
X87405251Y-113981201D01*
X87361885Y-113763552D01*
X87314345Y-113440019D01*
X87266294Y-113030275D01*
X87221395Y-112553995D01*
X87175962Y-111998708D01*
X87144365Y-111574566D01*
X87128017Y-111287427D01*
X87126116Y-111116655D01*
X87137856Y-111041615D01*
X87162433Y-111041672D01*
G37*
G36*
X87837923Y-110716164D02*
G01*
X87878761Y-110960030D01*
X87925532Y-111312552D01*
X87974727Y-111738095D01*
X88022837Y-112201025D01*
X88066353Y-112665706D01*
X88101766Y-113096503D01*
X88125568Y-113457781D01*
X88134249Y-113713905D01*
X88124300Y-113829239D01*
X88098203Y-113865502D01*
X88072081Y-113868799D01*
X88047391Y-113807652D01*
X88020135Y-113659494D01*
X87986313Y-113401759D01*
X87941928Y-113011880D01*
X87882981Y-112467292D01*
X87854210Y-112194444D01*
X87793272Y-111562905D01*
X87758501Y-111097149D01*
X87749586Y-110789502D01*
X87766215Y-110632291D01*
X87808079Y-110617845D01*
X87837923Y-110716164D01*
G37*
G36*
X88141099Y-110505250D02*
G01*
X88143871Y-110510030D01*
X88169443Y-110633945D01*
X88206206Y-110893865D01*
X88250370Y-111253914D01*
X88298143Y-111678214D01*
X88345732Y-112130889D01*
X88389346Y-112576060D01*
X88425193Y-112977851D01*
X88449482Y-113300383D01*
X88458421Y-113507780D01*
X88457871Y-113589208D01*
X88446898Y-113770638D01*
X88422308Y-113778478D01*
X88384704Y-113615919D01*
X88334687Y-113286152D01*
X88272859Y-112792367D01*
X88199824Y-112137754D01*
X88173305Y-111887594D01*
X88118244Y-111343719D01*
X88083970Y-110950555D01*
X88069802Y-110689115D01*
X88075056Y-110540409D01*
X88099049Y-110485450D01*
X88141099Y-110505250D01*
G37*
G36*
X91848419Y-102386509D02*
G01*
X91878409Y-102491672D01*
X91902318Y-102766119D01*
X91919813Y-103201790D01*
X91930555Y-103790624D01*
X91934211Y-104524561D01*
X91934174Y-104604514D01*
X91929792Y-105324257D01*
X91918356Y-105898088D01*
X91900204Y-106317948D01*
X91875669Y-106575775D01*
X91845088Y-106663509D01*
X91841757Y-106662613D01*
X91811767Y-106557451D01*
X91787858Y-106283003D01*
X91770364Y-105847332D01*
X91759621Y-105258498D01*
X91755965Y-104524561D01*
X91756003Y-104444608D01*
X91760384Y-103724866D01*
X91771820Y-103151034D01*
X91789973Y-102731174D01*
X91814507Y-102473347D01*
X91845088Y-102385614D01*
X91848419Y-102386509D01*
G37*
G36*
X87468251Y-110812175D02*
G01*
X87470880Y-110816139D01*
X87501319Y-110939990D01*
X87544289Y-111201079D01*
X87595488Y-111563584D01*
X87650613Y-111991683D01*
X87705362Y-112449555D01*
X87755434Y-112901376D01*
X87796526Y-113311326D01*
X87824336Y-113643582D01*
X87834562Y-113862322D01*
X87829671Y-113901122D01*
X87759913Y-113971579D01*
X87738045Y-113930520D01*
X87695782Y-113740837D01*
X87644934Y-113423469D01*
X87590053Y-113007830D01*
X87535693Y-112523333D01*
X87528039Y-112449151D01*
X87467365Y-111851312D01*
X87425390Y-111408351D01*
X87401322Y-111100138D01*
X87394367Y-110906544D01*
X87403733Y-110807438D01*
X87428625Y-110782692D01*
X87468251Y-110812175D01*
G37*
G36*
X91128826Y-102985204D02*
G01*
X91165735Y-103061339D01*
X91189255Y-103213689D01*
X91200273Y-103462614D01*
X91199672Y-103828477D01*
X91188337Y-104331637D01*
X91167153Y-104992456D01*
X91166546Y-105009903D01*
X91144227Y-105531752D01*
X91117129Y-105985580D01*
X91087517Y-106343845D01*
X91057654Y-106579002D01*
X91029805Y-106663509D01*
X91024486Y-106659628D01*
X91002101Y-106540251D01*
X90985169Y-106271885D01*
X90974414Y-105878666D01*
X90970561Y-105384729D01*
X90974333Y-104814210D01*
X90976599Y-104660914D01*
X90989238Y-104118457D01*
X91007249Y-103652090D01*
X91029185Y-103287350D01*
X91053600Y-103049778D01*
X91079048Y-102964912D01*
X91128826Y-102985204D01*
G37*
G36*
X91507134Y-102706637D02*
G01*
X91535223Y-102830854D01*
X91555322Y-103064162D01*
X91568435Y-103423837D01*
X91575566Y-103927158D01*
X91577720Y-104591403D01*
X91577235Y-104838131D01*
X91572456Y-105388765D01*
X91563223Y-105867383D01*
X91550337Y-106247429D01*
X91534601Y-106502346D01*
X91516819Y-106605579D01*
X91469417Y-106638068D01*
X91413035Y-106610109D01*
X91371813Y-106478212D01*
X91344364Y-106227553D01*
X91329305Y-105843310D01*
X91325249Y-105310659D01*
X91330813Y-104614776D01*
X91337433Y-104175681D01*
X91351221Y-103604141D01*
X91369871Y-103184532D01*
X91394515Y-102900646D01*
X91426286Y-102736273D01*
X91466316Y-102675203D01*
X91470049Y-102674233D01*
X91507134Y-102706637D01*
G37*
G36*
X60960514Y-133580980D02*
G01*
X60909205Y-133794416D01*
X60824202Y-134120731D01*
X60714201Y-134528876D01*
X60587895Y-134987804D01*
X60453981Y-135466467D01*
X60321153Y-135933815D01*
X60198105Y-136358800D01*
X60093532Y-136710375D01*
X60016130Y-136957490D01*
X59974592Y-137069098D01*
X59911772Y-137139334D01*
X59876203Y-137072416D01*
X59881694Y-136836596D01*
X59884461Y-136791959D01*
X59874922Y-136620671D01*
X59833371Y-136574488D01*
X59791314Y-136596281D01*
X59773310Y-136580604D01*
X59788501Y-136500676D01*
X59844222Y-136330831D01*
X59947812Y-136045404D01*
X60106607Y-135618730D01*
X60247944Y-135242510D01*
X60478894Y-134639806D01*
X60672109Y-134152060D01*
X60822148Y-133792538D01*
X60923571Y-133574505D01*
X60970937Y-133511229D01*
X60960514Y-133580980D01*
G37*
G36*
X69703953Y-109716605D02*
G01*
X70145886Y-109868585D01*
X70500386Y-110147023D01*
X70569461Y-110226790D01*
X70620539Y-110296501D01*
X70559986Y-110267032D01*
X70370475Y-110137050D01*
X70172768Y-110028781D01*
X69734470Y-109926489D01*
X69254029Y-109959015D01*
X68780546Y-110126679D01*
X68675238Y-110184267D01*
X68098466Y-110608002D01*
X67564136Y-111180935D01*
X67084272Y-111880298D01*
X66670898Y-112683321D01*
X66336037Y-113567236D01*
X66091714Y-114509274D01*
X65949953Y-115486666D01*
X65929984Y-115794486D01*
X65931480Y-116110226D01*
X65961892Y-116450995D01*
X66025795Y-116866139D01*
X66127763Y-117405006D01*
X66147348Y-117532178D01*
X66121940Y-117507821D01*
X66044715Y-117320574D01*
X65986025Y-117149614D01*
X65863069Y-116520208D01*
X65833477Y-115787357D01*
X65892083Y-114984550D01*
X66033721Y-114145273D01*
X66253225Y-113303016D01*
X66545427Y-112491265D01*
X66905160Y-111743509D01*
X66932701Y-111694875D01*
X67229708Y-111243666D01*
X67590233Y-110794105D01*
X67977647Y-110385217D01*
X68355322Y-110056024D01*
X68686627Y-109845551D01*
X68739154Y-109822164D01*
X69219928Y-109698620D01*
X69703953Y-109716605D01*
G37*
G36*
X69467312Y-104732169D02*
G01*
X69446571Y-104869299D01*
X69288253Y-105118744D01*
X68992197Y-105480818D01*
X68352257Y-106253634D01*
X67340427Y-107653855D01*
X66440558Y-109134080D01*
X65673949Y-110657954D01*
X65061900Y-112189123D01*
X65018972Y-112314436D01*
X64744153Y-113186646D01*
X64496328Y-114091140D01*
X64287106Y-114979244D01*
X64128098Y-115802282D01*
X64030913Y-116511579D01*
X63999064Y-116827166D01*
X63954509Y-117242548D01*
X63914738Y-117585643D01*
X63885663Y-117803859D01*
X63836572Y-118115789D01*
X63754708Y-117848421D01*
X63740427Y-117795718D01*
X63705281Y-117495540D01*
X63720184Y-117085096D01*
X63786850Y-116549725D01*
X63906995Y-115874762D01*
X64082331Y-115045544D01*
X64258072Y-114292268D01*
X64621607Y-112936495D01*
X65024962Y-111702335D01*
X65483590Y-110552837D01*
X66012947Y-109451050D01*
X66628485Y-108360024D01*
X67345659Y-107242807D01*
X67366781Y-107211694D01*
X67638698Y-106825139D01*
X67945250Y-106410087D01*
X68266519Y-105991207D01*
X68582587Y-105593168D01*
X68873534Y-105240639D01*
X69119444Y-104958289D01*
X69300397Y-104770789D01*
X69396476Y-104702807D01*
X69467312Y-104732169D01*
G37*
G36*
X97452233Y-99930811D02*
G01*
X97516543Y-99969837D01*
X97754123Y-100221485D01*
X97942152Y-100591075D01*
X98054590Y-101031044D01*
X98101933Y-101360702D01*
X97892283Y-100966935D01*
X97812822Y-100829157D01*
X97682928Y-100649760D01*
X97593509Y-100584314D01*
X97539828Y-100658630D01*
X97473978Y-100865368D01*
X97415004Y-101156326D01*
X97379909Y-101359442D01*
X97322132Y-101583431D01*
X97250724Y-101690062D01*
X97147636Y-101717193D01*
X97055037Y-101699650D01*
X96996068Y-101619171D01*
X96963172Y-101437301D01*
X96943297Y-101115614D01*
X96943021Y-101109401D01*
X96919791Y-100809252D01*
X96884643Y-100595492D01*
X96845073Y-100514035D01*
X96806429Y-100519519D01*
X96616986Y-100614033D01*
X96383819Y-100792535D01*
X96158879Y-101011480D01*
X95994117Y-101227320D01*
X95916490Y-101397213D01*
X95824927Y-101812776D01*
X95809185Y-102290087D01*
X95868935Y-102763778D01*
X96003849Y-103168485D01*
X96063274Y-103292028D01*
X96141874Y-103473035D01*
X96159334Y-103544210D01*
X96128087Y-103523722D01*
X95999942Y-103409699D01*
X95813742Y-103229028D01*
X95536150Y-102853808D01*
X95376792Y-102422210D01*
X95326221Y-101959578D01*
X95372890Y-101489157D01*
X95505250Y-101034195D01*
X95711754Y-100617937D01*
X95980852Y-100263628D01*
X96300997Y-99994515D01*
X96660641Y-99833844D01*
X97048236Y-99804861D01*
X97452233Y-99930811D01*
G37*
G36*
X106892747Y-91061589D02*
G01*
X107047912Y-91180176D01*
X107272696Y-91394874D01*
X107591741Y-91724025D01*
X107684489Y-91822342D01*
X108077533Y-92262399D01*
X108440021Y-92703489D01*
X108747947Y-93113981D01*
X108977301Y-93462244D01*
X109104079Y-93716648D01*
X109094816Y-93728647D01*
X109007978Y-93632042D01*
X108852776Y-93428155D01*
X108647340Y-93139879D01*
X108447680Y-92863981D01*
X108087091Y-92432180D01*
X107679528Y-92038325D01*
X107168365Y-91624395D01*
X107101503Y-91596133D01*
X106988118Y-91615806D01*
X106814478Y-91707261D01*
X106554928Y-91884494D01*
X106183815Y-92161499D01*
X105856670Y-92412836D01*
X105577316Y-92631798D01*
X105381423Y-92790255D01*
X105298433Y-92864820D01*
X105296583Y-92876250D01*
X105349235Y-92999510D01*
X105481805Y-93216469D01*
X105671314Y-93488679D01*
X105909038Y-93827450D01*
X106161777Y-94212596D01*
X106361945Y-94542807D01*
X106385024Y-94583805D01*
X106494665Y-94790543D01*
X106513118Y-94854951D01*
X106438877Y-94772533D01*
X106300694Y-94592719D01*
X105824289Y-93967808D01*
X105429881Y-93442038D01*
X105127348Y-93028681D01*
X104926571Y-92741010D01*
X104684195Y-92376624D01*
X105594992Y-91758146D01*
X105595592Y-91757738D01*
X105962838Y-91510302D01*
X106289770Y-91293578D01*
X106540814Y-91130917D01*
X106680398Y-91045668D01*
X106692714Y-91039386D01*
X106782561Y-91020773D01*
X106892747Y-91061589D01*
G37*
G36*
X70706720Y-107719300D02*
G01*
X71029784Y-107860253D01*
X71463313Y-108132044D01*
X71934238Y-108610264D01*
X72306795Y-109227200D01*
X72577525Y-109975084D01*
X72742965Y-110846150D01*
X72799657Y-111832631D01*
X72764378Y-112722522D01*
X72596842Y-113883285D01*
X72283261Y-115032983D01*
X71814579Y-116211877D01*
X71683199Y-116480217D01*
X71427981Y-116940122D01*
X71139614Y-117407478D01*
X70853634Y-117825666D01*
X70605578Y-118138070D01*
X70572494Y-118174362D01*
X70432216Y-118314353D01*
X70395652Y-118323196D01*
X70461224Y-118211612D01*
X70627351Y-117990323D01*
X70829322Y-117712763D01*
X71210797Y-117071437D01*
X71571244Y-116321909D01*
X71891600Y-115510013D01*
X72152803Y-114681584D01*
X72335790Y-113882456D01*
X72347962Y-113810924D01*
X72411304Y-113272554D01*
X72445433Y-112655976D01*
X72450872Y-112012081D01*
X72428145Y-111391761D01*
X72377774Y-110845907D01*
X72300281Y-110425412D01*
X72131350Y-109886276D01*
X71803948Y-109170998D01*
X71400216Y-108604633D01*
X70924804Y-108193202D01*
X70382363Y-107942726D01*
X70104793Y-107875285D01*
X69841768Y-107853122D01*
X69554084Y-107883482D01*
X69194985Y-107971397D01*
X68717720Y-108121902D01*
X68691291Y-108121162D01*
X68796252Y-108059111D01*
X69014410Y-107947979D01*
X69135628Y-107893516D01*
X69577974Y-107747808D01*
X70013732Y-107667253D01*
X70127215Y-107658088D01*
X70437589Y-107657938D01*
X70706720Y-107719300D01*
G37*
G36*
X74686465Y-107870196D02*
G01*
X74761132Y-108007233D01*
X74769411Y-108137128D01*
X74683573Y-108330387D01*
X74614843Y-108447863D01*
X74599745Y-108675218D01*
X74632728Y-108835554D01*
X74685964Y-109095734D01*
X74696951Y-109158109D01*
X74731688Y-109399008D01*
X74775532Y-109740529D01*
X74821595Y-110130142D01*
X74844377Y-110316638D01*
X74898477Y-110679589D01*
X74953776Y-110964010D01*
X75001300Y-111120438D01*
X75014437Y-111167195D01*
X75025226Y-111382920D01*
X75013084Y-111723496D01*
X74981338Y-112153538D01*
X74933315Y-112637664D01*
X74872341Y-113140489D01*
X74801744Y-113626630D01*
X74724850Y-114060702D01*
X74688398Y-114233205D01*
X74587674Y-114656328D01*
X74462519Y-115134772D01*
X74324055Y-115630459D01*
X74183401Y-116105308D01*
X74051677Y-116521241D01*
X73940003Y-116840176D01*
X73859499Y-117024035D01*
X73855705Y-117030393D01*
X73721408Y-117199217D01*
X73600258Y-117269123D01*
X73551887Y-117256610D01*
X73493717Y-117126321D01*
X73514713Y-116850835D01*
X73615498Y-116425632D01*
X73796698Y-115846191D01*
X73993121Y-115243979D01*
X74180952Y-114597980D01*
X74318518Y-114006168D01*
X74413025Y-113422169D01*
X74471677Y-112799612D01*
X74501677Y-112092124D01*
X74510231Y-111253333D01*
X74510135Y-111067511D01*
X74506438Y-110441868D01*
X74495893Y-109956139D01*
X74476430Y-109579828D01*
X74445979Y-109282441D01*
X74402468Y-109033482D01*
X74343827Y-108802456D01*
X74309692Y-108683140D01*
X74211486Y-108312801D01*
X74171839Y-108073745D01*
X74193547Y-107935505D01*
X74279407Y-107867615D01*
X74432216Y-107839608D01*
X74525751Y-107833718D01*
X74686465Y-107870196D01*
G37*
G36*
X71747118Y-112634737D02*
G01*
X71746810Y-112732620D01*
X71716218Y-113581109D01*
X71625939Y-114323279D01*
X71462246Y-115019101D01*
X71211411Y-115728544D01*
X70859707Y-116511579D01*
X70628730Y-116956280D01*
X70119334Y-117749269D01*
X69560214Y-118392939D01*
X68959960Y-118878185D01*
X68327158Y-119195906D01*
X67852389Y-119302979D01*
X67315110Y-119271264D01*
X66813543Y-119079102D01*
X66363861Y-118736044D01*
X65982239Y-118251643D01*
X65684850Y-117635450D01*
X65655259Y-117559718D01*
X65589716Y-117433852D01*
X65561010Y-117447368D01*
X65560909Y-117456674D01*
X65607819Y-117654273D01*
X65727971Y-117947140D01*
X65896998Y-118286132D01*
X66090533Y-118622107D01*
X66284212Y-118905923D01*
X66567596Y-119274386D01*
X66277539Y-119007017D01*
X66224829Y-118955278D01*
X65954110Y-118597257D01*
X65697798Y-118117295D01*
X65478034Y-117562148D01*
X65359762Y-117133647D01*
X65483779Y-117133647D01*
X65494445Y-117239415D01*
X65521251Y-117253358D01*
X65553860Y-117180000D01*
X65547428Y-117132818D01*
X65494445Y-117120585D01*
X65483779Y-117133647D01*
X65359762Y-117133647D01*
X65316959Y-116978573D01*
X65284869Y-116787698D01*
X65267173Y-116598910D01*
X65394656Y-116598910D01*
X65405322Y-116704678D01*
X65432129Y-116718621D01*
X65464737Y-116645263D01*
X65458305Y-116598082D01*
X65405322Y-116585848D01*
X65394656Y-116598910D01*
X65267173Y-116598910D01*
X65245187Y-116364366D01*
X65223984Y-115855963D01*
X65220564Y-115306278D01*
X65234236Y-114759101D01*
X65264307Y-114258224D01*
X65310085Y-113847435D01*
X65370875Y-113570526D01*
X65464024Y-113303158D01*
X65419082Y-113570526D01*
X65414717Y-113600981D01*
X65394929Y-113824149D01*
X65373871Y-114173741D01*
X65353800Y-114608112D01*
X65336973Y-115085614D01*
X65299805Y-116333333D01*
X65355476Y-115505190D01*
X65645161Y-115505190D01*
X65647003Y-115672752D01*
X65712543Y-116556179D01*
X65731303Y-116645263D01*
X65843915Y-117180000D01*
X65870147Y-117304565D01*
X66117638Y-117912282D01*
X66452843Y-118373703D01*
X66873584Y-118683201D01*
X67360894Y-118865602D01*
X67853771Y-118903285D01*
X68352463Y-118779359D01*
X68885214Y-118491127D01*
X69305242Y-118151481D01*
X69795619Y-117594975D01*
X70244492Y-116912702D01*
X70639551Y-116133060D01*
X70968486Y-115284442D01*
X71218986Y-114395245D01*
X71378741Y-113493866D01*
X71435440Y-112608699D01*
X71422670Y-112334855D01*
X71355213Y-111827362D01*
X71243256Y-111291882D01*
X71102083Y-110797159D01*
X70946980Y-110411933D01*
X70920920Y-110362368D01*
X70607945Y-109915056D01*
X70219166Y-109562372D01*
X69791114Y-109331111D01*
X69360318Y-109248070D01*
X69212696Y-109257589D01*
X68749261Y-109385336D01*
X68257791Y-109647373D01*
X67776473Y-110024969D01*
X67192247Y-110667608D01*
X66661589Y-111476835D01*
X66230926Y-112392528D01*
X65910884Y-113387365D01*
X65712087Y-114434026D01*
X65645161Y-115505190D01*
X65355476Y-115505190D01*
X65374695Y-115219298D01*
X65394979Y-114960392D01*
X65576443Y-113725270D01*
X65888864Y-112580723D01*
X66327318Y-111538922D01*
X66886879Y-110612038D01*
X67562623Y-109812243D01*
X67898148Y-109507297D01*
X68449715Y-109143383D01*
X69013538Y-108945810D01*
X69605630Y-108907490D01*
X69967643Y-108948614D01*
X70244612Y-109036214D01*
X70495570Y-109193953D01*
X70816434Y-109483546D01*
X71226913Y-110042542D01*
X71542159Y-110747057D01*
X71579818Y-110859294D01*
X71652788Y-111115939D01*
X71701337Y-111378829D01*
X71730131Y-111690940D01*
X71743836Y-112095251D01*
X71746960Y-112608699D01*
X71747118Y-112634737D01*
G37*
G36*
X91055925Y-60181620D02*
G01*
X91645025Y-60430625D01*
X92262994Y-60723990D01*
X92888427Y-61048971D01*
X93499917Y-61392823D01*
X94076060Y-61742802D01*
X94595450Y-62086164D01*
X95036681Y-62410164D01*
X95378348Y-62702060D01*
X95599046Y-62949105D01*
X95677369Y-63138557D01*
X95663515Y-63268890D01*
X95610232Y-63380798D01*
X95564559Y-63369299D01*
X95404432Y-63268276D01*
X95163929Y-63086485D01*
X94874969Y-62847094D01*
X94622152Y-62635309D01*
X94037043Y-62196047D01*
X93423934Y-61814687D01*
X92733530Y-61462282D01*
X91916539Y-61109888D01*
X91843527Y-61080188D01*
X91432645Y-60904552D01*
X91083223Y-60741425D01*
X90830264Y-60607877D01*
X90708772Y-60520974D01*
X90691666Y-60500432D01*
X90643681Y-60483839D01*
X90613098Y-60574368D01*
X90603811Y-60690892D01*
X90595457Y-60795711D01*
X90586299Y-61171562D01*
X90585168Y-61238646D01*
X90568964Y-61710162D01*
X90540990Y-62192961D01*
X90506563Y-62592281D01*
X90480991Y-62795148D01*
X90465069Y-62844940D01*
X90458434Y-62735320D01*
X90460710Y-62460073D01*
X90471522Y-62012982D01*
X90505146Y-60809824D01*
X90343888Y-61300000D01*
X90286027Y-61468687D01*
X90255694Y-61557121D01*
X90101189Y-61934598D01*
X89937608Y-62219754D01*
X89736879Y-62466535D01*
X89522028Y-62697281D01*
X89777594Y-64204430D01*
X90033160Y-65711579D01*
X90126431Y-65221403D01*
X90172263Y-65013853D01*
X90211422Y-64913511D01*
X90230290Y-64971929D01*
X90229093Y-65129711D01*
X90186714Y-65469571D01*
X90104329Y-65798928D01*
X89997719Y-66061918D01*
X89882662Y-66202677D01*
X89839521Y-66220908D01*
X89613513Y-66266448D01*
X89333228Y-66278740D01*
X89210391Y-66272301D01*
X89110339Y-66254143D01*
X89171404Y-66231509D01*
X89415335Y-66191981D01*
X89638599Y-66136980D01*
X89750930Y-66051075D01*
X89790336Y-65898387D01*
X89794825Y-65643039D01*
X89794732Y-65630835D01*
X89779570Y-65398895D01*
X89742312Y-65056460D01*
X89688467Y-64639452D01*
X89623544Y-64183795D01*
X89553052Y-63725411D01*
X89482500Y-63300222D01*
X89417396Y-62944151D01*
X89363249Y-62693120D01*
X89325569Y-62583053D01*
X89309773Y-62570359D01*
X89125910Y-62506893D01*
X88798355Y-62454938D01*
X88356115Y-62416452D01*
X87828204Y-62393390D01*
X87243630Y-62387709D01*
X86631404Y-62401366D01*
X86510703Y-62406111D01*
X85917149Y-62432200D01*
X85476973Y-62459414D01*
X85169036Y-62491981D01*
X84972196Y-62534131D01*
X84865312Y-62590093D01*
X84827243Y-62664096D01*
X84836849Y-62760371D01*
X84843847Y-62797002D01*
X84870778Y-63005455D01*
X84905642Y-63340661D01*
X84944697Y-63765051D01*
X84984207Y-64241052D01*
X85026482Y-64773318D01*
X85068243Y-65262609D01*
X85105381Y-65617650D01*
X85142826Y-65862060D01*
X85185509Y-66019459D01*
X85238359Y-66113465D01*
X85306306Y-66167700D01*
X85394281Y-66205783D01*
X85511629Y-66229053D01*
X85791136Y-66255878D01*
X86187403Y-66278780D01*
X86666432Y-66295878D01*
X87194223Y-66305293D01*
X87647149Y-66309789D01*
X88058383Y-66315527D01*
X88309878Y-66322462D01*
X88411894Y-66331707D01*
X88374692Y-66344377D01*
X88208536Y-66361583D01*
X87923685Y-66384441D01*
X87509210Y-66412094D01*
X86953997Y-66438175D01*
X86416695Y-66452506D01*
X85929289Y-66455013D01*
X85523762Y-66445624D01*
X85232101Y-66424266D01*
X85086288Y-66390868D01*
X85082617Y-66387711D01*
X85026405Y-66267401D01*
X84935527Y-65999239D01*
X84816685Y-65606139D01*
X84676582Y-65111010D01*
X84521923Y-64536767D01*
X84359409Y-63906319D01*
X84288301Y-63625733D01*
X84068181Y-62777787D01*
X83879967Y-62090200D01*
X83720055Y-61552072D01*
X83584841Y-61152502D01*
X83470721Y-60880590D01*
X83459416Y-60862438D01*
X83645790Y-60862438D01*
X83669987Y-60903607D01*
X83801755Y-60930167D01*
X83821652Y-60928449D01*
X87299825Y-60928449D01*
X87334667Y-61116287D01*
X87500351Y-61277995D01*
X87630658Y-61322208D01*
X87909887Y-61380398D01*
X88235614Y-61421960D01*
X88770351Y-61468687D01*
X88280176Y-61295486D01*
X88078409Y-61212519D01*
X87788947Y-61054463D01*
X87593749Y-60899213D01*
X87504482Y-60801063D01*
X87374975Y-60694397D01*
X87314660Y-60736072D01*
X87299825Y-60928449D01*
X83821652Y-60928449D01*
X83910054Y-60920816D01*
X84580421Y-60857778D01*
X85082617Y-60799789D01*
X85425369Y-60745504D01*
X85494889Y-60726707D01*
X85873860Y-60726707D01*
X85873966Y-60731881D01*
X85948032Y-60831022D01*
X86117067Y-60844843D01*
X86318729Y-60767609D01*
X86397260Y-60690892D01*
X86349981Y-60581875D01*
X86290247Y-60543154D01*
X86114136Y-60530367D01*
X85947733Y-60599949D01*
X85922834Y-60642673D01*
X85873860Y-60726707D01*
X85494889Y-60726707D01*
X85617403Y-60693581D01*
X85667445Y-60642673D01*
X85663352Y-60635037D01*
X85543202Y-60591557D01*
X85298946Y-60578012D01*
X84973772Y-60589706D01*
X84610871Y-60621944D01*
X84253433Y-60670031D01*
X83944647Y-60729273D01*
X83727702Y-60794973D01*
X83645790Y-60862438D01*
X83459416Y-60862438D01*
X83374091Y-60725436D01*
X83291347Y-60676140D01*
X83130462Y-60722411D01*
X82825481Y-60865436D01*
X82386231Y-61101683D01*
X81819372Y-61427565D01*
X81131565Y-61839496D01*
X80677568Y-62120759D01*
X80040574Y-62540995D01*
X79524878Y-62921134D01*
X79104377Y-63280936D01*
X78752968Y-63640163D01*
X78449970Y-63980352D01*
X78609290Y-67571574D01*
X78768609Y-71162797D01*
X78523349Y-71899245D01*
X78278089Y-72635694D01*
X78664579Y-73029498D01*
X78698542Y-73064135D01*
X78858961Y-73222209D01*
X78977075Y-73306832D01*
X79064350Y-73300868D01*
X79132248Y-73187181D01*
X79192236Y-72948634D01*
X79255778Y-72568092D01*
X79334337Y-72028419D01*
X79382164Y-71681492D01*
X79417527Y-71362210D01*
X79435299Y-71065582D01*
X79435401Y-70751612D01*
X79417752Y-70380301D01*
X79382272Y-69911651D01*
X79328882Y-69305664D01*
X79325713Y-69270620D01*
X79280338Y-68744532D01*
X79244537Y-68283863D01*
X79220179Y-67916614D01*
X79209134Y-67670789D01*
X79213272Y-67574389D01*
X79213983Y-67573975D01*
X79236744Y-67654715D01*
X79275520Y-67884612D01*
X79326470Y-68237168D01*
X79385754Y-68685886D01*
X79449530Y-69204268D01*
X79514932Y-69720321D01*
X79587349Y-70227193D01*
X79657450Y-70658911D01*
X79719687Y-70981448D01*
X79768514Y-71160778D01*
X79774159Y-71174349D01*
X79821266Y-71282710D01*
X79876905Y-71364929D01*
X79968402Y-71432854D01*
X80123081Y-71498334D01*
X80368269Y-71573216D01*
X80731292Y-71669350D01*
X81239474Y-71798582D01*
X81907895Y-71968253D01*
X81411637Y-71959214D01*
X81219477Y-71960945D01*
X80936213Y-72002488D01*
X80762494Y-72102777D01*
X80693406Y-72182029D01*
X80696044Y-72247869D01*
X80815796Y-72307748D01*
X81080506Y-72386506D01*
X81081075Y-72386664D01*
X81360920Y-72452589D01*
X81716987Y-72519808D01*
X82107385Y-72582569D01*
X82490224Y-72635122D01*
X82823611Y-72671714D01*
X83065657Y-72686593D01*
X83174471Y-72674009D01*
X83172033Y-72657754D01*
X83064496Y-72596585D01*
X82852361Y-72521544D01*
X82685423Y-72462100D01*
X82522053Y-72369526D01*
X82486356Y-72293349D01*
X82598597Y-72254867D01*
X82612038Y-72252400D01*
X82590430Y-72204519D01*
X82442632Y-72117352D01*
X82413497Y-72103145D01*
X82260785Y-72025211D01*
X82263000Y-72007775D01*
X82415070Y-72035840D01*
X83046463Y-72140201D01*
X83834544Y-72230114D01*
X84730699Y-72302020D01*
X85699800Y-72355117D01*
X86706721Y-72388601D01*
X87716335Y-72401671D01*
X88693513Y-72393524D01*
X89603130Y-72363358D01*
X90410058Y-72310370D01*
X91079170Y-72233758D01*
X91485490Y-72171617D01*
X91890871Y-72107757D01*
X92212432Y-72055113D01*
X92403920Y-72021111D01*
X92554569Y-71997643D01*
X92630373Y-72030072D01*
X92606814Y-72159804D01*
X92586814Y-72286378D01*
X92663468Y-72361782D01*
X92758444Y-72369121D01*
X92855444Y-72367641D01*
X93005744Y-72351897D01*
X93271053Y-72317377D01*
X93495076Y-72291438D01*
X93590946Y-72292110D01*
X93513174Y-72325366D01*
X93262574Y-72390966D01*
X92839959Y-72488673D01*
X92246141Y-72618247D01*
X92014725Y-72668636D01*
X91661810Y-72749783D01*
X91424909Y-72810459D01*
X91323539Y-72845467D01*
X91377213Y-72849611D01*
X91459604Y-72843040D01*
X91663734Y-72850327D01*
X91697566Y-72908355D01*
X91692145Y-72918443D01*
X91736031Y-72966223D01*
X91942634Y-72945965D01*
X92008263Y-72934473D01*
X92143083Y-72925956D01*
X92110187Y-72969845D01*
X92109895Y-72970017D01*
X91956678Y-73027802D01*
X91686601Y-73101509D01*
X91511402Y-73140805D01*
X91357943Y-73175225D01*
X91266723Y-73194435D01*
X90920482Y-73289390D01*
X90736946Y-73384431D01*
X90721160Y-73475529D01*
X90878170Y-73558649D01*
X91013501Y-73580704D01*
X91106644Y-73541649D01*
X91120946Y-73524914D01*
X91259340Y-73491406D01*
X91488861Y-73494575D01*
X91572578Y-73504710D01*
X91750593Y-73547608D01*
X91800940Y-73598278D01*
X91810676Y-73625360D01*
X91939868Y-73681119D01*
X92172980Y-73730367D01*
X92331012Y-73758318D01*
X92481969Y-73811086D01*
X92464300Y-73869188D01*
X92449211Y-73878861D01*
X92382117Y-73962123D01*
X92467262Y-74026903D01*
X92713240Y-74076364D01*
X93128643Y-74113668D01*
X93379732Y-74125678D01*
X93834019Y-74120506D01*
X94166590Y-74076900D01*
X94363641Y-73999069D01*
X94411367Y-73891225D01*
X94295965Y-73757579D01*
X94286565Y-73748328D01*
X94328399Y-73689422D01*
X94498346Y-73634664D01*
X94515939Y-73631003D01*
X94724255Y-73568880D01*
X94835411Y-73502205D01*
X94872216Y-73473511D01*
X95011802Y-73478690D01*
X95034905Y-73485848D01*
X95126503Y-73452312D01*
X95142206Y-73331260D01*
X95088093Y-73182876D01*
X94970245Y-73067346D01*
X94953855Y-73059767D01*
X94761494Y-73014504D01*
X94457990Y-72979155D01*
X94101298Y-72960825D01*
X93975808Y-72957510D01*
X93740340Y-72944886D01*
X93639542Y-72928336D01*
X93695200Y-72910556D01*
X93955462Y-72852707D01*
X94229937Y-72747122D01*
X94474211Y-72619694D01*
X94162281Y-72616358D01*
X93850351Y-72613022D01*
X94068107Y-72506325D01*
X95068991Y-72506325D01*
X95093877Y-72678180D01*
X95123584Y-72774829D01*
X95207165Y-72966123D01*
X95301307Y-73124669D01*
X95378191Y-73207163D01*
X95410000Y-73170301D01*
X95401989Y-73105723D01*
X95344319Y-72912489D01*
X95254698Y-72693686D01*
X95161465Y-72514559D01*
X95092957Y-72440351D01*
X95068991Y-72506325D01*
X94068107Y-72506325D01*
X94278118Y-72403423D01*
X94538413Y-72271907D01*
X94719124Y-72164820D01*
X94751412Y-72109821D01*
X94628994Y-72104047D01*
X94345589Y-72144633D01*
X93894913Y-72228714D01*
X93672106Y-72272275D01*
X93894913Y-72136664D01*
X93908399Y-72128348D01*
X94002534Y-72051251D01*
X94891028Y-72051251D01*
X94964386Y-72083859D01*
X95011568Y-72077428D01*
X95023802Y-72024444D01*
X95010739Y-72013778D01*
X94904971Y-72024444D01*
X94891028Y-72051251D01*
X94002534Y-72051251D01*
X94024007Y-72033665D01*
X93984035Y-71996530D01*
X93962008Y-71995635D01*
X93895303Y-71975734D01*
X93984035Y-71905614D01*
X94027851Y-71865600D01*
X93975170Y-71827250D01*
X93761228Y-71811854D01*
X93634818Y-71806183D01*
X93572889Y-71787259D01*
X93634708Y-71746740D01*
X93836162Y-71675526D01*
X94193139Y-71564521D01*
X94208687Y-71559781D01*
X94600141Y-71431726D01*
X94855835Y-71322645D01*
X95012716Y-71213113D01*
X95107734Y-71083707D01*
X95147719Y-70959845D01*
X95194966Y-70680980D01*
X95241208Y-70255352D01*
X95286932Y-69676665D01*
X95332623Y-68938624D01*
X95378767Y-68034933D01*
X95425848Y-66959298D01*
X95427672Y-66926539D01*
X95436512Y-66921477D01*
X95448521Y-67070804D01*
X95462733Y-67356047D01*
X95478182Y-67758732D01*
X95493901Y-68260385D01*
X95496714Y-68356932D01*
X95519749Y-68999282D01*
X95546556Y-69482868D01*
X95578692Y-69824913D01*
X95617716Y-70042637D01*
X95665186Y-70153263D01*
X95750023Y-70233554D01*
X95846115Y-70262713D01*
X95852816Y-70264398D01*
X95896825Y-70367723D01*
X95961182Y-70594755D01*
X96036911Y-70904013D01*
X96115040Y-71254015D01*
X96186596Y-71603280D01*
X96242604Y-71910325D01*
X96274092Y-72133670D01*
X96272086Y-72231833D01*
X96259754Y-72219694D01*
X96214183Y-72082634D01*
X96149164Y-71825528D01*
X96074435Y-71485167D01*
X96038998Y-71326401D01*
X95914911Y-70898398D01*
X95771917Y-70549194D01*
X95625019Y-70311295D01*
X95489221Y-70217212D01*
X95457102Y-70282543D01*
X95418110Y-70481919D01*
X95383907Y-70769298D01*
X95366965Y-71105992D01*
X95401105Y-71416418D01*
X95504257Y-71714256D01*
X95541862Y-71800531D01*
X95613398Y-71988372D01*
X95611394Y-72024444D01*
X95609436Y-72059679D01*
X95532806Y-72047456D01*
X95529597Y-72046233D01*
X95434503Y-72037591D01*
X95460447Y-72149691D01*
X95481581Y-72210475D01*
X95531137Y-72442056D01*
X95568094Y-72730000D01*
X95584501Y-72870156D01*
X95628131Y-73073432D01*
X95676738Y-73153333D01*
X95677401Y-73153324D01*
X95779526Y-73088245D01*
X95938892Y-72931443D01*
X96109577Y-72735574D01*
X96245662Y-72553291D01*
X96301228Y-72437250D01*
X96308711Y-72407088D01*
X96406683Y-72373509D01*
X96416472Y-72374436D01*
X96528422Y-72303365D01*
X96648859Y-72128421D01*
X96703104Y-72001184D01*
X96753699Y-71796211D01*
X96776745Y-71537491D01*
X96770605Y-71207856D01*
X96733638Y-70790139D01*
X96664206Y-70267172D01*
X96560670Y-69621786D01*
X96421392Y-68836814D01*
X96244732Y-67895088D01*
X96219983Y-67766836D01*
X96133320Y-67338172D01*
X96055567Y-66983104D01*
X95994420Y-66735552D01*
X95957573Y-66629431D01*
X95942009Y-66676239D01*
X95928195Y-66873563D01*
X95919269Y-67198366D01*
X95915932Y-67623606D01*
X95918885Y-68122238D01*
X95921109Y-68556495D01*
X95916153Y-69004127D01*
X95904030Y-69359213D01*
X95885778Y-69593202D01*
X95862432Y-69677544D01*
X95823684Y-69662667D01*
X95792616Y-69605841D01*
X95769445Y-69490031D01*
X95753639Y-69298207D01*
X95744668Y-69013338D01*
X95741998Y-68618394D01*
X95745100Y-68096344D01*
X95753442Y-67430159D01*
X95766492Y-66602807D01*
X95811053Y-63929123D01*
X96147304Y-65622456D01*
X96304214Y-66436556D01*
X96518689Y-67649014D01*
X96690198Y-68756342D01*
X96815476Y-69736831D01*
X96891258Y-70568772D01*
X96906268Y-70769274D01*
X96956772Y-71192529D01*
X97030391Y-71497483D01*
X97136266Y-71727368D01*
X97181518Y-71807395D01*
X97237609Y-71939802D01*
X97278404Y-72106142D01*
X97307080Y-72335276D01*
X97326817Y-72656067D01*
X97340793Y-73097377D01*
X97352186Y-73688070D01*
X97364566Y-74190261D01*
X97385058Y-74678382D01*
X97411011Y-75084399D01*
X97439249Y-75365318D01*
X97440349Y-75376263D01*
X97470996Y-75521931D01*
X97472692Y-75525424D01*
X97525086Y-75745282D01*
X97525447Y-76012106D01*
X97488351Y-76317193D01*
X97474088Y-75988242D01*
X97469994Y-75921339D01*
X97420260Y-75681081D01*
X97327383Y-75599384D01*
X97199335Y-75685046D01*
X97192040Y-75695228D01*
X97143212Y-75878921D01*
X97119745Y-76227690D01*
X97122394Y-76731257D01*
X97129529Y-76983045D01*
X97141828Y-77303896D01*
X97158899Y-77482006D01*
X97186896Y-77540052D01*
X97231975Y-77500713D01*
X97300292Y-77386666D01*
X97306886Y-77375110D01*
X97404942Y-77215171D01*
X97446110Y-77201474D01*
X97456257Y-77323551D01*
X97417352Y-77500777D01*
X97289803Y-77710300D01*
X97235007Y-77783907D01*
X97221273Y-77802355D01*
X97168432Y-77941146D01*
X97135400Y-78152128D01*
X97116910Y-78470638D01*
X97116405Y-78495940D01*
X97107695Y-78932013D01*
X97100306Y-79280689D01*
X97080800Y-79761535D01*
X97053557Y-80191125D01*
X97022033Y-80505965D01*
X97005034Y-80628762D01*
X96977001Y-80811533D01*
X96958232Y-80867938D01*
X96945048Y-80785030D01*
X96933767Y-80549858D01*
X96920709Y-80149473D01*
X96909129Y-79863849D01*
X96893960Y-79659153D01*
X96878670Y-79600456D01*
X96865263Y-79703859D01*
X96855166Y-79850413D01*
X96821629Y-80252769D01*
X96783301Y-80637298D01*
X96759776Y-80831089D01*
X96725153Y-81000803D01*
X96680337Y-81036360D01*
X96611403Y-80964250D01*
X96568304Y-80889685D01*
X96472609Y-80651764D01*
X96387456Y-80360211D01*
X96385124Y-80350513D01*
X96310532Y-80071495D01*
X96263369Y-79963011D01*
X96243876Y-80019579D01*
X96252293Y-80235715D01*
X96288862Y-80605938D01*
X96353824Y-81124764D01*
X96393640Y-81428098D01*
X96440045Y-81836044D01*
X96459636Y-82154423D01*
X96452554Y-82437800D01*
X96418939Y-82740740D01*
X96358930Y-83117806D01*
X96321976Y-83333551D01*
X96254717Y-83713725D01*
X96197619Y-84021267D01*
X96160124Y-84204561D01*
X96143056Y-84282354D01*
X96143049Y-84361236D01*
X96210213Y-84293684D01*
X96241030Y-84258582D01*
X96274736Y-84270230D01*
X96245698Y-84412663D01*
X96160150Y-84662338D01*
X96024326Y-84995715D01*
X95968723Y-85124897D01*
X95887535Y-85316569D01*
X95855614Y-85396768D01*
X95899483Y-85400336D01*
X96087639Y-85405217D01*
X96389942Y-85409433D01*
X96769123Y-85412349D01*
X96940227Y-85415129D01*
X97426005Y-85443155D01*
X97976165Y-85504715D01*
X98626547Y-85604340D01*
X99412991Y-85746559D01*
X99643657Y-85790195D01*
X100247557Y-85901011D01*
X100728123Y-85983814D01*
X101076763Y-86037541D01*
X101284882Y-86061128D01*
X101343886Y-86053513D01*
X101245182Y-86013633D01*
X100980176Y-85940424D01*
X100831917Y-85900125D01*
X100683304Y-85847599D01*
X100684735Y-85823172D01*
X100819485Y-85825932D01*
X101070828Y-85854966D01*
X101422040Y-85909363D01*
X101856394Y-85988210D01*
X102048026Y-86026055D01*
X102282272Y-86079458D01*
X102799216Y-86197310D01*
X103392641Y-86378875D01*
X103845033Y-86579501D01*
X104173123Y-86807940D01*
X104393643Y-87072946D01*
X104523325Y-87383269D01*
X104606490Y-87627992D01*
X104746355Y-87816001D01*
X104989266Y-87967324D01*
X105148677Y-88062400D01*
X105444102Y-88285847D01*
X105715696Y-88539145D01*
X106084198Y-88930762D01*
X107988327Y-88657966D01*
X108809759Y-88544119D01*
X109653053Y-88438929D01*
X110357598Y-88367102D01*
X110942987Y-88327377D01*
X111428809Y-88318494D01*
X111834656Y-88339191D01*
X112180120Y-88388208D01*
X112312441Y-88419432D01*
X112743249Y-88564477D01*
X113279940Y-88790636D01*
X113893385Y-89082998D01*
X114554454Y-89426648D01*
X115234016Y-89806675D01*
X115902944Y-90208165D01*
X116532106Y-90616205D01*
X116872869Y-90805012D01*
X117199710Y-90875639D01*
X117558004Y-90825578D01*
X117824813Y-90723086D01*
X118180878Y-90723086D01*
X118508523Y-90843552D01*
X118701107Y-90927931D01*
X119014843Y-91092328D01*
X119332909Y-91281779D01*
X119578924Y-91429676D01*
X119765688Y-91516213D01*
X119818629Y-91501643D01*
X119730845Y-91390050D01*
X119495439Y-91185522D01*
X119272154Y-91013584D01*
X118982632Y-90829465D01*
X118734001Y-90738186D01*
X118476386Y-90716806D01*
X118180878Y-90723086D01*
X117824813Y-90723086D01*
X117998866Y-90656225D01*
X118283982Y-90541588D01*
X118646969Y-90472966D01*
X118969647Y-90535029D01*
X119303936Y-90730742D01*
X119395275Y-90812616D01*
X119612280Y-91051607D01*
X119904989Y-91407523D01*
X119978441Y-91501643D01*
X120259042Y-91861198D01*
X120660080Y-92393470D01*
X121093744Y-92985175D01*
X121545674Y-93617148D01*
X122001510Y-94270227D01*
X122446894Y-94925247D01*
X122501304Y-95006565D01*
X122854575Y-95546819D01*
X123127686Y-96000911D01*
X123338600Y-96412551D01*
X123505277Y-96825447D01*
X123645682Y-97283310D01*
X123777774Y-97829849D01*
X123919517Y-98508772D01*
X124043750Y-99151696D01*
X124187884Y-100010377D01*
X124285190Y-100786560D01*
X124340458Y-101532548D01*
X124358479Y-102300646D01*
X124344045Y-103143158D01*
X124333485Y-103445075D01*
X124328633Y-103583804D01*
X124300783Y-104172524D01*
X124264832Y-104619722D01*
X124215329Y-104948165D01*
X124146825Y-105180618D01*
X124053872Y-105339849D01*
X123931019Y-105448623D01*
X123772818Y-105529708D01*
X123763864Y-105533475D01*
X123596961Y-105600910D01*
X123436913Y-105655560D01*
X123412831Y-105661850D01*
X123253141Y-105703559D01*
X123076008Y-105738888D01*
X123015065Y-105751043D01*
X122692106Y-105804146D01*
X122484165Y-105834908D01*
X122253687Y-105869004D01*
X121669227Y-105951752D01*
X121294290Y-106005399D01*
X120782470Y-106085095D01*
X120412963Y-106155550D01*
X120163806Y-106223349D01*
X120013032Y-106295081D01*
X119938676Y-106377333D01*
X119918772Y-106476691D01*
X119892765Y-106602689D01*
X119776376Y-106793173D01*
X119726634Y-106846344D01*
X119695060Y-106908838D01*
X119701751Y-106992289D01*
X119758266Y-107116887D01*
X119876163Y-107302823D01*
X120066999Y-107570284D01*
X120342333Y-107939462D01*
X120713722Y-108430544D01*
X120798313Y-108542317D01*
X121079894Y-108915865D01*
X121325332Y-109243634D01*
X121510709Y-109493591D01*
X121612106Y-109633702D01*
X121677069Y-109726237D01*
X121838207Y-109953400D01*
X122067605Y-110275509D01*
X122345176Y-110664369D01*
X122650833Y-111091782D01*
X123555876Y-112356196D01*
X123607680Y-113141607D01*
X123623491Y-113376175D01*
X123696817Y-114325074D01*
X123778747Y-115135081D01*
X123875045Y-115838349D01*
X123991474Y-116467032D01*
X124133797Y-117053284D01*
X124307778Y-117629258D01*
X124519178Y-118227107D01*
X124653944Y-118570262D01*
X125133291Y-119616232D01*
X125707329Y-120664465D01*
X126341383Y-121654873D01*
X127000777Y-122527368D01*
X127180206Y-122752279D01*
X127522155Y-123272104D01*
X127718694Y-123747902D01*
X127780793Y-124203240D01*
X127779124Y-124326887D01*
X127776844Y-124376666D01*
X127767313Y-124584784D01*
X127748229Y-124742885D01*
X127746303Y-124759665D01*
X127827768Y-124872270D01*
X128044537Y-124980991D01*
X128052921Y-124984001D01*
X128420516Y-125135537D01*
X128861783Y-125345159D01*
X129316926Y-125581810D01*
X129726145Y-125814433D01*
X130029642Y-126011972D01*
X130096127Y-126059379D01*
X130336935Y-126191321D01*
X130470799Y-126181517D01*
X130602044Y-126098786D01*
X130772241Y-126116041D01*
X130970753Y-126263093D01*
X131206476Y-126549093D01*
X131488306Y-126983189D01*
X131825139Y-127574534D01*
X132166388Y-128239757D01*
X132736847Y-129580572D01*
X133177141Y-130955263D01*
X133235317Y-131225271D01*
X133469765Y-132313393D01*
X133525746Y-132613476D01*
X133588627Y-132865531D01*
X133641690Y-132996895D01*
X133656812Y-133027652D01*
X133723415Y-133204544D01*
X133831413Y-133514013D01*
X133972675Y-133930993D01*
X134139072Y-134430414D01*
X134322472Y-134987208D01*
X134514745Y-135576307D01*
X134707761Y-136172643D01*
X134893389Y-136751147D01*
X135063498Y-137286751D01*
X135209959Y-137754387D01*
X135324639Y-138128985D01*
X135399410Y-138385479D01*
X135426141Y-138498799D01*
X135402491Y-138538968D01*
X135274150Y-138553272D01*
X135254847Y-138547639D01*
X135199846Y-138507182D01*
X135138641Y-138418171D01*
X135065886Y-138265254D01*
X134976231Y-138033077D01*
X134864329Y-137706286D01*
X134724832Y-137269527D01*
X134552392Y-136707447D01*
X134341660Y-136004692D01*
X134087290Y-135145909D01*
X134046199Y-135007520D01*
X133884613Y-134479297D01*
X133734680Y-134012978D01*
X133605683Y-133635948D01*
X133506908Y-133375590D01*
X133447639Y-133259287D01*
X133352307Y-133191558D01*
X133123184Y-133047881D01*
X132790454Y-132847778D01*
X132381270Y-132607556D01*
X131922788Y-132343523D01*
X131480793Y-132095752D01*
X130874750Y-131773304D01*
X130368345Y-131526401D01*
X129973951Y-131360562D01*
X129703942Y-131281309D01*
X129570692Y-131294162D01*
X129553408Y-131395772D01*
X129566987Y-131529449D01*
X129579768Y-131655273D01*
X129650698Y-132050611D01*
X129761796Y-132563518D01*
X129908659Y-133175729D01*
X130086884Y-133868977D01*
X130292069Y-134624996D01*
X130519811Y-135425519D01*
X130619919Y-135762105D01*
X130765708Y-136252281D01*
X130949531Y-136855335D01*
X131120801Y-137418430D01*
X131247160Y-137844724D01*
X131331301Y-138152727D01*
X131375914Y-138360952D01*
X131383692Y-138487908D01*
X131357325Y-138552106D01*
X131299506Y-138572057D01*
X131212926Y-138566272D01*
X131100277Y-138553261D01*
X130761840Y-138524912D01*
X130271959Y-137210160D01*
X130165960Y-136928851D01*
X130008605Y-136523846D01*
X129878534Y-136204589D01*
X129786981Y-135998327D01*
X129745178Y-135932308D01*
X129753189Y-136012176D01*
X129807239Y-136229765D01*
X129899303Y-136549153D01*
X130019739Y-136935131D01*
X130123545Y-137264689D01*
X130245538Y-137672597D01*
X130340272Y-138013059D01*
X130393151Y-138235263D01*
X130402383Y-138285968D01*
X130423042Y-138477284D01*
X130374567Y-138554879D01*
X130232594Y-138569473D01*
X130210051Y-138568396D01*
X130030547Y-138500092D01*
X129791947Y-138314526D01*
X129474013Y-137996410D01*
X129111252Y-137557837D01*
X128689700Y-136829986D01*
X128434625Y-136038498D01*
X128405935Y-135762105D01*
X129633158Y-135762105D01*
X129677720Y-135806666D01*
X129722281Y-135762105D01*
X129677720Y-135717544D01*
X129633158Y-135762105D01*
X128405935Y-135762105D01*
X128345802Y-135182807D01*
X128345637Y-135093191D01*
X128353662Y-134699535D01*
X128373348Y-134350687D01*
X128401239Y-134113333D01*
X128428070Y-133969424D01*
X128432414Y-133894060D01*
X128388153Y-133964583D01*
X128282564Y-134189117D01*
X128193130Y-134416369D01*
X128077158Y-134789849D01*
X127985489Y-135169468D01*
X127867451Y-135762105D01*
X127862186Y-135182807D01*
X127864506Y-134947942D01*
X127879742Y-134694133D01*
X127912642Y-134401955D01*
X127967809Y-134037361D01*
X128049845Y-133566304D01*
X128163351Y-132954737D01*
X128178214Y-132867100D01*
X128182732Y-132736611D01*
X128140283Y-132756176D01*
X128058632Y-132912135D01*
X127945540Y-133190828D01*
X127808773Y-133578596D01*
X127670188Y-134057200D01*
X127512193Y-134758375D01*
X127365429Y-135576766D01*
X127235720Y-136479363D01*
X127128887Y-137433158D01*
X127019227Y-138569473D01*
X125112512Y-138569473D01*
X125032795Y-138569450D01*
X124400544Y-138566885D01*
X123927078Y-138559332D01*
X123594894Y-138545733D01*
X123386491Y-138525029D01*
X123284367Y-138496161D01*
X123271020Y-138458070D01*
X123329381Y-138362600D01*
X123468592Y-138137872D01*
X123670923Y-137812562D01*
X123920034Y-137412937D01*
X124199587Y-136965263D01*
X124338913Y-136741401D01*
X124718378Y-136124871D01*
X125123200Y-135459299D01*
X125513063Y-134811183D01*
X125847652Y-134247017D01*
X126026262Y-133944544D01*
X126314179Y-133463697D01*
X126584661Y-133019468D01*
X126813751Y-132651071D01*
X126977491Y-132397719D01*
X127141967Y-132131392D01*
X127222937Y-131950984D01*
X127207883Y-131884326D01*
X127152982Y-131875253D01*
X126931096Y-131763266D01*
X126930041Y-131762491D01*
X127315965Y-131762491D01*
X127317428Y-131778130D01*
X127375495Y-131778733D01*
X127505579Y-131640175D01*
X127555365Y-131575601D01*
X127577496Y-131529449D01*
X127471930Y-131606526D01*
X127376870Y-131688097D01*
X127315965Y-131762491D01*
X126930041Y-131762491D01*
X126625141Y-131538409D01*
X126256020Y-131219428D01*
X125844634Y-130825066D01*
X125411885Y-130374068D01*
X124978674Y-129885179D01*
X124755747Y-129622990D01*
X124309806Y-129909150D01*
X124011932Y-130128824D01*
X123649941Y-130439710D01*
X123457420Y-130622313D01*
X123281063Y-130789585D01*
X123084367Y-130995736D01*
X122955702Y-131130585D01*
X122921753Y-131172281D01*
X122724261Y-131414843D01*
X122706221Y-131440889D01*
X122311181Y-132152512D01*
X122019702Y-132965335D01*
X121899872Y-133561158D01*
X121846216Y-133827949D01*
X121805153Y-134688946D01*
X121830360Y-135398244D01*
X121003644Y-135892104D01*
X120176928Y-136385965D01*
X120238165Y-137477719D01*
X120257666Y-137893762D01*
X120262554Y-138275554D01*
X120244657Y-138497593D01*
X120203671Y-138569473D01*
X120189805Y-138567637D01*
X120143356Y-138521528D01*
X120102241Y-138395083D01*
X120061926Y-138163937D01*
X120017875Y-137803731D01*
X119965555Y-137290102D01*
X119954617Y-137187776D01*
X119879417Y-136772422D01*
X119771710Y-136517335D01*
X119634579Y-136430526D01*
X119608803Y-136437542D01*
X119449960Y-136514365D01*
X119181443Y-136662488D01*
X118833044Y-136865150D01*
X118434557Y-137105592D01*
X118210568Y-137245483D01*
X118026825Y-137360239D01*
X117694109Y-137582421D01*
X117480722Y-137748486D01*
X117366929Y-137874003D01*
X117332994Y-137974539D01*
X117308864Y-138252343D01*
X117209024Y-138489061D01*
X117034167Y-138567951D01*
X116945783Y-138546418D01*
X116852677Y-138464550D01*
X116748841Y-138300600D01*
X116622797Y-138032836D01*
X116463066Y-137639529D01*
X116258168Y-137098947D01*
X116151790Y-136716975D01*
X116095277Y-136247219D01*
X116098804Y-136082157D01*
X116464690Y-136082157D01*
X116467062Y-136332118D01*
X116519769Y-136593832D01*
X116634038Y-136960307D01*
X116780493Y-137321754D01*
X117049663Y-137901052D01*
X117112965Y-137565606D01*
X117121331Y-137512865D01*
X117123843Y-137245483D01*
X117066204Y-136891999D01*
X116942712Y-136413839D01*
X116882533Y-136206482D01*
X116785490Y-135885454D01*
X116711274Y-135657039D01*
X116672414Y-135560776D01*
X116630524Y-135548920D01*
X116559362Y-135641946D01*
X116499770Y-135835895D01*
X116464690Y-136082157D01*
X116098804Y-136082157D01*
X116105168Y-135784306D01*
X116177216Y-135369340D01*
X116307173Y-135043425D01*
X116490791Y-134847665D01*
X116505069Y-134838289D01*
X116590686Y-134674747D01*
X116614306Y-134388572D01*
X116579262Y-134018293D01*
X116564313Y-133949506D01*
X117027655Y-133949506D01*
X117047460Y-134090341D01*
X117095441Y-134349197D01*
X117164466Y-134686406D01*
X117200885Y-134845176D01*
X117403650Y-135471715D01*
X117670646Y-135988883D01*
X117985716Y-136363684D01*
X118107970Y-136466810D01*
X118172233Y-136511774D01*
X118243312Y-136465273D01*
X118474978Y-136363543D01*
X118792758Y-136252664D01*
X119140037Y-136150146D01*
X119460202Y-136073503D01*
X119696640Y-136040245D01*
X119852786Y-136028900D01*
X120127840Y-135968971D01*
X120436002Y-135841480D01*
X120831863Y-135626531D01*
X121520797Y-135227368D01*
X121522664Y-134826316D01*
X121525773Y-134687339D01*
X121547427Y-134311790D01*
X121582507Y-133942389D01*
X121605281Y-133734289D01*
X121608870Y-133561158D01*
X121570377Y-133502143D01*
X121481010Y-133520709D01*
X121415470Y-133539753D01*
X121184852Y-133589140D01*
X120851797Y-133649649D01*
X120464190Y-133712259D01*
X120232944Y-133751767D01*
X119719392Y-133867086D01*
X119216803Y-134012953D01*
X118752407Y-134178096D01*
X118353435Y-134351247D01*
X118047119Y-134521136D01*
X117860689Y-134676491D01*
X117821375Y-134806044D01*
X117865065Y-134942608D01*
X117923508Y-135168806D01*
X117952288Y-135307049D01*
X117937942Y-135341269D01*
X117849475Y-135227368D01*
X117848285Y-135225705D01*
X117737725Y-135058740D01*
X117572456Y-134795461D01*
X117387790Y-134492105D01*
X117365094Y-134454332D01*
X117203586Y-134191302D01*
X117083496Y-134005501D01*
X117029377Y-133935088D01*
X117027655Y-133949506D01*
X116564313Y-133949506D01*
X116488886Y-133602440D01*
X116346510Y-133179542D01*
X116337708Y-133157826D01*
X116209215Y-132869418D01*
X116169804Y-132813160D01*
X116993579Y-132813160D01*
X117003667Y-132967231D01*
X117114381Y-133254908D01*
X117327713Y-133681548D01*
X117362453Y-133746671D01*
X117541799Y-134075431D01*
X117664828Y-134273351D01*
X117753464Y-134364273D01*
X117829627Y-134372036D01*
X117915243Y-134320481D01*
X118308963Y-134071449D01*
X118861318Y-133810446D01*
X119461139Y-133597118D01*
X120046506Y-133453056D01*
X120555496Y-133399854D01*
X120745933Y-133394651D01*
X121209881Y-133326366D01*
X121538254Y-133183442D01*
X121715498Y-132971622D01*
X121960066Y-132386348D01*
X122205878Y-131884372D01*
X122437051Y-131512190D01*
X122682697Y-131172281D01*
X122411257Y-131172281D01*
X122259856Y-131175652D01*
X121800067Y-131208497D01*
X121255480Y-131269414D01*
X120688855Y-131349875D01*
X120162950Y-131441348D01*
X119740527Y-131535302D01*
X119449836Y-131627542D01*
X119065382Y-131773615D01*
X118632932Y-131954395D01*
X118188192Y-132153384D01*
X117766870Y-132354080D01*
X117404673Y-132539984D01*
X117137308Y-132694598D01*
X117000484Y-132801420D01*
X116993579Y-132813160D01*
X116169804Y-132813160D01*
X116078999Y-132683539D01*
X115892790Y-132543162D01*
X115596316Y-132391260D01*
X115541690Y-132364947D01*
X115324554Y-132253931D01*
X115119678Y-132133484D01*
X114910030Y-131988776D01*
X114728507Y-131844625D01*
X116213917Y-131844625D01*
X116236527Y-131982040D01*
X116364913Y-132196964D01*
X116490239Y-132375893D01*
X116598210Y-132482580D01*
X116701366Y-132477828D01*
X116852634Y-132381685D01*
X116915859Y-132340621D01*
X117239481Y-132173647D01*
X117693935Y-131981282D01*
X118245828Y-131774994D01*
X118861768Y-131566248D01*
X119508362Y-131366512D01*
X120152217Y-131187253D01*
X120759941Y-131039937D01*
X120805913Y-131029445D01*
X120902674Y-130995736D01*
X120888140Y-130953837D01*
X120743017Y-130887767D01*
X120448011Y-130781544D01*
X120163359Y-130670190D01*
X119787529Y-130494978D01*
X119488513Y-130325413D01*
X119102815Y-130069953D01*
X118329916Y-130452144D01*
X118007513Y-130618304D01*
X117554965Y-130870442D01*
X117118743Y-131132253D01*
X116734562Y-131381268D01*
X116438137Y-131595021D01*
X116265182Y-131751043D01*
X116213917Y-131844625D01*
X114728507Y-131844625D01*
X114678582Y-131804979D01*
X114408303Y-131567263D01*
X114082164Y-131260799D01*
X113683134Y-130870758D01*
X113194185Y-130382310D01*
X112598286Y-129780627D01*
X111772381Y-128940534D01*
X110991741Y-128136868D01*
X110323009Y-127436512D01*
X109756957Y-126829561D01*
X109284357Y-126306111D01*
X108895982Y-125856257D01*
X108582604Y-125470093D01*
X108512317Y-125383950D01*
X108374435Y-125241086D01*
X108300658Y-125203770D01*
X108280382Y-125230774D01*
X108180982Y-125397087D01*
X108021734Y-125684481D01*
X107816774Y-126065862D01*
X107580240Y-126514134D01*
X107496035Y-126675955D01*
X107326270Y-127002201D01*
X107069001Y-127502969D01*
X106822570Y-127989343D01*
X106601115Y-128434227D01*
X106418773Y-128810526D01*
X106385285Y-128881169D01*
X106148329Y-129389824D01*
X106109357Y-129473481D01*
X106027541Y-129657193D01*
X105863444Y-130025659D01*
X105640617Y-130559102D01*
X105433946Y-131095210D01*
X105406781Y-131172281D01*
X105299453Y-131476783D01*
X105236502Y-131655383D01*
X105041355Y-132261020D01*
X104841576Y-132933523D01*
X104630235Y-133694290D01*
X104400403Y-134564721D01*
X104145150Y-135566216D01*
X103857547Y-136720175D01*
X103400070Y-138569473D01*
X102113619Y-138569473D01*
X100827168Y-138569473D01*
X100886014Y-138335014D01*
X100919040Y-138193106D01*
X100984243Y-137901186D01*
X101073000Y-137497578D01*
X101178144Y-137014887D01*
X101292507Y-136485716D01*
X101388328Y-136042327D01*
X101509885Y-135484282D01*
X101622345Y-134972578D01*
X101716324Y-134549873D01*
X101782437Y-134258821D01*
X101787690Y-134236081D01*
X101851074Y-133932464D01*
X101886125Y-133707137D01*
X101885366Y-133607412D01*
X101881470Y-133610215D01*
X101841849Y-133723214D01*
X101767861Y-133983131D01*
X101665062Y-134368805D01*
X101539004Y-134859075D01*
X101395242Y-135432783D01*
X101239330Y-136068767D01*
X101100194Y-136640736D01*
X100951410Y-137244187D01*
X100833209Y-137707028D01*
X100739595Y-138047800D01*
X100664571Y-138285040D01*
X100602140Y-138437288D01*
X100546305Y-138523084D01*
X100491069Y-138560966D01*
X100430436Y-138569473D01*
X100306963Y-138547121D01*
X100268544Y-138458070D01*
X100300870Y-138347544D01*
X100369873Y-138084874D01*
X100467736Y-137698781D01*
X100588954Y-137212073D01*
X100728024Y-136647557D01*
X100879443Y-136028036D01*
X101037706Y-135376319D01*
X101197309Y-134715211D01*
X101352750Y-134067518D01*
X101498524Y-133456047D01*
X101629127Y-132903603D01*
X101739055Y-132432993D01*
X101822806Y-132067022D01*
X101874874Y-131828497D01*
X101889757Y-131740224D01*
X101872931Y-131762136D01*
X101814967Y-131915530D01*
X101729462Y-132184094D01*
X101628106Y-132532434D01*
X101616510Y-132573837D01*
X101524560Y-132901552D01*
X101394379Y-133364867D01*
X101234566Y-133933208D01*
X101053720Y-134575999D01*
X100860441Y-135262665D01*
X100663329Y-135962631D01*
X99929059Y-138569473D01*
X99668787Y-138569473D01*
X99586524Y-138567070D01*
X99458184Y-138526087D01*
X99454599Y-138413509D01*
X99478927Y-138331237D01*
X99633143Y-137811743D01*
X99817572Y-137193203D01*
X100024828Y-136500149D01*
X100247528Y-135757111D01*
X100478288Y-134988619D01*
X100709724Y-134219204D01*
X100934453Y-133473396D01*
X101145090Y-132775726D01*
X101334252Y-132150725D01*
X101494555Y-131622922D01*
X101539907Y-131474476D01*
X101929968Y-131474476D01*
X101951243Y-131593757D01*
X101981666Y-131592377D01*
X101998052Y-131476783D01*
X101983780Y-131389180D01*
X101944207Y-131422938D01*
X101929968Y-131474476D01*
X101539907Y-131474476D01*
X101618615Y-131216849D01*
X101646762Y-131125928D01*
X102024129Y-131125928D01*
X102034796Y-131231696D01*
X102061602Y-131245639D01*
X102094211Y-131172281D01*
X102087779Y-131125099D01*
X102034796Y-131112865D01*
X102024129Y-131125928D01*
X101646762Y-131125928D01*
X101699048Y-130957036D01*
X101830842Y-130531724D01*
X101937557Y-130166041D01*
X101992597Y-129940534D01*
X101999609Y-129839834D01*
X101962244Y-129848574D01*
X101949187Y-129877306D01*
X101884112Y-130051201D01*
X101771256Y-130366758D01*
X101743911Y-130444566D01*
X101616785Y-130806294D01*
X101426866Y-131352130D01*
X101207663Y-131986584D01*
X100965344Y-132691974D01*
X100706074Y-133450621D01*
X100607939Y-133738485D01*
X100339301Y-134526388D01*
X100081408Y-135282643D01*
X99842053Y-135984407D01*
X99629028Y-136608834D01*
X99450126Y-137133080D01*
X99313142Y-137534300D01*
X99225867Y-137789649D01*
X99141867Y-138030523D01*
X99031662Y-138313737D01*
X98941660Y-138476889D01*
X98852330Y-138551597D01*
X98744143Y-138569473D01*
X98605564Y-138560827D01*
X98529299Y-138533044D01*
X98551141Y-138467143D01*
X98628605Y-138254247D01*
X98754002Y-137916565D01*
X98918878Y-137476727D01*
X99114780Y-136957361D01*
X99333255Y-136381094D01*
X99519458Y-135888534D01*
X99716609Y-135360662D01*
X99882525Y-134909382D01*
X100009048Y-134557149D01*
X100088018Y-134326417D01*
X100111279Y-134239641D01*
X100054349Y-134254607D01*
X99880869Y-134338169D01*
X99636315Y-134472957D01*
X99478319Y-134568052D01*
X99271513Y-134730820D01*
X99140700Y-134928546D01*
X99030029Y-135231069D01*
X98949700Y-135472719D01*
X98479674Y-136574110D01*
X97849649Y-137654405D01*
X97709359Y-137863214D01*
X97521583Y-138135395D01*
X97386447Y-138321980D01*
X97326489Y-138391228D01*
X97331581Y-138364221D01*
X97396447Y-138212680D01*
X97518036Y-137957611D01*
X97680384Y-137633205D01*
X97901580Y-137170426D01*
X98137296Y-136623520D01*
X98356058Y-136067012D01*
X98535962Y-135556742D01*
X98655101Y-135148547D01*
X98716953Y-134891480D01*
X98103336Y-134951944D01*
X97941073Y-134973920D01*
X97526525Y-135059137D01*
X97056896Y-135183582D01*
X96605824Y-135328727D01*
X96447374Y-135384238D01*
X95910992Y-135560501D01*
X95342383Y-135733913D01*
X94840810Y-135873819D01*
X93959690Y-136102591D01*
X94014294Y-136957260D01*
X94025793Y-137129420D01*
X94058124Y-137557537D01*
X94091798Y-137940932D01*
X94121146Y-138212982D01*
X94136345Y-138349538D01*
X94134899Y-138500631D01*
X94090186Y-138480351D01*
X94048577Y-138396138D01*
X93956661Y-138111687D01*
X93866160Y-137719050D01*
X93787144Y-137265240D01*
X93729683Y-136797272D01*
X93672106Y-136186796D01*
X92959123Y-136400552D01*
X92691352Y-136479238D01*
X92637372Y-136493154D01*
X92347372Y-136567915D01*
X91905893Y-136681727D01*
X91614256Y-136756910D01*
X90606310Y-136944869D01*
X89604934Y-137052910D01*
X88547544Y-137090822D01*
X88281714Y-137091133D01*
X87724279Y-137085126D01*
X87197119Y-137071390D01*
X86749547Y-137051420D01*
X86430878Y-137026709D01*
X85784737Y-136954470D01*
X85784737Y-137761972D01*
X85784737Y-138569473D01*
X85521097Y-138569473D01*
X85257457Y-138569473D01*
X85310447Y-137699676D01*
X85363438Y-136829879D01*
X84660579Y-136626122D01*
X84227697Y-136492814D01*
X83760445Y-136336640D01*
X83363688Y-136192519D01*
X82769657Y-135962674D01*
X81893162Y-136303562D01*
X81611885Y-136413068D01*
X81299357Y-136535056D01*
X81082347Y-136620150D01*
X80996173Y-136654532D01*
X80980342Y-136713539D01*
X80941164Y-136916764D01*
X80886356Y-137230049D01*
X80822476Y-137617043D01*
X80669272Y-138569473D01*
X80407522Y-138569473D01*
X80309869Y-138567843D01*
X80200448Y-138536636D01*
X80171931Y-138427277D01*
X80197055Y-138190702D01*
X80205929Y-138125205D01*
X80273085Y-137628650D01*
X80317565Y-137281335D01*
X80339537Y-137058482D01*
X80339170Y-136935312D01*
X80316631Y-136887047D01*
X80272088Y-136888907D01*
X80205711Y-136916116D01*
X80204098Y-136916775D01*
X79943704Y-137011186D01*
X79546426Y-137140356D01*
X79047465Y-137293861D01*
X78482020Y-137461278D01*
X77885289Y-137632184D01*
X77292474Y-137796154D01*
X76738772Y-137942766D01*
X76314021Y-138049828D01*
X75320777Y-138277077D01*
X74455919Y-138434610D01*
X73694290Y-138523683D01*
X73010728Y-138545554D01*
X72380075Y-138501477D01*
X71777173Y-138392711D01*
X71176861Y-138220510D01*
X71126634Y-138203511D01*
X70618125Y-138014631D01*
X70106462Y-137798273D01*
X69634898Y-137574812D01*
X69246689Y-137364622D01*
X68985088Y-137188078D01*
X68974134Y-137178953D01*
X68900479Y-137113957D01*
X68886998Y-137084822D01*
X68954596Y-137098003D01*
X69124183Y-137159955D01*
X69416665Y-137277131D01*
X69852950Y-137455986D01*
X70117421Y-137560723D01*
X70682806Y-137753082D01*
X71271007Y-137904347D01*
X71933814Y-138026727D01*
X72723020Y-138132427D01*
X73202744Y-138177946D01*
X73722349Y-138199089D01*
X74247047Y-138185748D01*
X74794514Y-138134048D01*
X75382431Y-138040113D01*
X76028473Y-137900065D01*
X76750319Y-137710030D01*
X77565646Y-137466131D01*
X78492134Y-137164491D01*
X79547458Y-136801234D01*
X80749299Y-136372484D01*
X81027900Y-136271859D01*
X81464982Y-136114102D01*
X81830049Y-135982474D01*
X82091229Y-135888463D01*
X82216650Y-135843558D01*
X82227004Y-135815986D01*
X82124586Y-135717018D01*
X81888922Y-135562014D01*
X81537438Y-135363298D01*
X81331017Y-135251616D01*
X80853190Y-134983632D01*
X80396035Y-134710632D01*
X79937065Y-134417000D01*
X79453791Y-134087117D01*
X78923726Y-133705367D01*
X78324380Y-133256133D01*
X77637728Y-132727235D01*
X78133024Y-132727235D01*
X78245574Y-132844293D01*
X78497487Y-133042152D01*
X78893297Y-133324381D01*
X79437536Y-133694548D01*
X80457729Y-134353384D01*
X81674815Y-135065155D01*
X82811944Y-135640539D01*
X83880910Y-136085398D01*
X84893509Y-136405593D01*
X84946613Y-136419449D01*
X85273575Y-136497963D01*
X85583462Y-136555659D01*
X85915336Y-136596370D01*
X86308260Y-136623932D01*
X86801297Y-136642179D01*
X87433509Y-136654946D01*
X89126842Y-136681727D01*
X87745439Y-136610201D01*
X87702367Y-136607952D01*
X86962723Y-136559770D01*
X89282221Y-136559770D01*
X89335136Y-136577545D01*
X89527895Y-136584498D01*
X89658683Y-136581898D01*
X89770656Y-136567915D01*
X89728421Y-136545875D01*
X89587071Y-136531130D01*
X89327369Y-136545875D01*
X89282221Y-136559770D01*
X86962723Y-136559770D01*
X86804377Y-136549455D01*
X86244482Y-136491571D01*
X90025233Y-136491571D01*
X90151755Y-136505577D01*
X90274354Y-136493154D01*
X90263158Y-136460625D01*
X90222816Y-136448853D01*
X90040351Y-136460625D01*
X90025233Y-136491571D01*
X86244482Y-136491571D01*
X86043135Y-136470755D01*
X85379166Y-136362306D01*
X84772996Y-136214564D01*
X84185149Y-136017983D01*
X83576153Y-135763018D01*
X82906531Y-135440123D01*
X82538250Y-135250716D01*
X81827631Y-134868850D01*
X81108305Y-134463708D01*
X80422798Y-134060025D01*
X79813632Y-133682535D01*
X79323334Y-133355972D01*
X79280190Y-133325801D01*
X78905654Y-133076170D01*
X78570830Y-132873362D01*
X78310201Y-132737165D01*
X78158250Y-132687368D01*
X78155304Y-132687407D01*
X78133024Y-132727235D01*
X77637728Y-132727235D01*
X77633266Y-132723798D01*
X76827895Y-132092745D01*
X76585125Y-131905529D01*
X76165580Y-131596400D01*
X75760669Y-131313073D01*
X75431873Y-131099299D01*
X74837955Y-130737967D01*
X73738539Y-130927504D01*
X73674573Y-130938395D01*
X73093885Y-131022907D01*
X72505195Y-131078983D01*
X71851995Y-131110761D01*
X71077778Y-131122380D01*
X69516433Y-131127719D01*
X68917438Y-130832922D01*
X68584251Y-130649837D01*
X68240663Y-130426306D01*
X67983793Y-130222510D01*
X67649143Y-129906895D01*
X67177305Y-130413814D01*
X66923249Y-130707092D01*
X66778335Y-130933151D01*
X66756658Y-131082025D01*
X66761474Y-131099383D01*
X66801308Y-131265659D01*
X66873454Y-131580832D01*
X66973521Y-132025237D01*
X67097115Y-132579208D01*
X67192469Y-133009358D01*
X67239846Y-133223078D01*
X67397320Y-133937180D01*
X67565144Y-134701849D01*
X67612076Y-134916127D01*
X67618584Y-134945805D01*
X67691532Y-135278463D01*
X67777712Y-135671458D01*
X67931760Y-136372543D01*
X68069807Y-136999402D01*
X68187444Y-137532051D01*
X68280258Y-137950509D01*
X68343839Y-138234795D01*
X68373775Y-138364927D01*
X68382567Y-138520198D01*
X68283465Y-138569473D01*
X68240193Y-138569461D01*
X68195643Y-138557051D01*
X68155913Y-138509269D01*
X68113924Y-138402974D01*
X68062594Y-138215025D01*
X67994842Y-137922280D01*
X67903587Y-137501598D01*
X67781747Y-136929837D01*
X67746074Y-136763824D01*
X67651084Y-136336447D01*
X67568643Y-135985988D01*
X67506585Y-135744996D01*
X67472743Y-135646018D01*
X67450315Y-135629741D01*
X67302532Y-135550172D01*
X67076636Y-135443692D01*
X66725763Y-135286602D01*
X66295777Y-136057732D01*
X66065715Y-136447195D01*
X65704497Y-136966932D01*
X65359171Y-137353730D01*
X65041617Y-137595022D01*
X64763713Y-137678245D01*
X64704000Y-137675659D01*
X64334425Y-137578436D01*
X63899674Y-137353132D01*
X63428105Y-137016800D01*
X62948074Y-136586491D01*
X62824199Y-136357192D01*
X62798869Y-136065874D01*
X62881416Y-135806666D01*
X62907346Y-135771928D01*
X62936790Y-135788427D01*
X62912700Y-135966494D01*
X62894608Y-136102597D01*
X62920908Y-136253737D01*
X63030323Y-136413516D01*
X63249555Y-136634915D01*
X63428854Y-136789922D01*
X63791030Y-137052523D01*
X64147811Y-137263066D01*
X64383187Y-137369354D01*
X64702762Y-137455169D01*
X64985424Y-137434635D01*
X65251062Y-137295637D01*
X65519563Y-137026062D01*
X65810816Y-136613796D01*
X66144707Y-136046724D01*
X66268013Y-135825131D01*
X66425035Y-135533467D01*
X66508915Y-135348043D01*
X66528690Y-135237329D01*
X66493397Y-135169793D01*
X66412075Y-135113906D01*
X65739069Y-134713924D01*
X65182873Y-134389747D01*
X64750044Y-134146846D01*
X64426583Y-133978402D01*
X64198491Y-133877595D01*
X64051770Y-133837607D01*
X63972421Y-133851617D01*
X63946444Y-133912807D01*
X63941685Y-133930383D01*
X63861875Y-134060557D01*
X63715624Y-134247017D01*
X63488009Y-134514386D01*
X63691223Y-134148312D01*
X63894437Y-133782238D01*
X63610114Y-133437304D01*
X63562675Y-133375753D01*
X64050801Y-133375753D01*
X64085972Y-133486631D01*
X64239299Y-133642155D01*
X64346435Y-133725248D01*
X64607491Y-133898570D01*
X64967666Y-134120642D01*
X65392848Y-134371450D01*
X65848926Y-134630979D01*
X66301790Y-134879215D01*
X66717328Y-135096143D01*
X67047636Y-135255477D01*
X67273107Y-135341504D01*
X67391251Y-135347160D01*
X67425439Y-135278463D01*
X67373322Y-135217539D01*
X67196766Y-135103842D01*
X66938504Y-134972947D01*
X66815814Y-134914579D01*
X66290083Y-134628867D01*
X65715898Y-134271995D01*
X65156858Y-133885115D01*
X64676561Y-133509378D01*
X64521373Y-133380622D01*
X64315432Y-133231338D01*
X64191474Y-133186036D01*
X64120908Y-133230359D01*
X64114125Y-133241128D01*
X64050801Y-133375753D01*
X63562675Y-133375753D01*
X63516163Y-133315405D01*
X63379510Y-133099051D01*
X63325790Y-132952039D01*
X63326145Y-132944082D01*
X63332758Y-132908620D01*
X63593158Y-132908620D01*
X63599808Y-132974271D01*
X63664623Y-133041969D01*
X63767299Y-132978328D01*
X63782477Y-132951555D01*
X64272081Y-132951555D01*
X64489637Y-133185602D01*
X64669705Y-133353287D01*
X64941024Y-133575271D01*
X65241930Y-133800591D01*
X65403988Y-133911891D01*
X65729637Y-134119852D01*
X66090694Y-134336112D01*
X66456006Y-134543640D01*
X66794419Y-134725405D01*
X67074780Y-134864375D01*
X67265934Y-134943519D01*
X67336729Y-134945805D01*
X67334427Y-134921285D01*
X67306226Y-134752766D01*
X67252662Y-134471750D01*
X67182260Y-134123611D01*
X67116639Y-133818522D01*
X67045189Y-133558992D01*
X66962964Y-133392516D01*
X66845765Y-133273443D01*
X66669391Y-133156121D01*
X66499711Y-133050762D01*
X65992385Y-132718281D01*
X65574863Y-132410030D01*
X65191615Y-132085789D01*
X64985247Y-131905628D01*
X64807919Y-131762055D01*
X64721519Y-131707017D01*
X64717471Y-131708647D01*
X64662874Y-131807226D01*
X64575581Y-132028187D01*
X64472496Y-132329286D01*
X64272081Y-132951555D01*
X63782477Y-132951555D01*
X63869092Y-132798772D01*
X63925536Y-132645680D01*
X64068705Y-132218453D01*
X64208485Y-131752735D01*
X64283826Y-131476637D01*
X64750952Y-131476637D01*
X65357600Y-132059722D01*
X65386530Y-132087303D01*
X65663500Y-132333766D01*
X65959093Y-132571863D01*
X66242547Y-132780032D01*
X66483100Y-132936712D01*
X66649990Y-133020341D01*
X66712456Y-133009358D01*
X66677808Y-132922948D01*
X66579591Y-132708117D01*
X66433155Y-132398257D01*
X66253883Y-132026346D01*
X66149320Y-131815442D01*
X65927908Y-131406910D01*
X65761210Y-131163669D01*
X65647582Y-131083158D01*
X65603876Y-131071903D01*
X65462662Y-130943759D01*
X65318379Y-130708463D01*
X65136904Y-130333769D01*
X64943928Y-130905203D01*
X64750952Y-131476637D01*
X64283826Y-131476637D01*
X64338933Y-131274687D01*
X64454105Y-130810473D01*
X64548059Y-130386257D01*
X64614851Y-130028202D01*
X64648538Y-129762470D01*
X64646919Y-129717994D01*
X68070947Y-129717994D01*
X68101942Y-129762470D01*
X68143294Y-129821807D01*
X68346232Y-129961937D01*
X68644526Y-130121065D01*
X69002944Y-130281873D01*
X69386251Y-130427045D01*
X69759213Y-130539262D01*
X70058048Y-130605067D01*
X70710575Y-130699827D01*
X71418169Y-130750661D01*
X72135212Y-130757789D01*
X72816084Y-130721435D01*
X73415167Y-130641820D01*
X73886842Y-130519166D01*
X74243334Y-130388375D01*
X73485790Y-130034151D01*
X73370713Y-129981328D01*
X72890243Y-129774073D01*
X72362195Y-129561815D01*
X71881579Y-129383113D01*
X71827886Y-129364732D01*
X73754982Y-129364732D01*
X73755943Y-129373281D01*
X73841958Y-129490624D01*
X74045183Y-129673378D01*
X74334349Y-129897175D01*
X74678190Y-130137647D01*
X75045439Y-130370428D01*
X75074062Y-130388375D01*
X75175094Y-130451723D01*
X75466165Y-130644657D01*
X75819718Y-130887220D01*
X76185887Y-131145522D01*
X76449040Y-131331097D01*
X76733483Y-131524113D01*
X76938780Y-131654398D01*
X77032554Y-131700722D01*
X77076684Y-131688240D01*
X77251288Y-131620459D01*
X77496316Y-131514814D01*
X78326919Y-131147689D01*
X79293625Y-130737084D01*
X83622691Y-130737084D01*
X83691700Y-130891736D01*
X83941738Y-131158133D01*
X84339887Y-131412389D01*
X84866975Y-131646557D01*
X85503825Y-131852693D01*
X86231265Y-132022851D01*
X87030118Y-132149084D01*
X87465537Y-132187081D01*
X88058772Y-132213661D01*
X88750020Y-132226810D01*
X89498414Y-132226886D01*
X90263089Y-132214245D01*
X91003180Y-132189244D01*
X91677819Y-132152238D01*
X92246141Y-132103585D01*
X92665210Y-132058888D01*
X93040935Y-132020205D01*
X93321037Y-131992886D01*
X93464741Y-131981029D01*
X93637989Y-131925791D01*
X93901265Y-131721443D01*
X94189457Y-131386428D01*
X94258641Y-131281292D01*
X97615425Y-131281292D01*
X97633124Y-131350526D01*
X97714836Y-131302349D01*
X97824070Y-131150000D01*
X97834500Y-131130573D01*
X97976092Y-130920365D01*
X98161416Y-130697020D01*
X98395614Y-130444566D01*
X98143378Y-130558617D01*
X98095132Y-130584697D01*
X97888854Y-130766789D01*
X97718234Y-131011597D01*
X97673269Y-131106671D01*
X97615425Y-131281292D01*
X94258641Y-131281292D01*
X94482216Y-130941535D01*
X94556496Y-130817629D01*
X94833466Y-130413823D01*
X95142008Y-130066788D01*
X95505920Y-129760890D01*
X95743025Y-129610840D01*
X102024129Y-129610840D01*
X102034796Y-129716608D01*
X102061602Y-129730551D01*
X102094211Y-129657193D01*
X102087779Y-129610011D01*
X102034796Y-129597778D01*
X102024129Y-129610840D01*
X95743025Y-129610840D01*
X95948998Y-129480492D01*
X96225556Y-129343472D01*
X102113252Y-129343472D01*
X102123918Y-129449240D01*
X102150725Y-129463183D01*
X102183334Y-129389824D01*
X102176902Y-129342643D01*
X102123918Y-129330409D01*
X102113252Y-129343472D01*
X96225556Y-129343472D01*
X96495038Y-129209958D01*
X97167839Y-128933654D01*
X97991197Y-128635941D01*
X98275199Y-128537256D01*
X98758366Y-128365312D01*
X99106268Y-128232520D01*
X99342085Y-128127974D01*
X99488994Y-128040766D01*
X99570174Y-127959990D01*
X99608804Y-127874737D01*
X99613891Y-127855383D01*
X99660187Y-127559435D01*
X99685116Y-127154321D01*
X99690565Y-126675955D01*
X99678420Y-126160248D01*
X99650568Y-125643113D01*
X99608898Y-125160464D01*
X99555295Y-124748211D01*
X99491646Y-124442269D01*
X99419840Y-124278549D01*
X99347510Y-124266488D01*
X99130738Y-124287990D01*
X98810868Y-124345735D01*
X98426725Y-124433659D01*
X98060952Y-124533256D01*
X97537878Y-124688219D01*
X96889194Y-124888786D01*
X96136418Y-125127735D01*
X95301068Y-125397839D01*
X94404662Y-125691875D01*
X93468719Y-126002617D01*
X92514756Y-126322842D01*
X91564291Y-126645325D01*
X90638843Y-126962841D01*
X89759931Y-127268166D01*
X88949071Y-127554076D01*
X88227783Y-127813345D01*
X87617584Y-128038750D01*
X87139993Y-128223065D01*
X87069215Y-128251446D01*
X86130489Y-128653751D01*
X85330510Y-129047495D01*
X84675304Y-129428372D01*
X84170894Y-129792075D01*
X83823305Y-130134299D01*
X83638563Y-130450737D01*
X83622691Y-130737084D01*
X79293625Y-130737084D01*
X79678553Y-130573587D01*
X81012497Y-130038877D01*
X82367348Y-129529229D01*
X83781706Y-129030311D01*
X85294168Y-128527793D01*
X86943334Y-128007345D01*
X87531468Y-127822322D01*
X88442531Y-127516983D01*
X89199051Y-127234281D01*
X89814216Y-126967669D01*
X90301216Y-126710599D01*
X90673240Y-126456521D01*
X90943478Y-126198889D01*
X91125119Y-125931153D01*
X91199000Y-125801394D01*
X91501357Y-125418674D01*
X91938779Y-125030121D01*
X92524324Y-124625161D01*
X93271053Y-124193215D01*
X93356714Y-124147571D01*
X94010613Y-123829371D01*
X94742996Y-123516449D01*
X95507327Y-123225634D01*
X96257072Y-122973755D01*
X96945697Y-122777643D01*
X97526667Y-122654126D01*
X97628577Y-122636889D01*
X97826724Y-122595877D01*
X97905439Y-122567176D01*
X97880654Y-122536284D01*
X97751920Y-122398048D01*
X97531977Y-122169340D01*
X97241910Y-121872017D01*
X96902807Y-121527935D01*
X96762399Y-121384472D01*
X96371971Y-120970252D01*
X96000475Y-120556163D01*
X95684322Y-120183453D01*
X95459924Y-119893372D01*
X95019672Y-119271515D01*
X94078521Y-119641405D01*
X93750209Y-119768807D01*
X93379591Y-119908581D01*
X93086357Y-120014659D01*
X92914562Y-120070789D01*
X92783175Y-120103474D01*
X92751343Y-120087735D01*
X92870000Y-119983311D01*
X92897598Y-119960447D01*
X92981588Y-119879287D01*
X92935127Y-119863352D01*
X92736316Y-119898800D01*
X92592752Y-119935595D01*
X92289622Y-120029610D01*
X91907039Y-120159410D01*
X91494911Y-120308525D01*
X91177296Y-120424087D01*
X90816725Y-120547311D01*
X90537029Y-120633824D01*
X90380876Y-120669791D01*
X90344617Y-120680206D01*
X90428016Y-120705351D01*
X90641930Y-120736633D01*
X91087544Y-120789473D01*
X90107193Y-121197457D01*
X89766321Y-121338529D01*
X89310157Y-121525258D01*
X88898836Y-121691512D01*
X88592106Y-121813015D01*
X88428988Y-121879328D01*
X88079968Y-122029064D01*
X87637236Y-122224904D01*
X87140983Y-122449001D01*
X86631404Y-122683511D01*
X86563562Y-122715016D01*
X86131213Y-122914839D01*
X85569329Y-123173349D01*
X84905264Y-123478021D01*
X84166368Y-123816330D01*
X83379992Y-124175750D01*
X82573490Y-124543756D01*
X81774211Y-124907823D01*
X81757470Y-124915442D01*
X80556759Y-125463767D01*
X79509648Y-125946176D01*
X78606272Y-126367457D01*
X77836765Y-126732399D01*
X77191261Y-127045793D01*
X76659894Y-127312425D01*
X76232798Y-127537086D01*
X75900108Y-127724565D01*
X75651957Y-127879650D01*
X75520691Y-127968537D01*
X75085396Y-128273041D01*
X74673373Y-128574761D01*
X74309471Y-128854244D01*
X74018539Y-129092036D01*
X73825427Y-129268683D01*
X73754982Y-129364732D01*
X71827886Y-129364732D01*
X71631615Y-129297542D01*
X71259256Y-129186570D01*
X70928530Y-129121915D01*
X70566223Y-129091211D01*
X70099123Y-129082096D01*
X70072004Y-129081981D01*
X69645720Y-129084559D01*
X69341681Y-129102652D01*
X69106793Y-129145784D01*
X68887965Y-129223480D01*
X68632104Y-129345263D01*
X68366729Y-129489678D01*
X68161394Y-129622959D01*
X68072294Y-129710130D01*
X68070947Y-129717994D01*
X64646919Y-129717994D01*
X64643178Y-129615226D01*
X64592828Y-129612631D01*
X64530891Y-129700869D01*
X64403976Y-129965006D01*
X64257089Y-130343223D01*
X64101602Y-130798026D01*
X63948886Y-131291925D01*
X63810312Y-131787425D01*
X63697252Y-132247036D01*
X63621077Y-132633265D01*
X63593158Y-132908620D01*
X63332758Y-132908620D01*
X63354778Y-132790535D01*
X63422630Y-132507777D01*
X63520312Y-132133273D01*
X63638434Y-131704488D01*
X63656504Y-131640202D01*
X63769044Y-131225268D01*
X63856839Y-130876532D01*
X63911462Y-130628955D01*
X63924488Y-130517499D01*
X63899200Y-130538039D01*
X63809172Y-130688601D01*
X63666967Y-130958547D01*
X63485487Y-131323142D01*
X63277634Y-131757651D01*
X63175542Y-131972469D01*
X62924018Y-132484807D01*
X62672884Y-132976051D01*
X62446504Y-133399100D01*
X62269244Y-133706856D01*
X62256601Y-133727387D01*
X61690582Y-134726784D01*
X61243298Y-135685944D01*
X60923508Y-136583728D01*
X60739967Y-137398995D01*
X60653253Y-137990175D01*
X60986890Y-138278499D01*
X61320527Y-138566822D01*
X60362456Y-138568148D01*
X60073546Y-138565067D01*
X59721406Y-138548720D01*
X59488545Y-138520621D01*
X59404386Y-138483374D01*
X59414954Y-138417601D01*
X59485044Y-138228799D01*
X59592288Y-138014971D01*
X59702938Y-137839899D01*
X59783243Y-137767368D01*
X59863529Y-137785556D01*
X60036976Y-137861163D01*
X60110502Y-137897517D01*
X60181222Y-137891888D01*
X60160270Y-137747923D01*
X60165739Y-137602940D01*
X60220260Y-137307950D01*
X60317876Y-136892686D01*
X60451257Y-136382195D01*
X60613071Y-135801526D01*
X60795987Y-135175727D01*
X60992673Y-134529846D01*
X61195799Y-133888932D01*
X61398032Y-133278032D01*
X61592041Y-132722195D01*
X61770495Y-132246469D01*
X61937935Y-131809624D01*
X62090122Y-131380832D01*
X62184828Y-131071792D01*
X62220400Y-130891687D01*
X62195185Y-130849704D01*
X62107530Y-130955027D01*
X61955783Y-131216842D01*
X61849577Y-131403212D01*
X61772447Y-131511183D01*
X61759306Y-131484210D01*
X61800337Y-131313298D01*
X61860693Y-131060877D01*
X61879172Y-130889733D01*
X61841005Y-130815789D01*
X61822705Y-130826616D01*
X61717481Y-130951701D01*
X61541039Y-131198871D01*
X61307777Y-131545559D01*
X61032093Y-131969195D01*
X60728386Y-132447212D01*
X60411055Y-132957042D01*
X60094497Y-133476115D01*
X59793112Y-133981865D01*
X59521297Y-134451722D01*
X59266371Y-134897169D01*
X59000587Y-135355182D01*
X58759094Y-135765416D01*
X58573351Y-136074035D01*
X58453161Y-136276800D01*
X58320791Y-136541841D01*
X58226957Y-136814957D01*
X58153631Y-137152646D01*
X58082785Y-137611403D01*
X58032331Y-137935167D01*
X57968568Y-138263562D01*
X57909804Y-138486996D01*
X57864250Y-138569473D01*
X57856503Y-138568167D01*
X57818798Y-138475014D01*
X57830654Y-138279824D01*
X57836900Y-138242999D01*
X57877266Y-137986965D01*
X57930069Y-137633556D01*
X57985566Y-137247689D01*
X58016687Y-137037803D01*
X58054230Y-136841897D01*
X58106890Y-136653327D01*
X58185644Y-136449233D01*
X58301471Y-136206753D01*
X58465348Y-135903027D01*
X58688254Y-135515194D01*
X58981165Y-135020391D01*
X59355060Y-134395759D01*
X59398868Y-134322711D01*
X59922087Y-133451727D01*
X60401989Y-132655558D01*
X60831747Y-131945399D01*
X61204530Y-131332450D01*
X61513510Y-130827905D01*
X61751856Y-130442964D01*
X61912741Y-130188823D01*
X61989333Y-130076678D01*
X62015041Y-130070001D01*
X62168764Y-130110458D01*
X62421578Y-130217373D01*
X62734458Y-130375117D01*
X62864089Y-130443169D01*
X63170297Y-130588542D01*
X63408014Y-130679957D01*
X63534236Y-130699948D01*
X63566836Y-130675939D01*
X63684956Y-130519627D01*
X63842205Y-130257539D01*
X64017696Y-129931164D01*
X64190545Y-129581989D01*
X64339867Y-129251500D01*
X64444776Y-128981185D01*
X64484386Y-128812531D01*
X64468797Y-128699794D01*
X64429354Y-128535207D01*
X70115124Y-128535207D01*
X70144894Y-128542451D01*
X70332311Y-128575409D01*
X70630560Y-128619969D01*
X70990351Y-128668618D01*
X71415005Y-128719616D01*
X71829764Y-128755384D01*
X72114519Y-128756633D01*
X72294651Y-128723110D01*
X72395540Y-128654561D01*
X72418923Y-128603616D01*
X72467005Y-128394874D01*
X72513574Y-128078023D01*
X72551176Y-127698842D01*
X72557877Y-127617944D01*
X72614877Y-127097826D01*
X72694117Y-126540756D01*
X72780599Y-126054250D01*
X72817931Y-125868080D01*
X72877803Y-125547688D01*
X72914062Y-125321408D01*
X72919933Y-125229347D01*
X72910069Y-125234895D01*
X72832327Y-125342859D01*
X72697540Y-125559804D01*
X72527404Y-125851348D01*
X72106658Y-126508107D01*
X71608212Y-127142229D01*
X71080168Y-127692300D01*
X70560738Y-128114352D01*
X70489851Y-128163752D01*
X70259986Y-128340933D01*
X70126037Y-128473289D01*
X70115124Y-128535207D01*
X64429354Y-128535207D01*
X64405254Y-128434646D01*
X64304080Y-128080192D01*
X64177532Y-127681603D01*
X64080335Y-127376313D01*
X63782790Y-126238466D01*
X63530268Y-124928998D01*
X63322870Y-123448584D01*
X63160695Y-121797902D01*
X63043842Y-119977628D01*
X62991288Y-118217279D01*
X62997583Y-117836096D01*
X63170850Y-117836096D01*
X63176331Y-118825849D01*
X63196524Y-119829370D01*
X63231125Y-120816305D01*
X63279831Y-121756298D01*
X63342338Y-122618993D01*
X63418343Y-123374035D01*
X63456985Y-123641177D01*
X63557560Y-124176881D01*
X63693698Y-124793557D01*
X63852538Y-125439828D01*
X64021218Y-126064318D01*
X64186877Y-126615649D01*
X64336654Y-127042445D01*
X64363835Y-127109264D01*
X64559272Y-127522464D01*
X64788872Y-127923668D01*
X65020773Y-128261099D01*
X65223113Y-128482979D01*
X65312691Y-128530803D01*
X65501020Y-128534002D01*
X65506503Y-128531845D01*
X65565831Y-128476877D01*
X65506602Y-128384839D01*
X65311790Y-128228217D01*
X65233379Y-128166463D01*
X64989750Y-127932268D01*
X64813558Y-127704173D01*
X64763738Y-127613681D01*
X64710966Y-127461671D01*
X64770016Y-127444195D01*
X64935263Y-127567569D01*
X65039789Y-127640945D01*
X65253039Y-127752566D01*
X65505221Y-127862107D01*
X65746747Y-127950156D01*
X65928027Y-127997304D01*
X65999474Y-127984139D01*
X65999177Y-127980595D01*
X65923428Y-127887781D01*
X65754386Y-127764066D01*
X65509299Y-127612111D01*
X65732106Y-127609299D01*
X65815788Y-127615070D01*
X66077848Y-127667115D01*
X66372619Y-127756194D01*
X66391420Y-127762856D01*
X66619467Y-127825601D01*
X66803693Y-127827907D01*
X66948620Y-127755069D01*
X67058774Y-127592380D01*
X67138679Y-127325136D01*
X67192858Y-126938632D01*
X67225838Y-126418161D01*
X67242140Y-125749019D01*
X67246291Y-124916499D01*
X67247437Y-124572044D01*
X67256794Y-123866463D01*
X67274492Y-123144496D01*
X67299244Y-122430471D01*
X67329760Y-121748715D01*
X67364755Y-121123555D01*
X67402939Y-120579320D01*
X67443024Y-120140338D01*
X67483724Y-119830934D01*
X67523749Y-119675438D01*
X67539934Y-119657080D01*
X67572673Y-119724535D01*
X67590829Y-119947788D01*
X67594437Y-120310988D01*
X67583534Y-120798284D01*
X67558154Y-121393823D01*
X67518333Y-122081754D01*
X67510824Y-122201291D01*
X67487456Y-122630489D01*
X67473789Y-122983215D01*
X67470871Y-123225698D01*
X67479752Y-123324169D01*
X67481055Y-123325436D01*
X67572118Y-123313189D01*
X67688644Y-123179514D01*
X67799575Y-122970927D01*
X67873850Y-122733946D01*
X67939678Y-122393684D01*
X67941043Y-122750175D01*
X67940868Y-122807185D01*
X67904058Y-123221201D01*
X67801978Y-123476233D01*
X67631940Y-123579498D01*
X67595200Y-123586450D01*
X67540480Y-123614686D01*
X67498996Y-123682614D01*
X67467595Y-123813311D01*
X67443122Y-124029853D01*
X67422426Y-124355319D01*
X67402354Y-124812786D01*
X67379752Y-125425330D01*
X67378557Y-125459186D01*
X67361967Y-126056069D01*
X67353647Y-126631668D01*
X67353619Y-127146791D01*
X67361902Y-127562246D01*
X67378517Y-127838843D01*
X67442225Y-128433742D01*
X68516909Y-128370882D01*
X68875675Y-128344279D01*
X69327701Y-128294220D01*
X69696398Y-128234191D01*
X69934325Y-128170887D01*
X70053538Y-128111489D01*
X70375626Y-127873176D01*
X70749071Y-127510672D01*
X71151366Y-127047036D01*
X71560006Y-126505327D01*
X71666120Y-126354425D01*
X71923875Y-125979959D01*
X72076116Y-125740174D01*
X72123947Y-125629104D01*
X72068473Y-125640783D01*
X71910799Y-125769248D01*
X71652030Y-126008532D01*
X71419271Y-126226794D01*
X71116014Y-126501976D01*
X70903079Y-126682602D01*
X70789968Y-126761386D01*
X70786184Y-126731041D01*
X70901228Y-126584280D01*
X71124035Y-126324130D01*
X70882083Y-126475573D01*
X70677504Y-126592380D01*
X70581572Y-126617280D01*
X70626709Y-126536108D01*
X70815472Y-126353545D01*
X70916790Y-126259904D01*
X71010995Y-126155408D01*
X70990351Y-126140519D01*
X70963514Y-126147750D01*
X70990024Y-126093068D01*
X71124035Y-125960161D01*
X71391404Y-125719358D01*
X71079474Y-125888623D01*
X70984002Y-125939481D01*
X70715538Y-126071047D01*
X70526866Y-126146071D01*
X70455614Y-126148859D01*
X70522281Y-126089416D01*
X70698456Y-125958364D01*
X70945790Y-125784311D01*
X71191219Y-125609833D01*
X71368360Y-125473361D01*
X71435965Y-125406466D01*
X71366893Y-125424291D01*
X71182619Y-125510950D01*
X70923509Y-125647728D01*
X70699752Y-125768279D01*
X70558105Y-125834580D01*
X70543628Y-125817595D01*
X70641788Y-125721111D01*
X70879192Y-125515954D01*
X71131963Y-125309938D01*
X71255588Y-125211283D01*
X71293150Y-125169501D01*
X71202024Y-125208634D01*
X70968071Y-125330453D01*
X70797458Y-125417387D01*
X70615413Y-125500048D01*
X70544737Y-125516909D01*
X70546045Y-125513392D01*
X70630400Y-125436739D01*
X70820368Y-125291139D01*
X71079474Y-125104709D01*
X71117225Y-125078145D01*
X71369037Y-124896225D01*
X71546845Y-124759615D01*
X71614211Y-124696153D01*
X71600395Y-124693829D01*
X71478044Y-124738999D01*
X71270326Y-124838130D01*
X71218612Y-124864013D01*
X71110693Y-124908361D01*
X71089725Y-124887013D01*
X71165765Y-124785172D01*
X71348870Y-124588038D01*
X71649098Y-124280816D01*
X71858511Y-124060327D01*
X72180447Y-123694781D01*
X72494218Y-123311509D01*
X72777364Y-122940331D01*
X73007421Y-122611063D01*
X73161928Y-122353525D01*
X73218421Y-122197535D01*
X73238246Y-122131461D01*
X73348964Y-121995238D01*
X73417173Y-121952828D01*
X73550181Y-121959945D01*
X73751316Y-122080442D01*
X73794257Y-122109954D01*
X73986006Y-122216627D01*
X74107036Y-122244713D01*
X74109047Y-122243641D01*
X74065868Y-122176545D01*
X73904420Y-122027446D01*
X73649099Y-121817446D01*
X73324298Y-121567645D01*
X73030455Y-121342776D01*
X72609370Y-121005995D01*
X72219259Y-120679113D01*
X71917109Y-120409048D01*
X71781970Y-120278594D01*
X71484445Y-119976234D01*
X71183026Y-119653405D01*
X70903573Y-119339535D01*
X70671947Y-119064051D01*
X70514008Y-118856380D01*
X70455614Y-118745951D01*
X70464082Y-118744580D01*
X70565679Y-118817728D01*
X70764167Y-118987552D01*
X71036737Y-119234101D01*
X71360579Y-119537429D01*
X71384390Y-119560023D01*
X71777859Y-119922275D01*
X72184529Y-120279106D01*
X72557786Y-120590514D01*
X72851015Y-120816494D01*
X72855362Y-120819604D01*
X73203235Y-121082025D01*
X73553485Y-121367734D01*
X73830920Y-121615423D01*
X74017663Y-121790043D01*
X74178373Y-121928044D01*
X74249225Y-121971887D01*
X74254277Y-121959570D01*
X74292249Y-121818291D01*
X74358387Y-121545536D01*
X74445051Y-121173325D01*
X74544605Y-120733678D01*
X74741204Y-119924386D01*
X75081368Y-118765391D01*
X75495440Y-117605120D01*
X75994058Y-116418834D01*
X76587859Y-115181794D01*
X77287481Y-113869259D01*
X78103561Y-112456491D01*
X78479189Y-111833456D01*
X79148229Y-110763127D01*
X79782059Y-109809556D01*
X80404028Y-108942133D01*
X81037481Y-108130248D01*
X81705766Y-107343288D01*
X82432230Y-106550644D01*
X83240220Y-105721705D01*
X83610671Y-105353099D01*
X84114740Y-104857759D01*
X84602449Y-104384964D01*
X85046619Y-103960824D01*
X85420067Y-103611451D01*
X85695614Y-103362955D01*
X85802223Y-103271945D01*
X85910863Y-103190717D01*
X85895407Y-103230673D01*
X85755216Y-103392530D01*
X85489651Y-103677006D01*
X85098072Y-104084820D01*
X84579841Y-104616688D01*
X84360675Y-104840906D01*
X83445385Y-105787874D01*
X82645694Y-106635784D01*
X81947837Y-107401240D01*
X81338048Y-108100846D01*
X80802560Y-108751208D01*
X80327606Y-109368929D01*
X79899422Y-109970614D01*
X79504241Y-110572868D01*
X79128297Y-111192296D01*
X79041262Y-111342018D01*
X78667121Y-112006866D01*
X78273812Y-112736221D01*
X77869213Y-113512998D01*
X77461205Y-114320112D01*
X77057668Y-115140479D01*
X76666481Y-115957012D01*
X76295524Y-116752627D01*
X75952678Y-117510238D01*
X75645823Y-118212761D01*
X75382838Y-118843110D01*
X75171603Y-119384200D01*
X75019998Y-119818946D01*
X74935903Y-120130263D01*
X74927198Y-120301066D01*
X74946054Y-120302824D01*
X75053012Y-120209477D01*
X75236227Y-120004880D01*
X75476571Y-119711011D01*
X75754918Y-119349851D01*
X76459311Y-118474101D01*
X77427011Y-117418008D01*
X78478842Y-116406110D01*
X79570299Y-115480765D01*
X80656878Y-114684331D01*
X80752331Y-114620740D01*
X81138688Y-114370248D01*
X81596173Y-114081967D01*
X82106203Y-113766818D01*
X82650190Y-113435722D01*
X83209550Y-113099600D01*
X83765696Y-112769373D01*
X84300043Y-112455963D01*
X84794005Y-112170291D01*
X85228996Y-111923277D01*
X85586432Y-111725843D01*
X85847725Y-111588910D01*
X85994291Y-111523399D01*
X86007544Y-111540231D01*
X85907774Y-111613032D01*
X85680605Y-111762327D01*
X85351926Y-111971525D01*
X84947341Y-112224331D01*
X84492456Y-112504449D01*
X83422625Y-113166791D01*
X82431606Y-113799849D01*
X81575930Y-114370255D01*
X80843190Y-114886769D01*
X80220980Y-115358153D01*
X79696895Y-115793168D01*
X79258530Y-116200573D01*
X79036164Y-116425913D01*
X78601073Y-116908875D01*
X78316374Y-117300012D01*
X78181475Y-117601113D01*
X78195784Y-117813969D01*
X78358710Y-117940369D01*
X78669660Y-117982105D01*
X78762335Y-117976319D01*
X78957108Y-117934239D01*
X79213162Y-117843053D01*
X79553862Y-117692923D01*
X80002575Y-117474007D01*
X80582665Y-117176466D01*
X80655684Y-117138512D01*
X81123148Y-116897897D01*
X81528211Y-116693370D01*
X81847043Y-116536672D01*
X82055816Y-116439543D01*
X82130702Y-116413723D01*
X82072176Y-116463544D01*
X81887706Y-116586160D01*
X81607295Y-116760559D01*
X81261755Y-116967120D01*
X81000772Y-117122028D01*
X80209763Y-117607836D01*
X79392042Y-118131266D01*
X78593609Y-118661947D01*
X77860461Y-119169505D01*
X77238598Y-119623569D01*
X76903665Y-119889324D01*
X76118942Y-120597924D01*
X75335342Y-121417942D01*
X74592463Y-122309188D01*
X74554879Y-122357217D01*
X74355467Y-122599288D01*
X74201239Y-122765986D01*
X74122956Y-122823609D01*
X74101255Y-122834371D01*
X74019587Y-122969005D01*
X73902949Y-123233787D01*
X73762030Y-123600138D01*
X73607520Y-124039478D01*
X73450105Y-124523228D01*
X73300475Y-125022807D01*
X73298180Y-125030859D01*
X73249709Y-125229347D01*
X73135454Y-125697220D01*
X73020029Y-126368533D01*
X72952809Y-127015595D01*
X72934699Y-127609203D01*
X72966606Y-128120153D01*
X73049434Y-128519242D01*
X73184089Y-128777268D01*
X73262954Y-128855816D01*
X73383063Y-128923651D01*
X73529569Y-128921580D01*
X73731882Y-128840833D01*
X74019415Y-128672636D01*
X74421579Y-128408220D01*
X74553143Y-128320108D01*
X75094630Y-127966668D01*
X75596263Y-127658626D01*
X76099037Y-127373472D01*
X76643947Y-127088700D01*
X77271985Y-126781803D01*
X78024147Y-126430273D01*
X78139059Y-126377341D01*
X78692373Y-126122458D01*
X79219394Y-125879675D01*
X79686220Y-125664610D01*
X80058950Y-125492880D01*
X80303685Y-125380103D01*
X80798614Y-125151926D01*
X81870598Y-124656880D01*
X82798181Y-124226414D01*
X83593822Y-123853765D01*
X84269981Y-123532172D01*
X84839117Y-123254872D01*
X85313688Y-123015104D01*
X85706155Y-122806105D01*
X86028976Y-122621114D01*
X86294611Y-122453368D01*
X86515519Y-122296105D01*
X86704160Y-122142563D01*
X86872992Y-121985979D01*
X87034474Y-121819593D01*
X87201067Y-121636642D01*
X87683427Y-121105862D01*
X88206079Y-120555844D01*
X88650011Y-120123116D01*
X89030787Y-119793466D01*
X89363972Y-119552681D01*
X89665129Y-119386549D01*
X89739354Y-119352785D01*
X89938399Y-119264992D01*
X90197867Y-119154019D01*
X90532754Y-119013681D01*
X90958055Y-118837794D01*
X91488764Y-118620174D01*
X92139876Y-118354636D01*
X92926386Y-118034996D01*
X93863289Y-117655069D01*
X93919726Y-117682933D01*
X94054446Y-117834124D01*
X94235939Y-118087942D01*
X94441173Y-118414133D01*
X94594999Y-118666266D01*
X94774448Y-118941614D01*
X94907317Y-119123047D01*
X94972555Y-119180215D01*
X95005648Y-119195836D01*
X95128864Y-119320536D01*
X95315105Y-119543059D01*
X95538893Y-119833991D01*
X95677935Y-120018765D01*
X96243929Y-120711182D01*
X96794119Y-121278971D01*
X97362317Y-121757804D01*
X97594362Y-121927732D01*
X97921330Y-122155209D01*
X98273197Y-122390788D01*
X98545849Y-122567176D01*
X98615772Y-122612412D01*
X98914866Y-122798024D01*
X99136290Y-122925566D01*
X99245856Y-122972982D01*
X99365226Y-122904927D01*
X99546330Y-122728324D01*
X99755160Y-122485226D01*
X99957829Y-122217689D01*
X100120449Y-121967768D01*
X100209135Y-121777517D01*
X100239453Y-121650872D01*
X100256562Y-121395219D01*
X100188237Y-121160264D01*
X100017395Y-120918297D01*
X99726952Y-120641604D01*
X99299824Y-120302474D01*
X99064882Y-120117587D01*
X98737472Y-119842832D01*
X98491986Y-119625866D01*
X100133509Y-119625866D01*
X100155790Y-119668402D01*
X100375045Y-119594537D01*
X100829292Y-119394656D01*
X101116935Y-119181989D01*
X101144669Y-119151502D01*
X101239836Y-119017060D01*
X101229431Y-118962456D01*
X101160595Y-118984137D01*
X101023876Y-119097178D01*
X100976295Y-119142342D01*
X100780250Y-119272853D01*
X100522788Y-119404096D01*
X100395279Y-119463247D01*
X100207402Y-119564208D01*
X100133509Y-119625866D01*
X98491986Y-119625866D01*
X98399106Y-119543776D01*
X98322168Y-119472768D01*
X99474267Y-119472768D01*
X99577392Y-119474277D01*
X99828743Y-119408960D01*
X100222632Y-119273674D01*
X100718921Y-119038398D01*
X101099308Y-118736455D01*
X101179928Y-118645547D01*
X101319842Y-118453366D01*
X101333227Y-118367985D01*
X101226536Y-118401280D01*
X101006221Y-118565127D01*
X100960347Y-118601587D01*
X100706775Y-118769889D01*
X100366467Y-118964560D01*
X99999825Y-119150472D01*
X99735447Y-119281855D01*
X99525056Y-119407579D01*
X99474267Y-119472768D01*
X98322168Y-119472768D01*
X98070584Y-119240576D01*
X97960380Y-119134328D01*
X99198315Y-119134328D01*
X99367626Y-119086981D01*
X99647546Y-118964473D01*
X99986102Y-118791965D01*
X100339137Y-118594260D01*
X100662492Y-118396159D01*
X100912008Y-118222463D01*
X101043527Y-118097974D01*
X101052257Y-118083996D01*
X101143797Y-117912440D01*
X101163139Y-117823431D01*
X101153570Y-117823857D01*
X101034760Y-117884068D01*
X100804361Y-118022516D01*
X100490181Y-118222079D01*
X100120033Y-118465635D01*
X99998898Y-118546964D01*
X99659291Y-118779640D01*
X99396655Y-118966702D01*
X99234996Y-119090736D01*
X99198315Y-119134328D01*
X97960380Y-119134328D01*
X97772705Y-118953391D01*
X97526271Y-118702376D01*
X97352081Y-118507691D01*
X97270934Y-118389492D01*
X97303632Y-118367937D01*
X97433740Y-118429861D01*
X97671761Y-118564559D01*
X97951502Y-118736764D01*
X98199909Y-118889316D01*
X98411768Y-119006665D01*
X98522398Y-119051579D01*
X98543443Y-119044524D01*
X98689361Y-118968951D01*
X98942600Y-118825811D01*
X99271492Y-118634110D01*
X99644366Y-118412855D01*
X100029556Y-118181053D01*
X100395392Y-117957711D01*
X100710205Y-117761835D01*
X100942328Y-117612433D01*
X101060091Y-117528511D01*
X101064954Y-117505465D01*
X101016421Y-117353221D01*
X100891788Y-117086626D01*
X100703970Y-116732035D01*
X100465880Y-116315804D01*
X100112036Y-115676707D01*
X99756083Y-114903854D01*
X99477226Y-114109641D01*
X99264351Y-113255600D01*
X99106346Y-112303263D01*
X99043516Y-111704316D01*
X101922630Y-111704316D01*
X102049703Y-112249026D01*
X102119465Y-112520753D01*
X102261618Y-112999048D01*
X102442584Y-113550466D01*
X102652816Y-114150794D01*
X102882765Y-114775822D01*
X103122882Y-115401337D01*
X103363618Y-116003128D01*
X103595424Y-116556982D01*
X103808752Y-117038687D01*
X103994053Y-117424032D01*
X104039487Y-117505465D01*
X104141778Y-117688805D01*
X104242379Y-117808794D01*
X104275639Y-117823431D01*
X104306892Y-117837185D01*
X104429501Y-117849459D01*
X104582085Y-117799642D01*
X104790487Y-117673687D01*
X105080552Y-117457549D01*
X105478124Y-117137182D01*
X105709584Y-116948877D01*
X105994405Y-116724132D01*
X106271005Y-116517572D01*
X106566346Y-116311077D01*
X106907387Y-116086526D01*
X107321087Y-115825798D01*
X107834407Y-115510774D01*
X108474306Y-115123331D01*
X108519230Y-115096239D01*
X109190797Y-114695299D01*
X109732828Y-114381540D01*
X110164153Y-114145642D01*
X110503601Y-113978282D01*
X110770002Y-113870137D01*
X110982187Y-113811885D01*
X111158985Y-113794204D01*
X111170291Y-113794271D01*
X111456944Y-113869681D01*
X111672320Y-114055791D01*
X111793675Y-114306477D01*
X111798266Y-114575614D01*
X111663349Y-114817077D01*
X111621915Y-114849971D01*
X111430233Y-114969876D01*
X111125311Y-115141858D01*
X110739269Y-115348105D01*
X110304226Y-115570805D01*
X109841332Y-115812053D01*
X108945198Y-116320735D01*
X108006546Y-116899998D01*
X107080107Y-117515503D01*
X106220611Y-118132912D01*
X105968102Y-118332261D01*
X105930553Y-118367985D01*
X105551403Y-118728702D01*
X105347362Y-119017060D01*
X105298612Y-119085956D01*
X105213509Y-119399272D01*
X105216331Y-119446493D01*
X105264437Y-119638333D01*
X105376831Y-119901814D01*
X105559666Y-120247026D01*
X105819096Y-120684061D01*
X106161275Y-121223013D01*
X106592356Y-121873972D01*
X107118494Y-122647030D01*
X107745841Y-123552281D01*
X107883572Y-123749687D01*
X108171839Y-124160308D01*
X108384332Y-124452803D01*
X108540133Y-124647160D01*
X108658325Y-124763365D01*
X108757992Y-124821406D01*
X108858214Y-124841271D01*
X108978075Y-124842947D01*
X109042011Y-124839835D01*
X109259630Y-124793367D01*
X109525773Y-124683199D01*
X109857926Y-124499014D01*
X110273572Y-124230498D01*
X110790198Y-123867335D01*
X111425290Y-123399209D01*
X111752418Y-123156807D01*
X112483027Y-122638615D01*
X113099620Y-122241001D01*
X113611506Y-121960802D01*
X114027998Y-121794858D01*
X114358405Y-121740006D01*
X114612038Y-121793085D01*
X114798210Y-121950934D01*
X114926229Y-122210390D01*
X114981552Y-122470215D01*
X114934439Y-122693387D01*
X114926075Y-122708434D01*
X114720914Y-122957948D01*
X114374203Y-123254404D01*
X113908566Y-123580348D01*
X113346628Y-123918328D01*
X113045234Y-124091539D01*
X112490256Y-124437202D01*
X111946697Y-124817032D01*
X111370081Y-125262958D01*
X110715937Y-125806907D01*
X109935207Y-126472765D01*
X110267405Y-126884102D01*
X110762274Y-127488152D01*
X111425643Y-128263928D01*
X112000158Y-128890250D01*
X112487703Y-129369044D01*
X112890162Y-129702236D01*
X113209419Y-129891750D01*
X113352437Y-129948683D01*
X113524920Y-129999012D01*
X113703871Y-130019638D01*
X113906044Y-130004537D01*
X113906376Y-130004459D01*
X119434298Y-130004459D01*
X119450323Y-130062023D01*
X119598678Y-130181716D01*
X119869004Y-130334817D01*
X120234484Y-130506594D01*
X120668298Y-130682315D01*
X120717528Y-130700667D01*
X121033564Y-130804262D01*
X121325892Y-130862856D01*
X121661557Y-130885768D01*
X122107604Y-130882312D01*
X122263336Y-130877477D01*
X122676571Y-130850820D01*
X122942605Y-130803407D01*
X123084968Y-130729239D01*
X123127193Y-130622313D01*
X123111398Y-130602314D01*
X122966973Y-130530666D01*
X122701147Y-130432258D01*
X122349993Y-130318020D01*
X121949586Y-130198880D01*
X121535998Y-130085769D01*
X121145302Y-129989615D01*
X120813574Y-129921348D01*
X120558661Y-129887175D01*
X120178638Y-129868046D01*
X119833016Y-129883118D01*
X119569127Y-129929540D01*
X119434298Y-130004459D01*
X113906376Y-130004459D01*
X114148193Y-129947684D01*
X114447071Y-129843054D01*
X114819431Y-129684621D01*
X115282028Y-129466362D01*
X115851615Y-129182250D01*
X116544945Y-128826262D01*
X117378772Y-128392371D01*
X118626492Y-127741052D01*
X118640227Y-127528948D01*
X119121619Y-127528948D01*
X119122158Y-128018375D01*
X119153804Y-128356678D01*
X119161123Y-128392635D01*
X119293863Y-128725150D01*
X119506339Y-128950430D01*
X119766718Y-129033333D01*
X119806319Y-129031317D01*
X119905005Y-128992318D01*
X119992435Y-128878701D01*
X120088223Y-128658081D01*
X120211980Y-128298070D01*
X120245652Y-128197725D01*
X120382923Y-127826649D01*
X120519709Y-127505783D01*
X120630815Y-127295438D01*
X120808826Y-127028070D01*
X120809413Y-127262245D01*
X120816810Y-127384098D01*
X120870505Y-127533936D01*
X120998236Y-127629525D01*
X121225747Y-127679188D01*
X121578780Y-127691248D01*
X122083080Y-127674029D01*
X122340845Y-127663602D01*
X122751604Y-127658259D01*
X123067490Y-127668668D01*
X123271834Y-127692343D01*
X123347968Y-127726798D01*
X123279224Y-127769546D01*
X123048933Y-127818101D01*
X122665262Y-127913079D01*
X122141774Y-128166205D01*
X121611985Y-128574570D01*
X121211053Y-128936900D01*
X121701228Y-128940570D01*
X122025250Y-128958080D01*
X122448092Y-129003895D01*
X122859825Y-129067527D01*
X123051968Y-129102830D01*
X123525927Y-129187242D01*
X123859914Y-129239455D01*
X124080172Y-129261118D01*
X124212942Y-129253879D01*
X124284467Y-129219385D01*
X124320987Y-129159284D01*
X124347455Y-129076964D01*
X124369408Y-128893331D01*
X124345343Y-128654212D01*
X124270019Y-128322366D01*
X124175948Y-127992814D01*
X124668454Y-127992814D01*
X124730281Y-128545326D01*
X124947401Y-129099624D01*
X125074959Y-129326202D01*
X125230282Y-129567490D01*
X125379075Y-129771843D01*
X125498997Y-129910931D01*
X125567705Y-129956426D01*
X125562857Y-129880000D01*
X125503285Y-129701754D01*
X125708437Y-129880000D01*
X125913590Y-130058245D01*
X125714793Y-129665859D01*
X125713711Y-129663722D01*
X125602255Y-129426362D01*
X125494265Y-129169053D01*
X125402924Y-128928619D01*
X125341421Y-128741889D01*
X125322940Y-128645687D01*
X125360667Y-128676842D01*
X125362688Y-128679936D01*
X125453751Y-128825619D01*
X125603496Y-129070922D01*
X125780563Y-129364489D01*
X125797384Y-129392375D01*
X126169085Y-129943674D01*
X126576522Y-130442948D01*
X126985825Y-130852331D01*
X127363127Y-131133954D01*
X127466064Y-131193867D01*
X127653966Y-131288681D01*
X127815058Y-131321216D01*
X128015902Y-131297757D01*
X128323060Y-131224589D01*
X128627558Y-131163756D01*
X129089205Y-131105621D01*
X129520060Y-131083158D01*
X130079345Y-131122895D01*
X130558585Y-131256961D01*
X130964052Y-131430765D01*
X131139866Y-131207253D01*
X131241855Y-131066171D01*
X131459057Y-130621305D01*
X131567902Y-130093653D01*
X131577162Y-129447917D01*
X131572630Y-129366428D01*
X131538271Y-128985746D01*
X131473884Y-128672515D01*
X131359636Y-128352875D01*
X131175691Y-127952965D01*
X130913161Y-127456842D01*
X130549179Y-126922519D01*
X130266228Y-126622975D01*
X130814913Y-126622975D01*
X130913559Y-126827840D01*
X131107674Y-127137619D01*
X131301756Y-127453971D01*
X131631675Y-128168397D01*
X131850328Y-128918671D01*
X131921683Y-129447917D01*
X131951267Y-129667339D01*
X131928047Y-130376949D01*
X131774220Y-131010048D01*
X131697808Y-131228649D01*
X131645602Y-131452321D01*
X131668469Y-131539730D01*
X131766614Y-131478269D01*
X131775571Y-131467813D01*
X131855367Y-131313853D01*
X131935337Y-131083158D01*
X132023398Y-130771228D01*
X132031436Y-131221298D01*
X132040329Y-131378178D01*
X132082739Y-131631704D01*
X132146421Y-131778316D01*
X132205297Y-131830382D01*
X132306842Y-131885263D01*
X132449031Y-131810281D01*
X132538907Y-131584295D01*
X132567978Y-131225271D01*
X132534851Y-130751316D01*
X132438129Y-130180534D01*
X132401710Y-130022763D01*
X132277150Y-129586292D01*
X132111491Y-129097622D01*
X131916954Y-128584404D01*
X131705763Y-128074285D01*
X131490141Y-127594914D01*
X131282311Y-127173941D01*
X131094495Y-126839015D01*
X130938916Y-126617783D01*
X130827798Y-126537895D01*
X130819226Y-126539079D01*
X130814913Y-126622975D01*
X130266228Y-126622975D01*
X130119544Y-126467689D01*
X129577914Y-126036776D01*
X129120950Y-125754109D01*
X128454966Y-125455784D01*
X127749857Y-125246399D01*
X127047347Y-125134792D01*
X126389157Y-125129798D01*
X125817011Y-125240255D01*
X125801282Y-125245516D01*
X125541354Y-125344768D01*
X125367840Y-125431955D01*
X125299509Y-125491233D01*
X125355133Y-125506761D01*
X125553482Y-125462693D01*
X125618942Y-125444320D01*
X125875793Y-125387827D01*
X125971875Y-125406423D01*
X125909836Y-125504363D01*
X125692326Y-125685906D01*
X125489988Y-125862911D01*
X125197519Y-126237721D01*
X124960797Y-126727885D01*
X124762771Y-127364188D01*
X124756341Y-127389643D01*
X124668454Y-127992814D01*
X124175948Y-127992814D01*
X124138193Y-127860552D01*
X123901473Y-127071778D01*
X124141947Y-126458851D01*
X124197851Y-126320951D01*
X124449108Y-125818740D01*
X124730532Y-125461602D01*
X125068389Y-125222542D01*
X125488948Y-125074568D01*
X125489205Y-125074508D01*
X125856248Y-125004126D01*
X126304389Y-124941277D01*
X126736667Y-124899559D01*
X126835152Y-124892855D01*
X127152234Y-124871014D01*
X127379098Y-124854987D01*
X127471930Y-124847855D01*
X127480456Y-124810178D01*
X127489991Y-124638908D01*
X127493340Y-124376666D01*
X127493143Y-124353933D01*
X127403609Y-123799852D01*
X127161180Y-123223763D01*
X126780557Y-122661052D01*
X126559260Y-122374982D01*
X126199850Y-121866181D01*
X125818036Y-121285056D01*
X125446445Y-120683309D01*
X125117703Y-120112641D01*
X124864437Y-119624753D01*
X124432429Y-118627697D01*
X123908287Y-117050133D01*
X123534898Y-115379419D01*
X123312773Y-113617529D01*
X123223237Y-112511928D01*
X122136808Y-110902280D01*
X122028058Y-110741582D01*
X121700003Y-110261881D01*
X121398129Y-109827633D01*
X121140607Y-109464552D01*
X120945608Y-109198355D01*
X120831303Y-109054757D01*
X120801739Y-109024895D01*
X120615190Y-108874817D01*
X120359583Y-108702947D01*
X120077959Y-108534054D01*
X119813358Y-108392904D01*
X119608821Y-108304266D01*
X119507386Y-108292906D01*
X119506720Y-108294753D01*
X119549771Y-108391917D01*
X119675413Y-108618016D01*
X119871956Y-108953369D01*
X120127705Y-109378295D01*
X120430968Y-109873114D01*
X120770053Y-110418146D01*
X120910685Y-110642662D01*
X121339498Y-111329067D01*
X121684087Y-111886487D01*
X121952862Y-112331834D01*
X122154234Y-112682019D01*
X122296613Y-112953956D01*
X122388412Y-113164556D01*
X122438039Y-113330733D01*
X122453907Y-113469397D01*
X122446988Y-113562843D01*
X122444425Y-113597462D01*
X122418005Y-113731840D01*
X122409435Y-113766408D01*
X122337200Y-114001616D01*
X122213712Y-114363537D01*
X122050187Y-114820673D01*
X121857841Y-115341529D01*
X121647889Y-115894606D01*
X121581432Y-116067985D01*
X121063140Y-117481169D01*
X120628049Y-118796290D01*
X120263786Y-120059435D01*
X119957976Y-121316692D01*
X119703645Y-122587174D01*
X119698245Y-122614149D01*
X119472219Y-123997895D01*
X119395378Y-124541279D01*
X119289067Y-125394561D01*
X119206832Y-126192976D01*
X119150430Y-126912460D01*
X119121619Y-127528948D01*
X118640227Y-127528948D01*
X118730373Y-126136842D01*
X118739998Y-125990736D01*
X118810904Y-125059939D01*
X118888211Y-124295063D01*
X118973384Y-123685369D01*
X119067886Y-123220118D01*
X119173180Y-122888571D01*
X119173840Y-122886977D01*
X119258223Y-122587174D01*
X119212759Y-122408387D01*
X119037073Y-122349123D01*
X118976222Y-122344198D01*
X118747942Y-122307570D01*
X118419697Y-122243001D01*
X118040541Y-122159811D01*
X117813005Y-122107289D01*
X117521700Y-122032668D01*
X117280986Y-121947697D01*
X117078844Y-121834784D01*
X116903253Y-121676336D01*
X116742192Y-121454760D01*
X116583640Y-121152463D01*
X116415579Y-120751852D01*
X116225986Y-120235335D01*
X116002841Y-119585319D01*
X115734124Y-118784210D01*
X115658105Y-118556397D01*
X115436510Y-117883288D01*
X115231371Y-117247256D01*
X115050908Y-116674625D01*
X114903343Y-116191719D01*
X114796898Y-115824861D01*
X114739792Y-115600375D01*
X114719459Y-115497351D01*
X114690020Y-115295371D01*
X114687269Y-115126958D01*
X114927895Y-115126958D01*
X114933668Y-115217356D01*
X114988106Y-115532818D01*
X115093257Y-115974996D01*
X115240910Y-116515846D01*
X115422857Y-117127321D01*
X115630888Y-117781375D01*
X115856793Y-118449962D01*
X116092363Y-119105037D01*
X116208039Y-119413279D01*
X116453753Y-120042983D01*
X116659896Y-120528048D01*
X116835110Y-120886785D01*
X116988034Y-121137507D01*
X117127308Y-121298526D01*
X117361676Y-121458151D01*
X117742123Y-121644793D01*
X118218770Y-121832190D01*
X118751170Y-122002799D01*
X118755584Y-122004061D01*
X119057230Y-122088140D01*
X119286365Y-122148044D01*
X119393695Y-122170877D01*
X119402214Y-122163029D01*
X119456991Y-122035918D01*
X119545077Y-121777319D01*
X119656289Y-121418319D01*
X119780447Y-120990000D01*
X119859126Y-120711122D01*
X120207315Y-119501512D01*
X120540180Y-118384989D01*
X120852646Y-117377645D01*
X121139632Y-116495567D01*
X121396062Y-115754845D01*
X121616858Y-115171567D01*
X121712544Y-114930581D01*
X121909323Y-114385617D01*
X122025333Y-113943126D01*
X122061897Y-113562843D01*
X122020338Y-113204503D01*
X121901978Y-112827843D01*
X121708140Y-112392596D01*
X121615508Y-112208350D01*
X121370281Y-111759867D01*
X121069528Y-111247065D01*
X120731257Y-110697322D01*
X120373473Y-110138018D01*
X120014181Y-109596530D01*
X119671389Y-109100237D01*
X119363102Y-108676518D01*
X119107327Y-108352751D01*
X118922068Y-108156316D01*
X118689538Y-108046725D01*
X118336869Y-108004596D01*
X117924516Y-108031690D01*
X117502879Y-108120774D01*
X117122362Y-108264617D01*
X116833365Y-108455989D01*
X116663613Y-108673298D01*
X116642882Y-108906175D01*
X116789594Y-109170706D01*
X116859002Y-109265781D01*
X117044397Y-109607210D01*
X117152043Y-109949749D01*
X117159233Y-110228421D01*
X117159160Y-110228743D01*
X117106435Y-110366296D01*
X116984009Y-110639380D01*
X116802942Y-111024779D01*
X116574297Y-111499275D01*
X116309134Y-112039651D01*
X116018515Y-112622691D01*
X115969115Y-112721158D01*
X115623138Y-113418989D01*
X115355042Y-113977629D01*
X115158148Y-114412412D01*
X115025778Y-114738671D01*
X114951253Y-114971742D01*
X114927895Y-115126958D01*
X114687269Y-115126958D01*
X114686865Y-115102213D01*
X114717805Y-114893930D01*
X114790653Y-114646577D01*
X114913218Y-114336208D01*
X115093311Y-113938878D01*
X115338745Y-113430642D01*
X115657328Y-112787553D01*
X115723925Y-112652989D01*
X115967079Y-112149388D01*
X116199811Y-111650363D01*
X116398483Y-111207256D01*
X116539458Y-110871413D01*
X116575776Y-110781264D01*
X116721689Y-110455528D01*
X116858477Y-110199505D01*
X116960619Y-110062229D01*
X117052156Y-109960335D01*
X116997964Y-109898158D01*
X116958719Y-109868500D01*
X116825987Y-109714409D01*
X116641426Y-109463152D01*
X116432365Y-109150842D01*
X116319500Y-108978279D01*
X116130024Y-108704725D01*
X115984976Y-108516199D01*
X115909052Y-108445965D01*
X115800639Y-108468629D01*
X115570372Y-108531578D01*
X115271493Y-108620683D01*
X114561681Y-108812768D01*
X113855450Y-108943804D01*
X113108959Y-109018079D01*
X112278013Y-109039989D01*
X111318421Y-109013931D01*
X110536668Y-108980517D01*
X109439542Y-108947865D01*
X108491541Y-108940804D01*
X107675799Y-108960655D01*
X106975452Y-109008742D01*
X106373633Y-109086384D01*
X105853479Y-109194905D01*
X105398124Y-109335625D01*
X104990702Y-109509868D01*
X104661416Y-109683878D01*
X104159071Y-109980682D01*
X103630654Y-110321026D01*
X103122355Y-110673733D01*
X102680367Y-111007629D01*
X102350882Y-111291536D01*
X101922630Y-111704316D01*
X99043516Y-111704316D01*
X98992098Y-111214163D01*
X98930351Y-110462010D01*
X96657720Y-109646858D01*
X94385088Y-108831706D01*
X94262086Y-109195853D01*
X94240824Y-109269671D01*
X94184168Y-109623768D01*
X94148436Y-110140229D01*
X94134526Y-110807719D01*
X94134428Y-111163846D01*
X94142139Y-111594117D01*
X94164574Y-111925906D01*
X94207618Y-112207473D01*
X94277157Y-112487078D01*
X94379077Y-112812982D01*
X94555125Y-113297489D01*
X94821813Y-113943754D01*
X95143754Y-114662480D01*
X95500944Y-115411822D01*
X95873378Y-116149934D01*
X96241050Y-116834971D01*
X96583958Y-117425088D01*
X96619606Y-117485143D01*
X96697715Y-117655352D01*
X96671674Y-117696603D01*
X96555020Y-117610503D01*
X96361290Y-117398659D01*
X96174007Y-117153756D01*
X95831791Y-116626040D01*
X95477863Y-115992451D01*
X95134764Y-115294443D01*
X94825036Y-114573472D01*
X94789916Y-114485102D01*
X94632530Y-114089689D01*
X94503144Y-113765582D01*
X94414336Y-113544241D01*
X94378684Y-113457122D01*
X94360910Y-113458004D01*
X94218093Y-113500694D01*
X93964327Y-113589386D01*
X93637995Y-113710929D01*
X92909756Y-113989017D01*
X92965428Y-114314508D01*
X93212306Y-115449581D01*
X93577498Y-116579199D01*
X93660627Y-116806031D01*
X93767597Y-117119528D01*
X93833362Y-117342322D01*
X93846123Y-117436743D01*
X93832385Y-117440907D01*
X93755461Y-117353228D01*
X93638593Y-117127838D01*
X93491023Y-116790058D01*
X93321992Y-116365207D01*
X93140743Y-115878606D01*
X92956518Y-115355575D01*
X92778559Y-114821433D01*
X92616108Y-114301502D01*
X92478407Y-113821100D01*
X92374699Y-113405548D01*
X92312037Y-113171007D01*
X92225544Y-112945625D01*
X92149220Y-112842219D01*
X92044139Y-112848425D01*
X91792379Y-112893850D01*
X91425455Y-112973137D01*
X90972836Y-113079892D01*
X90463995Y-113207724D01*
X89988809Y-113329274D01*
X89531418Y-113443612D01*
X89157973Y-113534118D01*
X88897962Y-113593656D01*
X88780872Y-113615088D01*
X88762382Y-113604915D01*
X88709177Y-113470266D01*
X88651747Y-113174661D01*
X88589122Y-112712384D01*
X88520335Y-112077719D01*
X88479807Y-111667326D01*
X88434929Y-111200393D01*
X88399410Y-110816327D01*
X88376147Y-110546616D01*
X88368038Y-110422747D01*
X88368947Y-110415903D01*
X88467876Y-110315658D01*
X88722296Y-110161141D01*
X89120993Y-109957587D01*
X89652750Y-109710234D01*
X90306349Y-109424318D01*
X91070575Y-109105076D01*
X91934211Y-108757745D01*
X92090531Y-108695782D01*
X92599515Y-108491744D01*
X93045162Y-108309677D01*
X93401796Y-108160290D01*
X93643737Y-108054292D01*
X93745310Y-108002392D01*
X93768329Y-107961654D01*
X93810552Y-107777078D01*
X93834433Y-107513944D01*
X93834881Y-107501721D01*
X93826669Y-107225101D01*
X93758052Y-107043393D01*
X93600294Y-106878622D01*
X93491538Y-106794401D01*
X93317967Y-106711996D01*
X93084135Y-106673209D01*
X92731346Y-106663509D01*
X92112456Y-106663509D01*
X92112456Y-104452122D01*
X92112456Y-102240736D01*
X92239887Y-102138526D01*
X95193871Y-102138526D01*
X95275580Y-102767283D01*
X95474013Y-103330269D01*
X95793126Y-103796656D01*
X95823803Y-103828691D01*
X96217092Y-104119463D01*
X96646384Y-104244698D01*
X97088304Y-104206078D01*
X97519477Y-104005282D01*
X97916528Y-103643992D01*
X98188804Y-103321403D01*
X98127572Y-103633333D01*
X98121254Y-103665690D01*
X98092638Y-103842948D01*
X98115136Y-103870136D01*
X98200273Y-103768712D01*
X98286138Y-103663940D01*
X98313056Y-103682586D01*
X98287778Y-103857835D01*
X98262789Y-104025423D01*
X98285138Y-104055996D01*
X98376901Y-103946958D01*
X98464085Y-103841735D01*
X98490483Y-103860760D01*
X98463349Y-104036081D01*
X98414246Y-104301754D01*
X98605456Y-104131976D01*
X98674735Y-104075274D01*
X98774319Y-104039600D01*
X98784333Y-104148234D01*
X98707058Y-104407356D01*
X98617449Y-104658245D01*
X98805539Y-104436289D01*
X98990988Y-104192981D01*
X99339734Y-103544192D01*
X99566573Y-102813863D01*
X99668421Y-102038770D01*
X99642196Y-101255688D01*
X99484814Y-100501390D01*
X99193191Y-99812653D01*
X99183348Y-99795020D01*
X99038758Y-99524978D01*
X98986601Y-99392646D01*
X99025271Y-99385026D01*
X99153158Y-99489123D01*
X99277494Y-99573090D01*
X99331404Y-99550294D01*
X99350666Y-99506063D01*
X99465088Y-99501455D01*
X99558861Y-99522263D01*
X99590283Y-99454899D01*
X99507587Y-99262462D01*
X99464812Y-99156952D01*
X99497245Y-99118628D01*
X99610269Y-99183722D01*
X99780108Y-99337158D01*
X99982985Y-99563864D01*
X100221503Y-99876123D01*
X100548747Y-100436990D01*
X100743482Y-101018882D01*
X100827763Y-101676969D01*
X100835187Y-101870570D01*
X100804636Y-102620388D01*
X100664574Y-103298900D01*
X100403058Y-103970605D01*
X100245117Y-104264325D01*
X99810167Y-104836778D01*
X99272939Y-105303836D01*
X98664598Y-105641288D01*
X98016306Y-105824922D01*
X97990343Y-105828512D01*
X97627400Y-105833729D01*
X97235470Y-105776453D01*
X96883304Y-105671272D01*
X96639648Y-105532776D01*
X96552673Y-105463494D01*
X96481167Y-105476233D01*
X96426519Y-105640309D01*
X96412772Y-105734576D01*
X96418453Y-106014791D01*
X96466872Y-106325533D01*
X96493232Y-106440688D01*
X96548771Y-106711386D01*
X96557515Y-106858321D01*
X96516810Y-106918987D01*
X96424000Y-106930877D01*
X96377579Y-106935862D01*
X96341832Y-106997431D01*
X96430106Y-107109831D01*
X96617854Y-107248445D01*
X96880527Y-107388658D01*
X97047808Y-107453764D01*
X97594112Y-107547858D01*
X98196770Y-107502321D01*
X98828467Y-107326481D01*
X99461885Y-107029663D01*
X100069707Y-106621193D01*
X100624616Y-106110398D01*
X100901244Y-105783190D01*
X101239431Y-105263856D01*
X101525669Y-104650681D01*
X101782028Y-103901548D01*
X102019485Y-102979586D01*
X102144403Y-102151843D01*
X102153237Y-101403110D01*
X102046290Y-100705340D01*
X101823864Y-100030487D01*
X101715225Y-99783455D01*
X101699178Y-99754700D01*
X102558866Y-99754700D01*
X102569533Y-99860468D01*
X102596339Y-99874411D01*
X102628948Y-99801052D01*
X102622516Y-99753871D01*
X102569533Y-99741637D01*
X102558866Y-99754700D01*
X101699178Y-99754700D01*
X101600709Y-99578245D01*
X102005088Y-99578245D01*
X102049649Y-99622807D01*
X102094211Y-99578245D01*
X102049649Y-99533684D01*
X102005088Y-99578245D01*
X101600709Y-99578245D01*
X101501241Y-99400000D01*
X101915965Y-99400000D01*
X101960527Y-99444561D01*
X102005088Y-99400000D01*
X101960527Y-99355438D01*
X101915965Y-99400000D01*
X101501241Y-99400000D01*
X101354770Y-99137526D01*
X100941724Y-98643954D01*
X100462921Y-98285863D01*
X100299519Y-98189272D01*
X100130140Y-98072065D01*
X100122526Y-98027816D01*
X100277188Y-98056019D01*
X100594640Y-98156171D01*
X100972046Y-98340431D01*
X101400498Y-98672652D01*
X101765474Y-99088070D01*
X101797539Y-99133101D01*
X101870907Y-99230986D01*
X101859764Y-99194006D01*
X101763883Y-99011248D01*
X101703566Y-98913019D01*
X101496951Y-98652101D01*
X101253783Y-98409669D01*
X101108405Y-98276869D01*
X101000369Y-98148160D01*
X101026239Y-98117010D01*
X101174765Y-98186521D01*
X101434699Y-98359794D01*
X101743502Y-98613354D01*
X102042966Y-98914618D01*
X102277666Y-99207313D01*
X102381854Y-99400000D01*
X102406414Y-99445422D01*
X102454349Y-99556362D01*
X102486830Y-99578245D01*
X102509618Y-99593598D01*
X102514493Y-99572086D01*
X102470304Y-99429211D01*
X102360392Y-99197134D01*
X102206976Y-98920125D01*
X102032273Y-98642456D01*
X102016927Y-98619417D01*
X101974595Y-98536179D01*
X102038759Y-98572143D01*
X102218331Y-98731579D01*
X102426767Y-98942822D01*
X102733662Y-99367953D01*
X102922028Y-99801052D01*
X102953177Y-99872671D01*
X103108950Y-100504020D01*
X103134460Y-100639712D01*
X103197122Y-100957240D01*
X103246101Y-101183331D01*
X103272500Y-101275982D01*
X103288221Y-101279463D01*
X103441750Y-101293828D01*
X103737178Y-101314511D01*
X104148370Y-101339868D01*
X104649192Y-101368257D01*
X105213509Y-101398034D01*
X105291309Y-101402006D01*
X105923805Y-101434855D01*
X106549416Y-101468232D01*
X107125357Y-101499797D01*
X107608842Y-101527209D01*
X107957086Y-101548127D01*
X108784523Y-101600601D01*
X109242060Y-102282756D01*
X109393628Y-102506212D01*
X109841470Y-103139872D01*
X110290207Y-103739000D01*
X110720837Y-104280228D01*
X111114360Y-104740186D01*
X111451773Y-105095507D01*
X111714074Y-105322821D01*
X111767097Y-105355878D01*
X112078866Y-105475734D01*
X112563419Y-105586899D01*
X113216574Y-105688691D01*
X114034148Y-105780426D01*
X115011957Y-105861421D01*
X115833527Y-105903181D01*
X116625261Y-105904148D01*
X117431296Y-105860961D01*
X117698737Y-105833326D01*
X120594356Y-105833326D01*
X120720878Y-105847331D01*
X120843477Y-105834908D01*
X120832281Y-105802379D01*
X120791939Y-105790608D01*
X120609474Y-105802379D01*
X120594356Y-105833326D01*
X117698737Y-105833326D01*
X118303638Y-105770821D01*
X118682132Y-105717373D01*
X121223692Y-105717373D01*
X121237093Y-105745273D01*
X121389299Y-105754906D01*
X121416975Y-105754318D01*
X121535350Y-105738888D01*
X121499006Y-105710519D01*
X121408563Y-105696191D01*
X121231638Y-105713822D01*
X121223692Y-105717373D01*
X118682132Y-105717373D01*
X119294295Y-105630928D01*
X119303702Y-105629313D01*
X121903611Y-105629313D01*
X121904992Y-105659736D01*
X122020585Y-105676122D01*
X122108188Y-105661850D01*
X122074430Y-105622277D01*
X122022893Y-105608037D01*
X121903611Y-105629313D01*
X119303702Y-105629313D01*
X119592039Y-105579811D01*
X119603199Y-105577558D01*
X122481678Y-105577558D01*
X122592456Y-105586062D01*
X122599564Y-105585912D01*
X122943684Y-105542039D01*
X123316014Y-105440638D01*
X123647863Y-105304749D01*
X123870536Y-105157411D01*
X123893537Y-105133883D01*
X123948026Y-105066279D01*
X123989290Y-104978403D01*
X124019096Y-104847686D01*
X124039211Y-104651563D01*
X124051400Y-104367464D01*
X124057431Y-103972824D01*
X124059071Y-103445075D01*
X124058086Y-102761650D01*
X124048448Y-101899167D01*
X124012018Y-100846505D01*
X123949651Y-99924509D01*
X123862431Y-99144744D01*
X123751440Y-98518778D01*
X123617761Y-98058176D01*
X123481821Y-97706666D01*
X123524136Y-98018596D01*
X123550078Y-98205875D01*
X123596552Y-98536270D01*
X123655244Y-98950461D01*
X123674792Y-99087626D01*
X123719309Y-99400000D01*
X123720964Y-99411629D01*
X123790999Y-100020091D01*
X123841308Y-100694652D01*
X123871843Y-101400568D01*
X123882552Y-102103096D01*
X123873386Y-102767490D01*
X123844296Y-103359005D01*
X123795232Y-103842898D01*
X123726145Y-104184424D01*
X123511042Y-104696563D01*
X123173387Y-105131664D01*
X122729828Y-105426514D01*
X122687734Y-105445761D01*
X122509173Y-105535743D01*
X122481678Y-105577558D01*
X119603199Y-105577558D01*
X120005670Y-105496305D01*
X120414843Y-105402233D01*
X120785459Y-105306528D01*
X121083418Y-105218124D01*
X121274622Y-105145953D01*
X121324972Y-105098948D01*
X121319705Y-105096365D01*
X121197573Y-105101117D01*
X120954637Y-105137169D01*
X120636706Y-105197934D01*
X120471572Y-105231043D01*
X120152511Y-105283731D01*
X119984427Y-105293533D01*
X119973509Y-105263716D01*
X120125946Y-105197547D01*
X120447929Y-105098292D01*
X120533325Y-105073810D01*
X120835750Y-104975336D01*
X120996162Y-104903514D01*
X121008290Y-104867194D01*
X120865863Y-104875226D01*
X120562610Y-104936457D01*
X120446165Y-104963429D01*
X120126640Y-105029320D01*
X119972237Y-105043286D01*
X119978651Y-105005102D01*
X120141579Y-104914545D01*
X120296706Y-104835402D01*
X120315902Y-104807962D01*
X120186141Y-104828539D01*
X120033194Y-104858289D01*
X119451926Y-104962528D01*
X118841337Y-105060831D01*
X118269289Y-105142686D01*
X117803643Y-105197581D01*
X117159040Y-105260272D01*
X117295080Y-104870136D01*
X117325855Y-104788961D01*
X117480127Y-104473164D01*
X117652935Y-104212631D01*
X117710399Y-104146581D01*
X117806314Y-104061898D01*
X117817752Y-104101228D01*
X117786253Y-104217895D01*
X117826081Y-104240981D01*
X117956948Y-104115630D01*
X118176795Y-103843324D01*
X118322486Y-103665833D01*
X118445521Y-103547236D01*
X118492807Y-103546930D01*
X118494814Y-103563217D01*
X118566850Y-103569498D01*
X118726954Y-103448342D01*
X118961100Y-103232281D01*
X118809505Y-103530212D01*
X118749376Y-103653890D01*
X118690098Y-103818178D01*
X118726194Y-103838125D01*
X118853267Y-103715093D01*
X119066919Y-103450445D01*
X119232135Y-103243744D01*
X119442833Y-103004464D01*
X119601918Y-102850829D01*
X119689029Y-102771189D01*
X119884074Y-102555583D01*
X120085292Y-102298735D01*
X120411344Y-101950763D01*
X120881671Y-101630313D01*
X121199206Y-101431439D01*
X121604216Y-101034341D01*
X121888169Y-100525834D01*
X122064672Y-99885852D01*
X122089393Y-99741210D01*
X122118345Y-99525900D01*
X122132307Y-99308493D01*
X122129780Y-99059902D01*
X122109264Y-98751038D01*
X122069261Y-98352813D01*
X122008271Y-97836140D01*
X121924795Y-97171930D01*
X121912467Y-97073774D01*
X121897603Y-96920278D01*
X121915542Y-96927235D01*
X121972638Y-97082807D01*
X122014632Y-97222410D01*
X122092692Y-97520116D01*
X122186556Y-97905695D01*
X122284087Y-98330526D01*
X122356893Y-98656427D01*
X122425271Y-98952029D01*
X122464096Y-99092198D01*
X122478471Y-99087626D01*
X122473502Y-98949002D01*
X122454292Y-98687017D01*
X122441771Y-98544147D01*
X122350421Y-97865699D01*
X122210398Y-97142951D01*
X122037619Y-96450085D01*
X121848000Y-95861281D01*
X121837909Y-95834583D01*
X121564884Y-95175905D01*
X121242165Y-94496735D01*
X120886043Y-93823747D01*
X120512814Y-93183614D01*
X120138771Y-92603009D01*
X119780208Y-92108605D01*
X119453419Y-91727074D01*
X119174698Y-91485091D01*
X119056208Y-91411821D01*
X118982010Y-91399754D01*
X118975435Y-91496461D01*
X118979400Y-91523800D01*
X119042958Y-91718548D01*
X119155102Y-91958245D01*
X119207505Y-92060908D01*
X119407181Y-92605613D01*
X119523158Y-93254112D01*
X119561223Y-94036008D01*
X119554713Y-94340680D01*
X119528461Y-94783050D01*
X119486275Y-95249902D01*
X119432678Y-95707508D01*
X119372192Y-96122138D01*
X119309337Y-96460062D01*
X119248635Y-96687552D01*
X119194608Y-96770877D01*
X119156182Y-96752035D01*
X119116667Y-96626874D01*
X119110763Y-96564710D01*
X119064933Y-96344632D01*
X118988577Y-96069856D01*
X118947343Y-95925000D01*
X118861070Y-95581685D01*
X118764232Y-95160261D01*
X118671031Y-94721052D01*
X118541537Y-94156359D01*
X118318341Y-93459406D01*
X118032180Y-92863550D01*
X117660313Y-92324188D01*
X117179997Y-91796717D01*
X117059892Y-91678796D01*
X116580293Y-91231025D01*
X116117690Y-90845615D01*
X115640940Y-90503176D01*
X115118896Y-90184316D01*
X114520414Y-89869644D01*
X113814348Y-89539771D01*
X112969553Y-89175303D01*
X111853158Y-88706514D01*
X110560878Y-88712341D01*
X110558415Y-88712353D01*
X109538059Y-88746754D01*
X108502404Y-88844352D01*
X107403615Y-89011067D01*
X107217527Y-89048254D01*
X106193860Y-89252819D01*
X105773770Y-89351116D01*
X105371517Y-89467256D01*
X105076141Y-89579344D01*
X104998381Y-89608852D01*
X104594366Y-89799058D01*
X104099474Y-90061025D01*
X104056193Y-90084679D01*
X103620011Y-90328294D01*
X103206877Y-90567490D01*
X102861590Y-90775885D01*
X102628948Y-90927094D01*
X102355367Y-91118733D01*
X102160635Y-91247939D01*
X102064043Y-91295196D01*
X102040766Y-91272109D01*
X102065980Y-91190283D01*
X102067910Y-91184608D01*
X102027483Y-91190556D01*
X101875345Y-91324393D01*
X101616949Y-91580573D01*
X101257748Y-91953551D01*
X100803199Y-92437782D01*
X100729899Y-92517207D01*
X100258754Y-93027719D01*
X99926919Y-93403622D01*
X99339578Y-94128570D01*
X99008974Y-94572179D01*
X98775581Y-94885348D01*
X98693830Y-94995043D01*
X98012984Y-95968772D01*
X97981826Y-96013333D01*
X97796707Y-96291118D01*
X97469783Y-96831366D01*
X97463678Y-96841454D01*
X97203157Y-97364644D01*
X96979152Y-97929473D01*
X96838669Y-98290031D01*
X96773859Y-98456368D01*
X96575864Y-98854427D01*
X96396920Y-99088070D01*
X95955220Y-99582402D01*
X95609562Y-100165938D01*
X95364816Y-100807024D01*
X95224934Y-101474830D01*
X95193871Y-102138526D01*
X92239887Y-102138526D01*
X93048246Y-101490159D01*
X93424542Y-101177042D01*
X93722105Y-100906050D01*
X93915236Y-100701149D01*
X93984035Y-100581660D01*
X93977175Y-100444440D01*
X93939697Y-100112375D01*
X93935425Y-100083617D01*
X94716937Y-100083617D01*
X94773378Y-100060450D01*
X94908980Y-99914513D01*
X95102446Y-99668860D01*
X95332968Y-99348328D01*
X95491803Y-99118120D01*
X95777060Y-98698412D01*
X95957257Y-98422358D01*
X96032418Y-98290031D01*
X96002568Y-98301508D01*
X95867733Y-98456861D01*
X95627937Y-98756167D01*
X95283205Y-99199500D01*
X95080022Y-99472165D01*
X94882391Y-99760020D01*
X94754338Y-99974806D01*
X94716937Y-100083617D01*
X93935425Y-100083617D01*
X93877662Y-99694805D01*
X93857217Y-99575723D01*
X94518772Y-99575723D01*
X94527142Y-99639335D01*
X94590606Y-99711930D01*
X94633841Y-99674725D01*
X94766836Y-99513185D01*
X94968340Y-99245925D01*
X95220164Y-98897249D01*
X95504115Y-98491462D01*
X95650663Y-98278779D01*
X96046089Y-97702109D01*
X96338736Y-97269453D01*
X96528634Y-96979608D01*
X96615811Y-96831366D01*
X96600297Y-96823524D01*
X96482122Y-96954876D01*
X96261315Y-97224216D01*
X95937905Y-97630338D01*
X95511923Y-98172039D01*
X95222585Y-98547228D01*
X94941222Y-98925280D01*
X94718330Y-99239393D01*
X94571612Y-99464548D01*
X94518772Y-99575723D01*
X93857217Y-99575723D01*
X93800300Y-99244217D01*
X93747488Y-98971407D01*
X94342784Y-98971407D01*
X94350651Y-99057306D01*
X94398386Y-99094458D01*
X94496840Y-99030884D01*
X94654827Y-98856539D01*
X94881165Y-98561381D01*
X95184668Y-98135364D01*
X95574153Y-97568444D01*
X95710457Y-97367442D01*
X96011499Y-96920211D01*
X96267281Y-96535620D01*
X96463943Y-96234777D01*
X96587625Y-96038791D01*
X96624467Y-95968772D01*
X96595002Y-95993594D01*
X96497048Y-96105961D01*
X96325488Y-96316878D01*
X96073469Y-96635015D01*
X95734136Y-97069041D01*
X95300637Y-97627625D01*
X94766117Y-98319437D01*
X94725804Y-98372166D01*
X94532103Y-98640245D01*
X94395275Y-98854090D01*
X94342784Y-98971407D01*
X93747488Y-98971407D01*
X93716842Y-98813100D01*
X93636519Y-98453940D01*
X93626916Y-98420773D01*
X94105819Y-98420773D01*
X94137887Y-98482665D01*
X94228123Y-98553333D01*
X94234298Y-98551389D01*
X94328324Y-98463707D01*
X94503576Y-98264868D01*
X94737428Y-97981398D01*
X95007256Y-97639824D01*
X95262777Y-97310859D01*
X95644723Y-96821340D01*
X96024764Y-96336348D01*
X96349447Y-95924210D01*
X96509169Y-95720933D01*
X96768138Y-95384267D01*
X96962549Y-95121889D01*
X97080846Y-94950137D01*
X97111474Y-94885348D01*
X97042875Y-94943859D01*
X96996233Y-94994582D01*
X96841176Y-95166478D01*
X96597247Y-95438388D01*
X96281785Y-95790953D01*
X95912126Y-96204810D01*
X95505609Y-96660597D01*
X94994414Y-97242019D01*
X94595542Y-97712879D01*
X94312357Y-98068966D01*
X94148053Y-98306268D01*
X94105819Y-98420773D01*
X93626916Y-98420773D01*
X93568562Y-98219225D01*
X93538203Y-98135673D01*
X93499410Y-98037824D01*
X93447913Y-97956582D01*
X93364004Y-97883320D01*
X93227974Y-97809411D01*
X93020117Y-97726229D01*
X92720724Y-97625146D01*
X92310088Y-97497535D01*
X91768500Y-97334769D01*
X91076254Y-97128221D01*
X90441103Y-96938438D01*
X88759061Y-97660951D01*
X88360702Y-97834697D01*
X87801021Y-98090414D01*
X87369589Y-98303851D01*
X87079372Y-98468460D01*
X86943334Y-98577696D01*
X86708949Y-98883681D01*
X86280565Y-99304289D01*
X85826390Y-99602546D01*
X85369931Y-99767875D01*
X84934694Y-99789694D01*
X84544187Y-99657426D01*
X84489714Y-99626465D01*
X84378129Y-99581797D01*
X84248938Y-99575238D01*
X84064778Y-99612795D01*
X83788284Y-99700478D01*
X83382091Y-99844294D01*
X82928713Y-100015912D01*
X82180906Y-100323865D01*
X81323119Y-100699862D01*
X80381043Y-101131310D01*
X79380372Y-101605618D01*
X78346797Y-102110192D01*
X77306011Y-102632440D01*
X76283707Y-103159769D01*
X75305576Y-103679587D01*
X74397312Y-104179301D01*
X73584607Y-104646319D01*
X73238829Y-104861530D01*
X72479437Y-105439169D01*
X71863842Y-106083923D01*
X71370186Y-106817222D01*
X71289427Y-106958234D01*
X71156085Y-107167571D01*
X71095892Y-107219793D01*
X71109009Y-107118754D01*
X71195598Y-106868309D01*
X71355818Y-106472314D01*
X71408896Y-106348045D01*
X71670164Y-105794017D01*
X71918181Y-105380255D01*
X72172462Y-105078047D01*
X72452522Y-104858679D01*
X72560277Y-104794121D01*
X72908599Y-104602015D01*
X73406443Y-104342251D01*
X74045124Y-104019087D01*
X74815952Y-103636784D01*
X75710241Y-103199602D01*
X76719303Y-102711800D01*
X77834449Y-102177638D01*
X79046993Y-101601376D01*
X80348246Y-100987273D01*
X80531270Y-100901107D01*
X81314687Y-100530618D01*
X82044438Y-100182867D01*
X82705116Y-99865371D01*
X83281309Y-99585648D01*
X83757608Y-99351213D01*
X84118603Y-99169583D01*
X84348884Y-99048274D01*
X84433041Y-98994804D01*
X84435361Y-98988398D01*
X84511925Y-98905891D01*
X84590230Y-98963186D01*
X84626141Y-99129496D01*
X84691382Y-99339248D01*
X84884625Y-99466475D01*
X85181099Y-99496043D01*
X85555860Y-99425682D01*
X85983960Y-99253120D01*
X86150484Y-99156946D01*
X86458091Y-98858192D01*
X86632507Y-98451983D01*
X86639139Y-98422977D01*
X86631124Y-98224559D01*
X86482577Y-98064571D01*
X86274913Y-97912193D01*
X86586842Y-97957647D01*
X86596144Y-97958933D01*
X86794155Y-97957885D01*
X87057015Y-97902950D01*
X87416237Y-97785491D01*
X87903334Y-97596872D01*
X87927473Y-97587097D01*
X88306180Y-97429859D01*
X88610442Y-97296465D01*
X88809793Y-97200741D01*
X88873764Y-97156512D01*
X88777960Y-97159837D01*
X88592106Y-97216491D01*
X88497735Y-97250191D01*
X88338626Y-97285534D01*
X88322857Y-97247122D01*
X88443792Y-97148689D01*
X88694793Y-97003971D01*
X88771996Y-96963339D01*
X88993126Y-96837482D01*
X89057693Y-96781389D01*
X88965010Y-96798906D01*
X88714393Y-96893885D01*
X88705229Y-96897622D01*
X88431478Y-96999888D01*
X88191053Y-97075849D01*
X87968246Y-97134804D01*
X88191053Y-96998032D01*
X88413860Y-96861261D01*
X88101930Y-96894664D01*
X88093348Y-96895598D01*
X87824854Y-96936748D01*
X87611755Y-96988146D01*
X87576899Y-96990823D01*
X87658897Y-96931692D01*
X87856842Y-96818721D01*
X88044349Y-96712664D01*
X91374582Y-96712664D01*
X91412532Y-96780833D01*
X91472061Y-96812519D01*
X91641407Y-96858635D01*
X91754957Y-96886349D01*
X92001339Y-96965672D01*
X92341432Y-97084069D01*
X92737995Y-97228962D01*
X92774063Y-97242445D01*
X93194637Y-97404599D01*
X93479720Y-97529796D01*
X93660659Y-97636214D01*
X93768799Y-97742033D01*
X93835486Y-97865429D01*
X93944640Y-98132933D01*
X95194561Y-96672080D01*
X95297250Y-96552092D01*
X95682103Y-96102929D01*
X96039439Y-95686649D01*
X96347193Y-95328912D01*
X96583297Y-95055377D01*
X96725684Y-94891704D01*
X97006886Y-94572179D01*
X95861639Y-94613534D01*
X95473911Y-94623681D01*
X94956655Y-94624446D01*
X94509157Y-94610448D01*
X94153098Y-94583520D01*
X93910158Y-94545494D01*
X93802016Y-94498205D01*
X93850351Y-94443485D01*
X93852867Y-94442380D01*
X93868511Y-94409934D01*
X93746499Y-94398437D01*
X93525047Y-94406529D01*
X93242370Y-94432849D01*
X92936686Y-94476033D01*
X92700582Y-94576421D01*
X92412114Y-94840082D01*
X92094680Y-95268187D01*
X91744060Y-95865653D01*
X91675659Y-95993446D01*
X91497006Y-96344200D01*
X91399694Y-96575530D01*
X91374582Y-96712664D01*
X88044349Y-96712664D01*
X88092390Y-96685491D01*
X88246777Y-96581292D01*
X88242475Y-96552271D01*
X88082435Y-96601376D01*
X87782196Y-96726316D01*
X87769606Y-96731555D01*
X87527040Y-96831783D01*
X87236165Y-96934480D01*
X87034343Y-96985265D01*
X86993067Y-96991777D01*
X86742782Y-97057727D01*
X86464555Y-97159395D01*
X86300303Y-97226966D01*
X86114878Y-97292011D01*
X86086544Y-97280150D01*
X86214444Y-97194517D01*
X86497720Y-97038245D01*
X86774344Y-96886545D01*
X86907288Y-96800100D01*
X86882856Y-96788506D01*
X86703727Y-96852715D01*
X86372584Y-96993684D01*
X86082306Y-97117290D01*
X85875685Y-97193116D01*
X85812100Y-97197790D01*
X85898349Y-97131313D01*
X86141228Y-96993684D01*
X86199278Y-96962311D01*
X86416831Y-96835057D01*
X86472563Y-96781549D01*
X86367739Y-96804692D01*
X86103628Y-96907396D01*
X86038444Y-96932958D01*
X85821768Y-96993442D01*
X85692397Y-96991696D01*
X85615204Y-96979641D01*
X85451232Y-97037677D01*
X85390450Y-97077611D01*
X85375593Y-97107825D01*
X85517369Y-97075991D01*
X85652511Y-97054341D01*
X85673030Y-97086893D01*
X85670786Y-97089118D01*
X85536903Y-97142529D01*
X85316539Y-97173831D01*
X85067036Y-97202461D01*
X84848948Y-97252723D01*
X84847485Y-97253234D01*
X84826835Y-97247161D01*
X84939264Y-97173298D01*
X85160878Y-97047376D01*
X85224019Y-97012652D01*
X85480389Y-96864784D01*
X85578763Y-96793294D01*
X85521785Y-96798297D01*
X85312101Y-96879909D01*
X84952354Y-97038245D01*
X84739129Y-97133297D01*
X84451768Y-97252436D01*
X84322223Y-97291616D01*
X84351796Y-97252808D01*
X84541791Y-97137986D01*
X84893509Y-96949123D01*
X85019110Y-96883235D01*
X85286875Y-96738210D01*
X85307346Y-96726316D01*
X87032456Y-96726316D01*
X87077018Y-96770877D01*
X87121579Y-96726316D01*
X87077018Y-96681754D01*
X87032456Y-96726316D01*
X85307346Y-96726316D01*
X85461865Y-96636540D01*
X85511075Y-96597042D01*
X85458954Y-96611618D01*
X85269905Y-96682902D01*
X84979935Y-96800323D01*
X84626141Y-96949123D01*
X84378215Y-97053919D01*
X84064230Y-97182752D01*
X83839527Y-97270066D01*
X83741207Y-97301103D01*
X83759385Y-97283129D01*
X83899178Y-97200670D01*
X84146506Y-97066923D01*
X84470176Y-96899089D01*
X84685966Y-96787646D01*
X84976560Y-96632065D01*
X85175951Y-96518060D01*
X85250000Y-96464652D01*
X85214914Y-96469162D01*
X85049050Y-96527574D01*
X84777973Y-96635883D01*
X84436186Y-96780688D01*
X84202862Y-96879923D01*
X83896206Y-97003350D01*
X83679636Y-97081542D01*
X83589482Y-97100768D01*
X83589999Y-97094658D01*
X83681059Y-97028506D01*
X83888578Y-96912279D01*
X84176283Y-96766633D01*
X84250291Y-96730310D01*
X84522242Y-96589881D01*
X84705427Y-96483887D01*
X84763541Y-96432956D01*
X84740201Y-96433331D01*
X84588758Y-96481052D01*
X84331140Y-96581260D01*
X84005887Y-96719384D01*
X83605430Y-96891558D01*
X83347147Y-96993440D01*
X83248130Y-97018369D01*
X83309028Y-96966922D01*
X83530488Y-96839671D01*
X83913158Y-96637193D01*
X84117448Y-96529848D01*
X84386386Y-96382190D01*
X84556714Y-96279946D01*
X84598199Y-96240616D01*
X84508008Y-96266316D01*
X84284512Y-96350052D01*
X83965558Y-96478341D01*
X83586821Y-96637193D01*
X83241567Y-96782648D01*
X82919186Y-96914098D01*
X82690276Y-97002397D01*
X82589850Y-97033624D01*
X82588905Y-97030993D01*
X82675230Y-96975099D01*
X82887217Y-96857807D01*
X83197560Y-96693900D01*
X83578948Y-96498162D01*
X83664534Y-96454655D01*
X84041048Y-96260153D01*
X84346460Y-96097386D01*
X84551311Y-95982313D01*
X84626141Y-95930891D01*
X84583584Y-95940022D01*
X84402992Y-96006193D01*
X84105458Y-96124500D01*
X83717846Y-96284198D01*
X83267018Y-96474540D01*
X83199104Y-96503519D01*
X82623785Y-96748052D01*
X82209170Y-96921453D01*
X81952738Y-97023627D01*
X81851968Y-97054478D01*
X81904339Y-97013911D01*
X82107331Y-96901831D01*
X82458420Y-96718143D01*
X82955088Y-96462750D01*
X83276635Y-96296924D01*
X83671802Y-96089664D01*
X83986484Y-95920469D01*
X84194494Y-95803480D01*
X84269649Y-95752837D01*
X84214937Y-95761799D01*
X84024711Y-95831546D01*
X83725486Y-95953569D01*
X83345756Y-96115367D01*
X82914014Y-96304438D01*
X82458750Y-96508283D01*
X82008460Y-96714400D01*
X81591634Y-96910290D01*
X81236766Y-97083452D01*
X80275168Y-97574078D01*
X79463079Y-98007672D01*
X78786660Y-98392528D01*
X78231025Y-98737464D01*
X77781285Y-99051299D01*
X77422554Y-99342852D01*
X77248827Y-99495935D01*
X76993021Y-99707952D01*
X76820530Y-99821746D01*
X76702091Y-99854608D01*
X76608438Y-99823827D01*
X76486382Y-99776181D01*
X76258786Y-99772565D01*
X76149786Y-99773593D01*
X75885595Y-99676910D01*
X75507039Y-99454977D01*
X75458003Y-99423153D01*
X75188803Y-99253147D01*
X74986937Y-99133377D01*
X74892952Y-99088070D01*
X74829812Y-99141276D01*
X74678903Y-99311176D01*
X74465477Y-99569509D01*
X74212417Y-99887112D01*
X73942611Y-100234822D01*
X73678942Y-100583477D01*
X73444296Y-100903913D01*
X73261559Y-101166967D01*
X73062199Y-101515323D01*
X72970939Y-101812113D01*
X73014278Y-102010399D01*
X73192836Y-102101730D01*
X73199874Y-102102512D01*
X73314964Y-102074899D01*
X73488525Y-101968844D01*
X73736633Y-101771652D01*
X74075365Y-101470630D01*
X74520794Y-101053081D01*
X74840845Y-100752074D01*
X75171914Y-100449575D01*
X75439620Y-100214820D01*
X75622449Y-100066608D01*
X75698885Y-100023738D01*
X75701182Y-100049406D01*
X75629853Y-100176388D01*
X75478224Y-100359405D01*
X75214828Y-100656718D01*
X74985939Y-100941260D01*
X74816048Y-101179952D01*
X74725513Y-101344163D01*
X74734686Y-101405263D01*
X74784871Y-101383863D01*
X74950614Y-101263617D01*
X75189921Y-101061175D01*
X75469625Y-100803684D01*
X75655724Y-100628777D01*
X75886857Y-100428680D01*
X76002294Y-100363002D01*
X76004497Y-100433993D01*
X75895929Y-100643900D01*
X75679052Y-100994974D01*
X75572668Y-101145306D01*
X75191443Y-101546524D01*
X74717083Y-101907754D01*
X74196329Y-102201107D01*
X73675923Y-102398693D01*
X73202609Y-102472621D01*
X72947321Y-102430964D01*
X72707696Y-102280403D01*
X72581186Y-102054826D01*
X72600354Y-101791082D01*
X72616160Y-101751748D01*
X72796215Y-101412889D01*
X73094810Y-100963451D01*
X73503682Y-100415189D01*
X74014565Y-99779856D01*
X74056879Y-99728633D01*
X74374661Y-99329490D01*
X74583691Y-99032314D01*
X74698472Y-98814372D01*
X74733509Y-98652927D01*
X74757600Y-98429540D01*
X74763825Y-98402938D01*
X75637873Y-98402938D01*
X75662359Y-98948741D01*
X75716862Y-99141918D01*
X75796091Y-99254457D01*
X75863570Y-99221325D01*
X75892106Y-99032596D01*
X75894747Y-98939940D01*
X75928934Y-98855736D01*
X76025790Y-98909824D01*
X76109087Y-98962892D01*
X76159474Y-98925997D01*
X76156222Y-98898659D01*
X76070351Y-98776140D01*
X76046266Y-98757927D01*
X75981228Y-98631936D01*
X75986460Y-98604098D01*
X76064193Y-98594089D01*
X76090789Y-98605688D01*
X76195750Y-98566739D01*
X76287844Y-98525714D01*
X76477084Y-98532606D01*
X76589532Y-98539242D01*
X76734886Y-98487402D01*
X76899476Y-98357792D01*
X77556154Y-98357792D01*
X77556399Y-98448209D01*
X77639902Y-98527033D01*
X77749378Y-98593661D01*
X77892122Y-98639917D01*
X77899770Y-98638764D01*
X78031657Y-98586630D01*
X78282743Y-98468513D01*
X78620252Y-98300287D01*
X79011404Y-98097828D01*
X79284767Y-97955158D01*
X79751111Y-97714580D01*
X80314478Y-97426146D01*
X80939773Y-97107760D01*
X81591903Y-96777328D01*
X82235774Y-96452754D01*
X82760675Y-96187313D01*
X83366006Y-95874633D01*
X83846777Y-95615807D01*
X84224475Y-95398312D01*
X84520590Y-95209624D01*
X84756608Y-95037220D01*
X84954019Y-94868578D01*
X84986839Y-94838512D01*
X85274761Y-94590160D01*
X85544018Y-94381279D01*
X85740176Y-94254397D01*
X86032774Y-94140016D01*
X86444141Y-94029402D01*
X86875365Y-93949612D01*
X87244371Y-93918947D01*
X87477216Y-93878088D01*
X87857780Y-93696686D01*
X88293968Y-93381224D01*
X88767001Y-92943729D01*
X88850565Y-92857692D01*
X89054889Y-92632033D01*
X89126263Y-92517207D01*
X89066120Y-92508714D01*
X88875896Y-92602055D01*
X88711930Y-92648538D01*
X88406310Y-92693114D01*
X87997343Y-92731053D01*
X87522632Y-92758019D01*
X87006571Y-92787399D01*
X86497619Y-92850761D01*
X86070547Y-92962576D01*
X85673277Y-93142141D01*
X85253729Y-93408754D01*
X84759825Y-93781711D01*
X84618807Y-93886301D01*
X84318805Y-94087313D01*
X83955925Y-94313260D01*
X83560706Y-94547025D01*
X83163687Y-94771492D01*
X82795407Y-94969546D01*
X82486406Y-95124071D01*
X82267224Y-95217952D01*
X82168400Y-95234072D01*
X82171479Y-95224430D01*
X82273417Y-95148809D01*
X82487633Y-95019981D01*
X82779375Y-94859264D01*
X83052662Y-94712240D01*
X83501088Y-94463049D01*
X83885854Y-94239328D01*
X84183387Y-94055359D01*
X84370114Y-93925425D01*
X84422462Y-93863807D01*
X84394612Y-93859244D01*
X84240097Y-93889281D01*
X84004978Y-93962557D01*
X83876781Y-94007427D01*
X83660931Y-94075565D01*
X83601310Y-94068914D01*
X83693637Y-93977110D01*
X83933633Y-93789787D01*
X84114183Y-93640811D01*
X84338997Y-93403694D01*
X84447290Y-93208646D01*
X84429718Y-93076407D01*
X84276939Y-93027719D01*
X84119365Y-93015258D01*
X83904521Y-92934260D01*
X83824035Y-92795377D01*
X83820549Y-92730575D01*
X83782133Y-92681682D01*
X83670309Y-92719932D01*
X83447418Y-92850875D01*
X83151490Y-93001755D01*
X82685131Y-93178628D01*
X82167848Y-93329222D01*
X81668802Y-93433895D01*
X81257154Y-93473000D01*
X81202136Y-93472418D01*
X80710503Y-93400597D01*
X80313059Y-93194740D01*
X79969310Y-92834781D01*
X79912240Y-92757610D01*
X79704194Y-92462575D01*
X79597128Y-92284704D01*
X79592507Y-92230376D01*
X79691798Y-92305967D01*
X79896465Y-92517856D01*
X79921961Y-92545535D01*
X80188698Y-92813585D01*
X80444427Y-93037927D01*
X80636992Y-93172458D01*
X80834024Y-93246076D01*
X81256732Y-93301793D01*
X81742336Y-93271986D01*
X82232445Y-93157212D01*
X82677982Y-93009228D01*
X82614876Y-92639702D01*
X82584337Y-92438268D01*
X82563269Y-92048725D01*
X82621448Y-91765077D01*
X82764435Y-91546683D01*
X82819457Y-91485868D01*
X82900727Y-91362630D01*
X82839822Y-91346549D01*
X82637299Y-91438100D01*
X82545099Y-91485430D01*
X82492262Y-91493026D01*
X82564948Y-91393538D01*
X82626797Y-91297995D01*
X82576575Y-91254433D01*
X82378657Y-91245263D01*
X82228984Y-91233526D01*
X81791209Y-91100654D01*
X81284693Y-90827399D01*
X80725147Y-90423170D01*
X80128284Y-89897378D01*
X80078807Y-89850153D01*
X79770641Y-89559557D01*
X79513798Y-89323237D01*
X79333869Y-89164416D01*
X79256449Y-89106316D01*
X79248278Y-89116162D01*
X79229367Y-89209791D01*
X79208307Y-89411881D01*
X79184368Y-89734042D01*
X79156817Y-90187885D01*
X79124921Y-90785021D01*
X79087948Y-91537060D01*
X79045166Y-92455615D01*
X79027170Y-93227942D01*
X79059204Y-93977245D01*
X79152510Y-94595351D01*
X79280784Y-95003779D01*
X79312041Y-95103303D01*
X79542750Y-95522140D01*
X79849589Y-95872904D01*
X79876223Y-95898261D01*
X80021595Y-96057540D01*
X80080878Y-96160845D01*
X80049447Y-96204091D01*
X79897816Y-96313247D01*
X79662900Y-96445146D01*
X79624469Y-96465408D01*
X79292855Y-96678924D01*
X78896830Y-96983744D01*
X78481652Y-97341180D01*
X78092580Y-97712541D01*
X77774872Y-98059138D01*
X77652370Y-98210015D01*
X77556154Y-98357792D01*
X76899476Y-98357792D01*
X76915710Y-98345008D01*
X77169913Y-98087719D01*
X77443259Y-97816990D01*
X77750816Y-97546201D01*
X78010629Y-97349782D01*
X78197623Y-97216134D01*
X78329345Y-97069241D01*
X78338933Y-96936364D01*
X78336479Y-96847808D01*
X78376764Y-96607022D01*
X78460017Y-96272363D01*
X78576318Y-95887641D01*
X78866028Y-95003779D01*
X78642752Y-94706451D01*
X78558189Y-94593214D01*
X78412000Y-94377289D01*
X78362980Y-94228164D01*
X78403065Y-94091993D01*
X78524189Y-93914934D01*
X78530747Y-93905989D01*
X78692362Y-93626153D01*
X78742569Y-93399586D01*
X78673249Y-93261859D01*
X78528403Y-93259534D01*
X78280706Y-93362739D01*
X77963981Y-93556399D01*
X77607596Y-93822451D01*
X77240919Y-94142832D01*
X77068601Y-94307967D01*
X76829904Y-94546943D01*
X76665995Y-94724611D01*
X76605088Y-94811309D01*
X76661262Y-94869846D01*
X76829124Y-94940458D01*
X77036450Y-94991019D01*
X77208963Y-94998505D01*
X77221617Y-94997548D01*
X77380515Y-95048129D01*
X77603917Y-95174310D01*
X77831278Y-95337789D01*
X78002052Y-95500259D01*
X78028938Y-95541341D01*
X78053326Y-95656506D01*
X78026541Y-95829772D01*
X77940980Y-96086233D01*
X77789042Y-96450986D01*
X77563123Y-96949123D01*
X77368194Y-97335754D01*
X77122580Y-97706237D01*
X76870689Y-97941256D01*
X76592530Y-98063772D01*
X76529138Y-98077858D01*
X76368594Y-98079098D01*
X76322866Y-97988929D01*
X76391468Y-97791970D01*
X76573916Y-97472839D01*
X76700341Y-97251859D01*
X76870999Y-96828680D01*
X76973042Y-96328690D01*
X77003171Y-96079125D01*
X77021435Y-95798479D01*
X77010402Y-95638536D01*
X76972165Y-95617978D01*
X76908817Y-95755489D01*
X76890066Y-95809318D01*
X76717017Y-96229597D01*
X76488892Y-96699392D01*
X76243007Y-97145889D01*
X76016679Y-97496271D01*
X75781824Y-97890321D01*
X75637873Y-98402938D01*
X74763825Y-98402938D01*
X74844904Y-98056461D01*
X74976415Y-97640015D01*
X75131412Y-97244318D01*
X75289177Y-96933487D01*
X75412113Y-96752796D01*
X75726531Y-96366013D01*
X76119859Y-95947519D01*
X76549552Y-95544210D01*
X76662294Y-95436785D01*
X76797639Y-95269177D01*
X76827136Y-95165438D01*
X76755368Y-95112776D01*
X76537376Y-95078662D01*
X76235241Y-95099874D01*
X75899371Y-95171440D01*
X75580176Y-95288391D01*
X75540676Y-95307314D01*
X75264356Y-95458258D01*
X74933786Y-95669849D01*
X74535966Y-95951896D01*
X74057897Y-96314211D01*
X73486579Y-96766601D01*
X72809011Y-97318879D01*
X72012195Y-97980853D01*
X71628285Y-98302043D01*
X71029840Y-98803046D01*
X70548825Y-99206605D01*
X70172774Y-99523604D01*
X69889218Y-99764929D01*
X69685690Y-99941461D01*
X69549721Y-100064086D01*
X69468843Y-100143688D01*
X69430589Y-100191150D01*
X69422491Y-100217356D01*
X69432081Y-100233191D01*
X69507102Y-100205855D01*
X69673168Y-100080663D01*
X69891059Y-99884617D01*
X70044211Y-99740947D01*
X70185837Y-99624798D01*
X70213940Y-99638642D01*
X70129198Y-99785507D01*
X69932290Y-100068421D01*
X69899911Y-100113572D01*
X69803254Y-100253302D01*
X69797139Y-100284458D01*
X69894330Y-100202173D01*
X70107595Y-100001579D01*
X70247124Y-99872502D01*
X70462353Y-99693912D01*
X70574927Y-99634188D01*
X70577240Y-99695910D01*
X70461683Y-99881652D01*
X70349416Y-100047949D01*
X70285095Y-100181082D01*
X70338054Y-100183494D01*
X70506484Y-100055648D01*
X70788572Y-99798008D01*
X70893430Y-99699285D01*
X71047460Y-99562072D01*
X71098304Y-99530673D01*
X71033659Y-99614310D01*
X70919590Y-99750306D01*
X70867000Y-99837447D01*
X70930776Y-99815695D01*
X71114912Y-99682421D01*
X71423404Y-99435001D01*
X71860245Y-99070806D01*
X71872428Y-99060539D01*
X72190592Y-98793984D01*
X72454163Y-98576077D01*
X72636031Y-98429038D01*
X72709084Y-98375088D01*
X72685082Y-98404138D01*
X72555739Y-98541841D01*
X72329525Y-98777125D01*
X72023236Y-99092643D01*
X71653667Y-99471047D01*
X71237612Y-99894989D01*
X71205914Y-99927235D01*
X70667332Y-100482924D01*
X70256138Y-100924232D01*
X69971099Y-101252564D01*
X69967907Y-101256241D01*
X69798213Y-101484039D01*
X69742632Y-101612708D01*
X69754658Y-101727350D01*
X69797240Y-101997931D01*
X69865088Y-102383280D01*
X69952436Y-102850844D01*
X70053520Y-103368069D01*
X70143206Y-103818863D01*
X70231925Y-104268120D01*
X70302451Y-104628942D01*
X70349162Y-104872552D01*
X70366438Y-104970175D01*
X70375118Y-104971573D01*
X70457585Y-104891775D01*
X70598526Y-104722813D01*
X70756295Y-104555022D01*
X71030464Y-104316292D01*
X71332801Y-104092193D01*
X71487269Y-103989676D01*
X71733429Y-103831877D01*
X71918168Y-103720053D01*
X72019259Y-103666652D01*
X72014473Y-103684121D01*
X71881579Y-103784906D01*
X71774880Y-103863796D01*
X71368063Y-104207941D01*
X71007183Y-104578077D01*
X70717785Y-104942915D01*
X70525415Y-105271167D01*
X70455614Y-105531543D01*
X70423494Y-105640812D01*
X70325023Y-105878737D01*
X70176093Y-106204808D01*
X69992883Y-106582287D01*
X69895605Y-106775392D01*
X69719287Y-107107758D01*
X69600420Y-107297286D01*
X69529211Y-107358210D01*
X69495869Y-107304763D01*
X69497130Y-107231977D01*
X69547146Y-106995211D01*
X69647754Y-106668631D01*
X69785156Y-106300154D01*
X70108727Y-105500958D01*
X69843272Y-104322058D01*
X69831631Y-104270595D01*
X69719199Y-103794448D01*
X69606410Y-103349088D01*
X69505783Y-102982359D01*
X69429838Y-102742105D01*
X69393550Y-102636377D01*
X69308243Y-102318409D01*
X69267157Y-102053999D01*
X69256409Y-101941831D01*
X69184678Y-101786496D01*
X69006966Y-101712618D01*
X68952784Y-101705534D01*
X68683619Y-101769419D01*
X68366232Y-101969786D01*
X68021244Y-102285748D01*
X67669278Y-102696417D01*
X67330953Y-103180904D01*
X67026892Y-103718322D01*
X66947733Y-103884192D01*
X66791751Y-104229688D01*
X66588629Y-104692408D01*
X66349910Y-105245044D01*
X66087136Y-105860286D01*
X65811852Y-106510827D01*
X65535601Y-107169356D01*
X65269927Y-107808567D01*
X65026372Y-108401149D01*
X64816480Y-108919793D01*
X64651795Y-109337193D01*
X64509897Y-109734958D01*
X64320113Y-110334459D01*
X64118512Y-111029402D01*
X63916395Y-111776399D01*
X63725060Y-112532063D01*
X63555809Y-113253008D01*
X63419939Y-113895847D01*
X63328753Y-114417193D01*
X63302118Y-114621882D01*
X63245715Y-115253005D01*
X63205238Y-116019318D01*
X63180384Y-116890467D01*
X63170850Y-117836096D01*
X62997583Y-117836096D01*
X63018352Y-116578556D01*
X63130020Y-115031261D01*
X63331034Y-113540241D01*
X63626137Y-112070346D01*
X64020070Y-110586423D01*
X64517577Y-109053321D01*
X64622720Y-108754465D01*
X64779474Y-108311594D01*
X64911852Y-107940834D01*
X65008388Y-107674241D01*
X65057612Y-107543869D01*
X65070076Y-107483314D01*
X64999236Y-107363034D01*
X64779191Y-107225823D01*
X64579132Y-107102914D01*
X64401062Y-106928171D01*
X64270652Y-106696332D01*
X64184427Y-106387543D01*
X64138909Y-105981950D01*
X64130623Y-105459700D01*
X64156091Y-104800937D01*
X64211837Y-103985810D01*
X64214824Y-103947485D01*
X64257036Y-103482005D01*
X64309352Y-103125809D01*
X64387695Y-102814572D01*
X64507988Y-102483967D01*
X64650553Y-102152457D01*
X64871161Y-102152457D01*
X64919481Y-102207368D01*
X64945622Y-102204041D01*
X65063685Y-102118245D01*
X65077962Y-102084034D01*
X65029643Y-102029123D01*
X65003501Y-102032450D01*
X64885439Y-102118245D01*
X64871161Y-102152457D01*
X64650553Y-102152457D01*
X64686155Y-102069670D01*
X64704919Y-102027645D01*
X64858771Y-101692298D01*
X65031329Y-101328772D01*
X65208962Y-100964077D01*
X65378039Y-100625222D01*
X65524928Y-100339219D01*
X65635997Y-100133078D01*
X65697614Y-100033808D01*
X65696149Y-100068421D01*
X65675616Y-100123965D01*
X65594156Y-100331187D01*
X65471588Y-100635598D01*
X65325561Y-100993158D01*
X65243250Y-101201792D01*
X65134844Y-101513579D01*
X65075523Y-101739073D01*
X65076593Y-101839825D01*
X65144909Y-101913204D01*
X65142664Y-102083311D01*
X65142090Y-102084034D01*
X64970618Y-102300196D01*
X64878240Y-102392583D01*
X64766385Y-102554267D01*
X64806051Y-102630375D01*
X64996842Y-102616122D01*
X65110506Y-102591682D01*
X65171582Y-102596716D01*
X65113952Y-102669505D01*
X64930000Y-102834980D01*
X64818775Y-102938398D01*
X64749918Y-103025918D01*
X64812738Y-103015187D01*
X64963239Y-102946795D01*
X65112854Y-102911009D01*
X65207520Y-102963140D01*
X65259704Y-103125753D01*
X65281872Y-103421410D01*
X65286492Y-103872677D01*
X65289822Y-104298371D01*
X65304338Y-104593886D01*
X65336567Y-104788527D01*
X65393037Y-104921316D01*
X65480273Y-105031273D01*
X65590563Y-105156074D01*
X65610578Y-105223574D01*
X65513921Y-105237544D01*
X65493610Y-105237757D01*
X65404460Y-105266283D01*
X65464737Y-105371228D01*
X65516494Y-105457272D01*
X65488766Y-105616316D01*
X65446946Y-105757968D01*
X65485525Y-106037142D01*
X65487323Y-106043756D01*
X65543785Y-106206441D01*
X65600430Y-106248607D01*
X65667139Y-106156942D01*
X65753794Y-105918134D01*
X65870279Y-105518873D01*
X65898321Y-105415918D01*
X65963112Y-105129708D01*
X65968768Y-104964924D01*
X65917985Y-104885770D01*
X65909263Y-104879598D01*
X65815711Y-104739322D01*
X65739420Y-104515318D01*
X65671882Y-104242758D01*
X65606175Y-104012105D01*
X65580275Y-103901930D01*
X65628168Y-103827475D01*
X65812121Y-103811579D01*
X66070390Y-103751240D01*
X66397426Y-103534978D01*
X66461666Y-103476165D01*
X66617542Y-103309048D01*
X66709382Y-103175981D01*
X66718363Y-103109394D01*
X66625664Y-103141717D01*
X66610485Y-103113372D01*
X66656108Y-102963485D01*
X66758478Y-102723644D01*
X66825369Y-102560774D01*
X66921942Y-102225185D01*
X66976132Y-101890747D01*
X66985037Y-101599641D01*
X66945752Y-101394045D01*
X66855373Y-101316140D01*
X66800952Y-101328489D01*
X66624079Y-101455027D01*
X66413445Y-101684632D01*
X66198445Y-101975303D01*
X66008478Y-102285038D01*
X65872940Y-102571835D01*
X65821228Y-102793694D01*
X65843930Y-102867301D01*
X65935281Y-102842862D01*
X66127212Y-102708122D01*
X66207815Y-102647949D01*
X66388090Y-102524050D01*
X66483703Y-102474737D01*
X66511875Y-102478703D01*
X66530951Y-102557313D01*
X66424281Y-102722168D01*
X66203014Y-102954222D01*
X66029453Y-103105693D01*
X65866947Y-103196551D01*
X65757400Y-103171729D01*
X65722482Y-103146799D01*
X65657980Y-103163493D01*
X65635713Y-103332771D01*
X65628443Y-103588772D01*
X65494560Y-103281446D01*
X65412480Y-102928165D01*
X65444294Y-102464052D01*
X65595323Y-101964827D01*
X65853516Y-101468850D01*
X66206819Y-101014484D01*
X66378512Y-100852396D01*
X66630901Y-100715107D01*
X66855740Y-100743983D01*
X67071598Y-100937368D01*
X67171856Y-101118789D01*
X67225756Y-101498881D01*
X67147663Y-101975902D01*
X66938648Y-102536946D01*
X66865820Y-102697055D01*
X66759537Y-102943426D01*
X66724185Y-103062112D01*
X66755441Y-103075785D01*
X66848980Y-103007117D01*
X66919072Y-102954685D01*
X66946429Y-102976143D01*
X66893541Y-103135691D01*
X66831373Y-103326513D01*
X66801579Y-103480720D01*
X66821656Y-103521618D01*
X66900999Y-103442551D01*
X67043042Y-103218605D01*
X67250353Y-102845345D01*
X67525501Y-102318333D01*
X67871053Y-101633134D01*
X68004194Y-101365961D01*
X68673158Y-101365961D01*
X68674026Y-101378420D01*
X68725616Y-101398047D01*
X68815353Y-101302370D01*
X68837038Y-101252564D01*
X68776051Y-101263068D01*
X68736460Y-101290580D01*
X68673158Y-101365961D01*
X68004194Y-101365961D01*
X68628597Y-100112982D01*
X68999789Y-100085948D01*
X69109154Y-100076241D01*
X69299894Y-100028871D01*
X69426487Y-99910156D01*
X69552640Y-99672449D01*
X69682820Y-99376641D01*
X69770101Y-99091613D01*
X69791280Y-98814717D01*
X69749884Y-98486783D01*
X69649439Y-98048641D01*
X69518013Y-97436409D01*
X69442344Y-96741384D01*
X69480082Y-96183583D01*
X69631228Y-95763151D01*
X69685978Y-95668704D01*
X69790329Y-95475312D01*
X69831755Y-95376457D01*
X69830160Y-95369143D01*
X69754084Y-95394854D01*
X69577324Y-95529310D01*
X69318351Y-95754387D01*
X68995635Y-96051960D01*
X68627646Y-96403905D01*
X68232854Y-96792100D01*
X67829732Y-97198418D01*
X67436747Y-97604737D01*
X67072373Y-97992933D01*
X66755077Y-98344880D01*
X66503332Y-98642456D01*
X66252214Y-98954386D01*
X66460055Y-98555325D01*
X66572989Y-98375331D01*
X66816224Y-98063749D01*
X67145338Y-97690118D01*
X67539664Y-97273750D01*
X67978535Y-96833960D01*
X68441286Y-96390060D01*
X68907250Y-95961364D01*
X69355762Y-95567185D01*
X69766156Y-95226837D01*
X70117765Y-94959633D01*
X70389923Y-94784886D01*
X70561964Y-94721909D01*
X70620096Y-94732383D01*
X70789941Y-94852186D01*
X70931286Y-95051893D01*
X70990351Y-95263511D01*
X70990351Y-95263852D01*
X70954676Y-95415799D01*
X70861675Y-95672633D01*
X70731405Y-95978944D01*
X70721570Y-96000612D01*
X70598995Y-96280702D01*
X70517629Y-96485225D01*
X70494635Y-96571241D01*
X70531615Y-96560923D01*
X70703564Y-96488479D01*
X70990674Y-96358398D01*
X71365545Y-96183182D01*
X71800774Y-95975332D01*
X72490973Y-95654206D01*
X73101614Y-95401028D01*
X73614004Y-95230306D01*
X74054639Y-95134725D01*
X74450015Y-95106968D01*
X74826625Y-95139716D01*
X75358278Y-95225336D01*
X75593693Y-94817229D01*
X75605964Y-94795988D01*
X75791434Y-94484605D01*
X75978149Y-94195100D01*
X76183490Y-93905908D01*
X76424836Y-93595460D01*
X76719570Y-93242189D01*
X77085071Y-92824527D01*
X77538719Y-92320908D01*
X78097895Y-91709763D01*
X79011404Y-90715862D01*
X79009447Y-88863896D01*
X79008323Y-88489209D01*
X79216634Y-88489209D01*
X79272561Y-88648003D01*
X79404703Y-88852661D01*
X79632927Y-89147941D01*
X79803777Y-89355639D01*
X80357945Y-89943856D01*
X80920041Y-90420711D01*
X81457499Y-90757476D01*
X81767258Y-90875743D01*
X82316689Y-90968900D01*
X82904306Y-90955880D01*
X83465047Y-90834198D01*
X83478282Y-90829668D01*
X83551535Y-90781486D01*
X83465047Y-90707969D01*
X83400527Y-90656960D01*
X83385117Y-90560513D01*
X83468894Y-90382236D01*
X83536076Y-90285064D01*
X83743749Y-90127338D01*
X84084365Y-89999580D01*
X84432286Y-89857028D01*
X84701014Y-89664101D01*
X84816497Y-89504218D01*
X87728450Y-89504218D01*
X87811107Y-89525571D01*
X88012807Y-89555664D01*
X88289517Y-89586506D01*
X88715327Y-89618687D01*
X89126842Y-89636150D01*
X89458710Y-89656211D01*
X89809426Y-89703628D01*
X90062632Y-89766612D01*
X90088449Y-89776380D01*
X90345968Y-89875918D01*
X90545147Y-89956091D01*
X90611036Y-89979941D01*
X90676874Y-89973710D01*
X90633730Y-89902069D01*
X90505497Y-89793982D01*
X90316067Y-89678408D01*
X90283583Y-89661114D01*
X90129554Y-89559456D01*
X90090275Y-89494579D01*
X90124056Y-89490492D01*
X90280025Y-89537462D01*
X90508246Y-89641052D01*
X90592331Y-89682706D01*
X90819473Y-89776089D01*
X90914962Y-89782556D01*
X90868040Y-89707749D01*
X90667947Y-89557310D01*
X90645511Y-89542354D01*
X90489411Y-89431712D01*
X90476125Y-89397044D01*
X90597369Y-89422525D01*
X90758174Y-89478911D01*
X90904842Y-89561947D01*
X90946426Y-89597270D01*
X91061927Y-89629814D01*
X91102398Y-89502420D01*
X91057575Y-89408356D01*
X90889960Y-89256721D01*
X90647730Y-89103121D01*
X90383968Y-88980072D01*
X90151755Y-88920090D01*
X90150219Y-88919957D01*
X89974249Y-88914589D01*
X89664157Y-88914350D01*
X89263270Y-88918979D01*
X88814913Y-88928211D01*
X88411802Y-88940071D01*
X88120552Y-88954263D01*
X87986613Y-88970867D01*
X87998942Y-88991353D01*
X88146492Y-89017193D01*
X88592106Y-89078313D01*
X88235614Y-89101198D01*
X88181660Y-89104776D01*
X88002124Y-89123120D01*
X87981053Y-89149460D01*
X88101930Y-89195438D01*
X88123725Y-89202453D01*
X88239175Y-89246959D01*
X88240547Y-89247488D01*
X88208392Y-89272323D01*
X88012807Y-89292737D01*
X87958067Y-89303414D01*
X88021253Y-89324034D01*
X88224972Y-89348551D01*
X88547544Y-89373684D01*
X89394211Y-89428688D01*
X88458421Y-89458296D01*
X88333323Y-89462314D01*
X87975699Y-89475618D01*
X87778695Y-89488576D01*
X87728450Y-89504218D01*
X84816497Y-89504218D01*
X84854794Y-89451196D01*
X84863950Y-89246959D01*
X84783406Y-89144267D01*
X84620443Y-89121549D01*
X84357485Y-89195957D01*
X83971932Y-89370624D01*
X83919873Y-89396536D01*
X83690309Y-89505501D01*
X83510775Y-89560208D01*
X83340986Y-89552700D01*
X83140651Y-89475015D01*
X83048172Y-89421874D01*
X83368379Y-89421874D01*
X83388265Y-89458868D01*
X83550025Y-89412960D01*
X83830813Y-89255800D01*
X84196854Y-89000609D01*
X84626141Y-88661563D01*
X84775315Y-88538020D01*
X84968238Y-88386237D01*
X85148003Y-88268672D01*
X85338535Y-88180956D01*
X85563759Y-88118719D01*
X85847601Y-88077594D01*
X86213986Y-88053212D01*
X86686838Y-88041205D01*
X87290084Y-88037205D01*
X88047649Y-88036842D01*
X90497659Y-88036842D01*
X91170492Y-88660702D01*
X91375315Y-88846589D01*
X91638604Y-89072617D01*
X91836994Y-89227253D01*
X91938556Y-89284561D01*
X91949991Y-89283607D01*
X92095165Y-89215479D01*
X92298099Y-89070679D01*
X92507077Y-88892796D01*
X92670387Y-88725419D01*
X92736316Y-88612137D01*
X92756712Y-88537932D01*
X92869019Y-88394148D01*
X92934489Y-88317418D01*
X92949217Y-88199060D01*
X92953282Y-88117301D01*
X93061602Y-87989185D01*
X93143902Y-87905953D01*
X93120348Y-87861431D01*
X93088995Y-87864089D01*
X92959419Y-87947240D01*
X92882649Y-88024454D01*
X92709072Y-88137037D01*
X92693470Y-88145005D01*
X92606244Y-88176328D01*
X92633275Y-88115899D01*
X92780878Y-87947004D01*
X92892050Y-87825289D01*
X92978774Y-87721372D01*
X92950308Y-87721064D01*
X92810219Y-87807393D01*
X92682297Y-87884053D01*
X92598683Y-87903522D01*
X92592259Y-87822238D01*
X92607014Y-87760716D01*
X92688610Y-87616088D01*
X92719030Y-87600452D01*
X92691755Y-87680351D01*
X92663695Y-87744205D01*
X92694899Y-87744613D01*
X92695414Y-87744143D01*
X92771402Y-87617147D01*
X92789863Y-87478269D01*
X92739343Y-87412982D01*
X92682765Y-87434852D01*
X92558071Y-87546666D01*
X92485942Y-87619715D01*
X92376809Y-87680351D01*
X92374078Y-87679985D01*
X92271938Y-87618637D01*
X92063546Y-87467151D01*
X91777753Y-87247163D01*
X91443410Y-86980312D01*
X90580325Y-86280273D01*
X89700435Y-86226668D01*
X89246244Y-86188116D01*
X88838209Y-86119164D01*
X88595643Y-86025701D01*
X88494101Y-85976491D01*
X88187752Y-85911357D01*
X87808665Y-85896759D01*
X87418624Y-85929283D01*
X87079408Y-86005513D01*
X86852800Y-86122035D01*
X86762940Y-86188805D01*
X86583059Y-86260253D01*
X86312059Y-86304287D01*
X85906472Y-86330482D01*
X85831079Y-86333692D01*
X85496117Y-86353751D01*
X85251487Y-86392932D01*
X85037982Y-86471841D01*
X84796395Y-86611081D01*
X84467520Y-86831258D01*
X84302368Y-86946163D01*
X84033471Y-87144748D01*
X83847752Y-87297748D01*
X83778109Y-87379021D01*
X83770508Y-87423229D01*
X83701941Y-87575527D01*
X83680146Y-87612158D01*
X83685331Y-87647726D01*
X83811154Y-87578589D01*
X83926911Y-87476122D01*
X83887323Y-87395129D01*
X83827087Y-87346583D01*
X83885618Y-87325224D01*
X83907058Y-87325551D01*
X84028770Y-87380872D01*
X84011344Y-87507653D01*
X83857427Y-87673214D01*
X83824256Y-87700197D01*
X83716496Y-87812881D01*
X83728153Y-87858596D01*
X83766201Y-87866134D01*
X83779474Y-87947719D01*
X83754757Y-88005783D01*
X83816691Y-88027989D01*
X84012216Y-87942402D01*
X84096725Y-87899611D01*
X84144021Y-87903976D01*
X84074041Y-88031525D01*
X83981745Y-88147560D01*
X83871890Y-88215088D01*
X83867253Y-88254680D01*
X83981703Y-88353301D01*
X84179030Y-88491515D01*
X83999347Y-88684383D01*
X83886931Y-88850408D01*
X83863391Y-88991203D01*
X83866048Y-89019315D01*
X83779980Y-89142429D01*
X83575928Y-89280042D01*
X83483067Y-89332778D01*
X83368379Y-89421874D01*
X83048172Y-89421874D01*
X82869483Y-89319194D01*
X82487193Y-89077276D01*
X82282636Y-88947219D01*
X81639122Y-88542549D01*
X81070029Y-88191608D01*
X80590253Y-87903247D01*
X80214690Y-87686314D01*
X79958237Y-87549660D01*
X79835790Y-87502133D01*
X79808031Y-87510526D01*
X79746398Y-87634284D01*
X79725731Y-87868670D01*
X79747202Y-88165638D01*
X79811985Y-88477142D01*
X79833967Y-88556928D01*
X79871891Y-88757734D01*
X79838163Y-88796239D01*
X79733683Y-88672763D01*
X79559355Y-88387627D01*
X79292107Y-87919693D01*
X79231388Y-88243353D01*
X79217055Y-88331524D01*
X79216634Y-88489209D01*
X79008323Y-88489209D01*
X79007877Y-88340624D01*
X79002068Y-87826842D01*
X78989979Y-87441579D01*
X78969462Y-87157240D01*
X78938370Y-86946234D01*
X78894554Y-86780968D01*
X78835868Y-86633849D01*
X78804213Y-86554373D01*
X78716799Y-86280005D01*
X78611679Y-85899394D01*
X78498136Y-85452267D01*
X78385457Y-84978354D01*
X78282924Y-84517385D01*
X78199824Y-84109088D01*
X78145441Y-83793192D01*
X78129060Y-83609425D01*
X78131375Y-83579394D01*
X78156259Y-83539758D01*
X78209299Y-83669824D01*
X78225380Y-83711718D01*
X78258199Y-83711322D01*
X78279157Y-83547543D01*
X78289538Y-83213070D01*
X78289805Y-83194203D01*
X78302677Y-82818029D01*
X78326700Y-82476391D01*
X78356895Y-82241142D01*
X78363543Y-82206417D01*
X78376245Y-82028292D01*
X78319327Y-82008132D01*
X78262030Y-82118857D01*
X78202583Y-82356305D01*
X78154597Y-82668130D01*
X78085909Y-83268772D01*
X77973467Y-82689473D01*
X77951226Y-82558775D01*
X77902734Y-82192793D01*
X77851642Y-81719699D01*
X77802806Y-81186362D01*
X77761082Y-80639649D01*
X77747077Y-80440891D01*
X77694418Y-79823592D01*
X77636337Y-79352841D01*
X77569257Y-79003779D01*
X77489605Y-78751548D01*
X77434244Y-78607501D01*
X77352439Y-78346728D01*
X77321982Y-78172250D01*
X77328728Y-78139856D01*
X77374718Y-78181890D01*
X77449001Y-78355895D01*
X77505095Y-78503134D01*
X77616114Y-78730916D01*
X77699542Y-78819704D01*
X77742322Y-78760738D01*
X77731392Y-78545263D01*
X77714421Y-78402647D01*
X77683865Y-78075647D01*
X77651532Y-77664453D01*
X77622096Y-77225500D01*
X77563438Y-76262229D01*
X77351632Y-76461211D01*
X77139825Y-76660193D01*
X77139825Y-74612658D01*
X77140301Y-74307776D01*
X77146098Y-73642286D01*
X77158980Y-73137306D01*
X77179575Y-72780148D01*
X77208511Y-72558120D01*
X77246416Y-72458531D01*
X77277027Y-72397061D01*
X77309405Y-72206119D01*
X77312278Y-72158159D01*
X77519863Y-72158159D01*
X77538427Y-73345520D01*
X77607320Y-74378910D01*
X77726220Y-75252560D01*
X77894801Y-75960702D01*
X77935807Y-76094126D01*
X78002654Y-76326299D01*
X78053907Y-76543600D01*
X78092005Y-76773618D01*
X78119387Y-77043939D01*
X78138492Y-77382150D01*
X78151757Y-77815839D01*
X78161622Y-78372593D01*
X78170525Y-79080000D01*
X78177377Y-79652973D01*
X78184552Y-80221842D01*
X78191078Y-80707865D01*
X78196621Y-81087195D01*
X78200847Y-81335984D01*
X78203422Y-81430386D01*
X78238300Y-81424874D01*
X78357187Y-81341263D01*
X78388542Y-81317263D01*
X78440111Y-81302506D01*
X78469133Y-81361859D01*
X78478178Y-81521250D01*
X78469814Y-81806608D01*
X78446610Y-82243859D01*
X78434274Y-82520647D01*
X78429095Y-83240891D01*
X78456961Y-83977166D01*
X78514377Y-84681157D01*
X78597847Y-85304551D01*
X78703875Y-85799035D01*
X78715333Y-85838986D01*
X78888859Y-86283538D01*
X79141477Y-86656120D01*
X79504773Y-86993835D01*
X80010332Y-87333790D01*
X80140903Y-87412108D01*
X80481026Y-87611414D01*
X80681568Y-87718171D01*
X80750606Y-87735149D01*
X80696221Y-87665120D01*
X80526492Y-87510856D01*
X80390676Y-87385272D01*
X80294763Y-87264710D01*
X80336767Y-87239856D01*
X80517086Y-87318826D01*
X80531610Y-87326440D01*
X80642814Y-87350227D01*
X80661580Y-87231518D01*
X80643595Y-87131118D01*
X80573434Y-86991464D01*
X80543532Y-86976324D01*
X80571053Y-87056491D01*
X80599113Y-87120345D01*
X80567908Y-87120754D01*
X80560835Y-87113833D01*
X80493759Y-86992362D01*
X80465622Y-86854664D01*
X80495675Y-86789123D01*
X80567986Y-86812472D01*
X80732877Y-86889797D01*
X80745271Y-86896140D01*
X80833756Y-86928302D01*
X80807477Y-86868370D01*
X80660176Y-86700000D01*
X80622356Y-86658704D01*
X80496436Y-86511398D01*
X80488896Y-86468901D01*
X80593334Y-86513339D01*
X80729811Y-86565684D01*
X80793860Y-86524890D01*
X80791690Y-86501567D01*
X80727018Y-86431507D01*
X80716579Y-86430241D01*
X80586826Y-86343543D01*
X80403233Y-86151143D01*
X80198278Y-85895901D01*
X80157626Y-85838181D01*
X80539253Y-85838181D01*
X80571923Y-85904503D01*
X80737782Y-86079708D01*
X81035135Y-86361908D01*
X81462281Y-86749213D01*
X81528821Y-86808697D01*
X81863169Y-87108152D01*
X82150894Y-87366736D01*
X82363196Y-87558521D01*
X82471279Y-87657583D01*
X82544060Y-87713041D01*
X82694086Y-87767099D01*
X82733053Y-87752769D01*
X82902948Y-87654792D01*
X83174721Y-87479381D01*
X83520687Y-87244668D01*
X83913158Y-86968783D01*
X85027193Y-86172843D01*
X85722919Y-86169053D01*
X85904078Y-86167326D01*
X86197520Y-86153941D01*
X86387041Y-86115693D01*
X86523738Y-86038300D01*
X86658708Y-85907479D01*
X86691297Y-85872817D01*
X86805687Y-85766808D01*
X86930896Y-85700148D01*
X87108780Y-85662782D01*
X87381197Y-85644654D01*
X87790000Y-85635709D01*
X87889991Y-85634198D01*
X88263512Y-85632033D01*
X88502393Y-85643200D01*
X88642548Y-85674695D01*
X88719896Y-85733514D01*
X88770351Y-85826651D01*
X88772421Y-85831377D01*
X88827117Y-85924005D01*
X88917039Y-85985746D01*
X89077920Y-86025648D01*
X89345498Y-86052763D01*
X89755506Y-86076140D01*
X90651539Y-86120702D01*
X91461222Y-86766842D01*
X91766720Y-87005481D01*
X92051119Y-87216980D01*
X92259838Y-87360259D01*
X92361749Y-87412982D01*
X92436075Y-87375551D01*
X92515894Y-87318579D01*
X97655766Y-87318579D01*
X97740956Y-87442123D01*
X97931749Y-87660054D01*
X98169296Y-87905953D01*
X98224618Y-87963220D01*
X98547084Y-88265261D01*
X98911502Y-88545814D01*
X99316597Y-88784496D01*
X99807020Y-89007179D01*
X100427417Y-89239740D01*
X100798288Y-89378187D01*
X101011248Y-89474375D01*
X101061907Y-89521149D01*
X100955770Y-89514827D01*
X100698341Y-89451731D01*
X100295126Y-89328179D01*
X100109795Y-89265772D01*
X99457600Y-89005402D01*
X98925322Y-88713423D01*
X98466207Y-88365220D01*
X98403659Y-88310748D01*
X98252501Y-88189173D01*
X98207539Y-88182453D01*
X98251146Y-88283926D01*
X98403991Y-88492548D01*
X98729201Y-88786660D01*
X99159181Y-89078553D01*
X99655086Y-89342637D01*
X100178071Y-89553321D01*
X100366557Y-89617870D01*
X100709348Y-89742710D01*
X100973661Y-89848764D01*
X101113860Y-89918236D01*
X101138257Y-89935938D01*
X101196852Y-89990398D01*
X101100605Y-89967650D01*
X100980004Y-89936082D01*
X100723655Y-89878462D01*
X100410665Y-89814113D01*
X100082541Y-89728129D01*
X99657576Y-89579529D01*
X99265324Y-89409009D01*
X99112666Y-89333737D01*
X98883336Y-89224896D01*
X98787912Y-89191892D01*
X98809286Y-89231153D01*
X98930351Y-89339111D01*
X99086884Y-89458209D01*
X99158485Y-89502420D01*
X99399166Y-89651033D01*
X99739346Y-89823800D01*
X100049973Y-89948388D01*
X100273598Y-89996673D01*
X100442209Y-90019127D01*
X100719610Y-90089477D01*
X101019772Y-90186792D01*
X101277047Y-90289468D01*
X101425790Y-90375898D01*
X101450556Y-90425744D01*
X101336667Y-90410084D01*
X101290395Y-90397966D01*
X101070305Y-90350467D01*
X100746740Y-90287786D01*
X100371844Y-90220188D01*
X100259154Y-90199461D01*
X99848778Y-90107601D01*
X99477171Y-90002049D01*
X99213247Y-89901747D01*
X98841228Y-89720095D01*
X99064035Y-89901889D01*
X99432368Y-90123770D01*
X99957608Y-90305742D01*
X100645205Y-90446560D01*
X100898347Y-90495235D01*
X101302267Y-90613265D01*
X101593720Y-90753841D01*
X101896854Y-90959553D01*
X101914452Y-90941622D01*
X102207508Y-90941622D01*
X102233607Y-90942797D01*
X102386834Y-90821653D01*
X102665759Y-90577520D01*
X102878300Y-90402261D01*
X103261775Y-90128020D01*
X103630109Y-89904520D01*
X103634944Y-89901940D01*
X103891669Y-89755548D01*
X104062986Y-89639726D01*
X104112034Y-89579344D01*
X104090075Y-89570009D01*
X103942967Y-89606052D01*
X103705000Y-89722782D01*
X103412926Y-89897230D01*
X103103494Y-90106425D01*
X103009903Y-90177730D01*
X102813456Y-90327399D01*
X102579561Y-90537180D01*
X102542413Y-90574992D01*
X102309967Y-90818798D01*
X102207508Y-90941622D01*
X101914452Y-90941622D01*
X102280504Y-90568642D01*
X102664155Y-90177730D01*
X102401464Y-89903395D01*
X102188878Y-89722607D01*
X101740221Y-89453104D01*
X101126874Y-89172820D01*
X100356316Y-88885478D01*
X99689367Y-88626336D01*
X98817622Y-88169061D01*
X98096350Y-87630252D01*
X98069076Y-87605818D01*
X97816300Y-87391273D01*
X97679706Y-87298578D01*
X97655766Y-87318579D01*
X92515894Y-87318579D01*
X92623273Y-87241936D01*
X92777950Y-87120125D01*
X102781414Y-87120125D01*
X102864036Y-87258684D01*
X103045834Y-87511557D01*
X103157816Y-87657791D01*
X103343853Y-87867114D01*
X103564206Y-88065916D01*
X103849413Y-88278172D01*
X104230012Y-88527857D01*
X104736540Y-88838947D01*
X105022923Y-89011238D01*
X105202993Y-89111018D01*
X105320119Y-89153422D01*
X105419846Y-89154899D01*
X105547720Y-89131897D01*
X105611215Y-89117670D01*
X105733325Y-89048254D01*
X105682756Y-88948917D01*
X105458597Y-88816443D01*
X105221438Y-88701710D01*
X104824949Y-88506619D01*
X104548785Y-88363488D01*
X104364890Y-88256568D01*
X104245212Y-88170110D01*
X104161696Y-88088364D01*
X104160914Y-88087479D01*
X104085485Y-87983584D01*
X104134677Y-87990207D01*
X104169398Y-88007998D01*
X104227847Y-87987551D01*
X104213728Y-87826501D01*
X104199298Y-87740564D01*
X104208538Y-87648141D01*
X104289929Y-87690484D01*
X104352945Y-87724278D01*
X104409244Y-87672807D01*
X104406400Y-87521390D01*
X104347991Y-87311463D01*
X104237594Y-87084460D01*
X104115394Y-86910347D01*
X103929483Y-86742176D01*
X103665468Y-86607298D01*
X103274434Y-86474750D01*
X103011942Y-86405349D01*
X102850543Y-86385555D01*
X102832358Y-86422335D01*
X102970856Y-86513950D01*
X103090166Y-86588437D01*
X103293937Y-86753861D01*
X103351335Y-86814420D01*
X103386842Y-86912544D01*
X103278606Y-87016573D01*
X103140213Y-87077591D01*
X102905979Y-87082983D01*
X102877929Y-87076359D01*
X102789025Y-87068483D01*
X102781414Y-87120125D01*
X92777950Y-87120125D01*
X92887065Y-87034195D01*
X93196033Y-86776303D01*
X93451885Y-86557319D01*
X93710005Y-86336702D01*
X93889741Y-86183450D01*
X93962615Y-86121875D01*
X93965744Y-86079458D01*
X93940509Y-85898544D01*
X93887014Y-85615981D01*
X93814913Y-85275112D01*
X93733861Y-84919279D01*
X93653509Y-84591824D01*
X93583514Y-84336089D01*
X93533527Y-84195416D01*
X93533014Y-84194458D01*
X93478384Y-84108745D01*
X93414150Y-84076437D01*
X93316757Y-84111789D01*
X93162648Y-84229056D01*
X92928268Y-84442492D01*
X92590061Y-84766352D01*
X92042753Y-85294201D01*
X91531130Y-84614449D01*
X91237049Y-84250488D01*
X90978723Y-83991439D01*
X90789305Y-83876920D01*
X90716283Y-83868986D01*
X90470994Y-83861836D01*
X90085197Y-83860709D01*
X89581752Y-83865357D01*
X88983521Y-83875534D01*
X88313363Y-83890993D01*
X87594139Y-83911485D01*
X86822941Y-83935243D01*
X86132281Y-83958313D01*
X85581574Y-83982826D01*
X85150898Y-84013395D01*
X84820333Y-84054630D01*
X84569959Y-84111144D01*
X84379855Y-84187546D01*
X84230100Y-84288449D01*
X84100775Y-84418463D01*
X83971959Y-84582200D01*
X83823731Y-84784271D01*
X83623563Y-85029886D01*
X83443440Y-85206602D01*
X83324001Y-85274035D01*
X83259848Y-85251232D01*
X83072657Y-85132865D01*
X82811904Y-84936256D01*
X82513179Y-84687166D01*
X82203839Y-84421863D01*
X81962843Y-84249209D01*
X81793742Y-84208885D01*
X81663776Y-84308913D01*
X81540187Y-84557313D01*
X81390214Y-84962105D01*
X81241410Y-85378522D01*
X81120885Y-85707752D01*
X81034976Y-85912867D01*
X80968688Y-86016406D01*
X80907022Y-86040909D01*
X80834980Y-86008915D01*
X80737566Y-85942964D01*
X80641471Y-85882632D01*
X80539253Y-85838181D01*
X80157626Y-85838181D01*
X80004440Y-85620681D01*
X79854197Y-85368343D01*
X79780026Y-85181749D01*
X79754754Y-85023909D01*
X79761939Y-84964352D01*
X79817688Y-85051228D01*
X79890320Y-85151504D01*
X80054987Y-85313633D01*
X80247373Y-85466189D01*
X80416597Y-85569984D01*
X80511776Y-85585827D01*
X80511978Y-85558117D01*
X80443053Y-85422240D01*
X80304084Y-85222076D01*
X80222339Y-85113725D01*
X80130599Y-84975737D01*
X80140956Y-84933668D01*
X80247095Y-84958287D01*
X80283552Y-84968692D01*
X80415410Y-84958690D01*
X80414712Y-84830145D01*
X80281404Y-84583644D01*
X80262237Y-84553488D01*
X80202404Y-84428443D01*
X80236842Y-84413794D01*
X80290151Y-84437251D01*
X80348246Y-84405891D01*
X80332359Y-84349496D01*
X80236842Y-84209311D01*
X80232477Y-84204598D01*
X80170019Y-84125461D01*
X80236842Y-84152185D01*
X80243353Y-84155776D01*
X80335669Y-84166986D01*
X80326235Y-84066891D01*
X80217396Y-83887385D01*
X80111547Y-83725290D01*
X80103008Y-83626992D01*
X80229182Y-83643205D01*
X80326745Y-83661327D01*
X80300243Y-83575133D01*
X80267963Y-83513511D01*
X80208000Y-83314900D01*
X80189437Y-83218268D01*
X80121793Y-83009064D01*
X80121675Y-83008781D01*
X80091498Y-82891797D01*
X80163747Y-82908415D01*
X80189381Y-82923291D01*
X80233039Y-82918870D01*
X80175756Y-82789351D01*
X80126587Y-82663917D01*
X80164068Y-82600351D01*
X80203999Y-82575409D01*
X80196619Y-82452046D01*
X80177503Y-82358490D01*
X80253526Y-82374084D01*
X80269239Y-82383226D01*
X80330970Y-82377956D01*
X80308522Y-82232740D01*
X80249702Y-82021052D01*
X80432658Y-82231452D01*
X80447390Y-82248141D01*
X80566680Y-82360494D01*
X80615614Y-82363722D01*
X80601464Y-82315515D01*
X80515262Y-82136160D01*
X80452473Y-82021052D01*
X80615614Y-82021052D01*
X80660176Y-82065614D01*
X80704737Y-82021052D01*
X80660176Y-81976491D01*
X80615614Y-82021052D01*
X80452473Y-82021052D01*
X80372855Y-81875093D01*
X80199931Y-81576232D01*
X80022176Y-81283498D01*
X79865277Y-81040809D01*
X79754921Y-80892086D01*
X79681571Y-80763115D01*
X79652191Y-80535595D01*
X79654795Y-80520156D01*
X79688094Y-80458749D01*
X79756067Y-80506334D01*
X79873517Y-80679825D01*
X80055249Y-80996140D01*
X80107042Y-81089070D01*
X80324478Y-81473292D01*
X80459429Y-81699661D01*
X80511856Y-81768166D01*
X80481716Y-81678795D01*
X80368970Y-81431540D01*
X80173577Y-81026390D01*
X79958485Y-80583002D01*
X79696257Y-80034338D01*
X79435203Y-79480559D01*
X79186175Y-78945352D01*
X78960027Y-78452402D01*
X78767612Y-78025395D01*
X78619783Y-77688017D01*
X78527394Y-77463952D01*
X78501299Y-77376888D01*
X78509572Y-77381084D01*
X78598527Y-77480307D01*
X78768887Y-77691467D01*
X79002338Y-77990549D01*
X79280561Y-78353538D01*
X79585239Y-78756420D01*
X79898054Y-79175180D01*
X80200691Y-79585803D01*
X80474830Y-79964275D01*
X80491579Y-79987722D01*
X80590997Y-80133399D01*
X80594408Y-80160181D01*
X80494456Y-80063189D01*
X80283787Y-79837544D01*
X80242258Y-79792892D01*
X80025493Y-79575203D01*
X79860237Y-79434098D01*
X79779479Y-79398308D01*
X79784708Y-79445707D01*
X79861046Y-79635537D01*
X80012383Y-79953953D01*
X80230710Y-80385248D01*
X80508017Y-80913710D01*
X80836294Y-81523630D01*
X81109597Y-82021052D01*
X81207532Y-82199298D01*
X81310155Y-82370274D01*
X81418563Y-82498951D01*
X81476309Y-82494354D01*
X81487177Y-82377828D01*
X81454950Y-82170722D01*
X81383412Y-81894382D01*
X81276347Y-81570154D01*
X81137537Y-81219386D01*
X80970766Y-80863425D01*
X80932207Y-80787240D01*
X80825320Y-80559564D01*
X80808186Y-80481637D01*
X80879953Y-80550526D01*
X80886576Y-80558627D01*
X81286028Y-81187444D01*
X81564019Y-81940810D01*
X81717295Y-82809954D01*
X81805218Y-83714386D01*
X82409249Y-84183418D01*
X82509708Y-84260742D01*
X82791055Y-84470032D01*
X83015787Y-84626893D01*
X83142485Y-84702031D01*
X83194396Y-84715113D01*
X83262413Y-84696594D01*
X83349465Y-84617469D01*
X83474651Y-84455252D01*
X83657071Y-84187458D01*
X83915823Y-83791603D01*
X84270541Y-83244961D01*
X87518179Y-83179133D01*
X88242483Y-83165932D01*
X88947317Y-83156083D01*
X89581844Y-83150249D01*
X90124485Y-83148497D01*
X90553664Y-83150894D01*
X90847805Y-83157505D01*
X90985330Y-83168399D01*
X91104270Y-83229906D01*
X91322648Y-83456374D01*
X91590031Y-83847712D01*
X91649752Y-83942971D01*
X91830571Y-84212789D01*
X91974780Y-84401132D01*
X92055483Y-84471930D01*
X92073271Y-84466899D01*
X92207745Y-84384086D01*
X92428580Y-84220666D01*
X92698144Y-84004035D01*
X92911981Y-83823675D01*
X93107063Y-83639702D01*
X93212086Y-83490735D01*
X93255510Y-83332480D01*
X93265797Y-83120647D01*
X93269987Y-83015091D01*
X93745208Y-83015091D01*
X93758521Y-83004875D01*
X93843524Y-82881281D01*
X93991801Y-82639968D01*
X94187371Y-82307338D01*
X94414254Y-81909792D01*
X94526283Y-81712996D01*
X94734661Y-81359492D01*
X94901895Y-81092718D01*
X95013130Y-80935860D01*
X95053509Y-80912101D01*
X95046021Y-80963917D01*
X94995704Y-81168266D01*
X94909428Y-81473975D01*
X94800650Y-81836681D01*
X94682826Y-82212021D01*
X94569411Y-82555635D01*
X94473860Y-82823158D01*
X94405670Y-83001403D01*
X94551863Y-82823158D01*
X94553895Y-82820681D01*
X94647509Y-82713483D01*
X94658888Y-82738396D01*
X94596469Y-82912281D01*
X94586832Y-82938856D01*
X94511805Y-83225337D01*
X94464722Y-83536140D01*
X94454410Y-83655609D01*
X94423004Y-84005531D01*
X94389916Y-84360526D01*
X94377647Y-84543160D01*
X94381429Y-84750555D01*
X94409740Y-84833287D01*
X94688479Y-84852649D01*
X94985841Y-84862102D01*
X95176857Y-84842872D01*
X95304046Y-84789074D01*
X95409922Y-84694820D01*
X95531956Y-84536892D01*
X95588246Y-84402141D01*
X95605421Y-84357430D01*
X95716289Y-84348413D01*
X95788732Y-84342203D01*
X95882131Y-84213530D01*
X95983657Y-83928387D01*
X96061656Y-83636460D01*
X96117341Y-83306911D01*
X96103688Y-83108412D01*
X96022336Y-83052679D01*
X95874924Y-83151427D01*
X95816669Y-83199761D01*
X95737551Y-83218269D01*
X95731252Y-83169624D01*
X95733270Y-82974186D01*
X95747788Y-82667209D01*
X95773279Y-82288421D01*
X95784270Y-82142683D01*
X95819042Y-81674739D01*
X95860439Y-81110495D01*
X95904189Y-80508341D01*
X95946023Y-79926666D01*
X95969073Y-79616812D01*
X96010954Y-79105365D01*
X96035093Y-78842810D01*
X96488731Y-78842810D01*
X96491520Y-79173135D01*
X96499252Y-79398009D01*
X96511148Y-79481052D01*
X96519370Y-79476565D01*
X96552084Y-79361805D01*
X96577626Y-79127986D01*
X96594112Y-78823300D01*
X96599657Y-78495940D01*
X96592377Y-78194098D01*
X96570388Y-77965965D01*
X96549307Y-77856703D01*
X96525201Y-77800063D01*
X96508589Y-77883822D01*
X96497667Y-78120591D01*
X96490629Y-78522982D01*
X96488731Y-78842810D01*
X96035093Y-78842810D01*
X96052754Y-78650717D01*
X96090665Y-78293227D01*
X96120880Y-78073252D01*
X96139655Y-77961461D01*
X96159457Y-77783907D01*
X96147736Y-77733258D01*
X96110788Y-77796192D01*
X96008268Y-78001334D01*
X95853611Y-78324706D01*
X95657424Y-78742987D01*
X95430316Y-79232854D01*
X95182895Y-79770988D01*
X94925768Y-80334067D01*
X94669544Y-80898769D01*
X94424831Y-81441774D01*
X94202237Y-81939760D01*
X94012369Y-82369406D01*
X93865837Y-82707390D01*
X93773247Y-82930392D01*
X93745208Y-83015091D01*
X93269987Y-83015091D01*
X93272576Y-82949876D01*
X93333430Y-82418533D01*
X93443877Y-81844157D01*
X93588099Y-81300504D01*
X93750281Y-80861328D01*
X93784850Y-80787442D01*
X93972637Y-80430108D01*
X94216777Y-80032487D01*
X94532949Y-79571491D01*
X94936831Y-79024031D01*
X95444104Y-78367017D01*
X95739975Y-77978961D01*
X96140262Y-77395247D01*
X96426909Y-76874648D01*
X96614070Y-76384542D01*
X96715902Y-75892306D01*
X96746558Y-75365318D01*
X96746173Y-75308592D01*
X96724628Y-74833160D01*
X96676642Y-74302690D01*
X96611374Y-73821754D01*
X96610285Y-73815280D01*
X96528722Y-73320333D01*
X96466951Y-72984318D01*
X96407273Y-72792120D01*
X96331988Y-72728624D01*
X96223395Y-72778716D01*
X96063795Y-72927280D01*
X95835486Y-73159202D01*
X95824368Y-73170301D01*
X95580562Y-73413697D01*
X95310940Y-73670777D01*
X95074081Y-73862883D01*
X94839850Y-73999936D01*
X94578109Y-74091852D01*
X94258723Y-74148553D01*
X93851555Y-74179955D01*
X93326470Y-74195977D01*
X92653331Y-74206539D01*
X92191287Y-74211465D01*
X91537923Y-74210121D01*
X91026587Y-74197362D01*
X90669252Y-74173559D01*
X90477892Y-74139085D01*
X90279591Y-74007494D01*
X90089582Y-73695903D01*
X89953105Y-73348468D01*
X87586922Y-73370369D01*
X85220739Y-73392271D01*
X85190081Y-73607012D01*
X85171590Y-73690980D01*
X85074252Y-73863108D01*
X84887234Y-74002896D01*
X84592830Y-74116087D01*
X84173334Y-74208422D01*
X83611042Y-74285643D01*
X82888246Y-74353492D01*
X82264386Y-74403679D01*
X82710000Y-74253421D01*
X82887741Y-74187527D01*
X83024777Y-74110841D01*
X82995819Y-74066589D01*
X82841501Y-74016274D01*
X82615785Y-73915755D01*
X82533445Y-73866196D01*
X82521099Y-73823553D01*
X82616092Y-73786618D01*
X82841699Y-73746946D01*
X83221194Y-73696093D01*
X83393961Y-73674806D01*
X83777310Y-73632833D01*
X84095141Y-73604916D01*
X84291930Y-73596236D01*
X84305589Y-73596488D01*
X84502243Y-73576844D01*
X84550546Y-73519324D01*
X84471468Y-73437866D01*
X84285984Y-73346411D01*
X84015065Y-73258900D01*
X83679685Y-73189274D01*
X83592973Y-73175403D01*
X83400795Y-73136087D01*
X83364387Y-73103078D01*
X83467065Y-73066763D01*
X83519619Y-73036615D01*
X83440607Y-72990850D01*
X83427937Y-72987616D01*
X84314211Y-72987616D01*
X84492456Y-73064210D01*
X84614638Y-73104920D01*
X84848948Y-73140805D01*
X85027193Y-73140805D01*
X84848948Y-73064210D01*
X84726766Y-73023501D01*
X84492456Y-72987616D01*
X84314211Y-72987616D01*
X83427937Y-72987616D01*
X83203424Y-72930311D01*
X82798644Y-72851969D01*
X82744210Y-72842396D01*
X82397728Y-72788480D01*
X82019352Y-72738959D01*
X81638903Y-72696383D01*
X81286202Y-72663299D01*
X80991070Y-72642256D01*
X80783328Y-72635802D01*
X80692797Y-72646485D01*
X80749299Y-72676853D01*
X80883621Y-72729273D01*
X80957123Y-72770368D01*
X81103339Y-72852117D01*
X81142078Y-72879836D01*
X81203188Y-72943225D01*
X81134842Y-72969740D01*
X80912687Y-72975088D01*
X80655515Y-73000888D01*
X80379801Y-73109974D01*
X80222063Y-73284142D01*
X80211832Y-73501224D01*
X80291003Y-73638867D01*
X80445961Y-73660000D01*
X80545065Y-73649402D01*
X80615614Y-73696414D01*
X80616409Y-73702433D01*
X80707962Y-73758717D01*
X80905263Y-73787531D01*
X80949178Y-73789687D01*
X81069867Y-73809659D01*
X81037857Y-73838838D01*
X80958674Y-73876022D01*
X80931713Y-73962183D01*
X80942924Y-73995836D01*
X80873389Y-74044561D01*
X80796900Y-74059357D01*
X80841611Y-74111260D01*
X81018244Y-74189084D01*
X81304873Y-74280824D01*
X81729649Y-74401143D01*
X81147919Y-74375857D01*
X80617366Y-74293373D01*
X79984114Y-74073817D01*
X79338670Y-73737274D01*
X78740249Y-73314512D01*
X79920602Y-73314512D01*
X79954397Y-73359348D01*
X80018358Y-73292068D01*
X80088447Y-73139911D01*
X80143595Y-72950227D01*
X80162730Y-72770368D01*
X80150658Y-72675936D01*
X80109752Y-72697339D01*
X80024525Y-72874139D01*
X80010898Y-72906491D01*
X79936474Y-73142613D01*
X79920602Y-73314512D01*
X78740249Y-73314512D01*
X78722981Y-73302313D01*
X78213807Y-72887586D01*
X78073025Y-73371858D01*
X78014531Y-73593877D01*
X77921955Y-74015823D01*
X77851807Y-74418241D01*
X77771371Y-74980351D01*
X77811058Y-74311930D01*
X77832786Y-74087919D01*
X77902541Y-73641055D01*
X78003811Y-73142114D01*
X78122963Y-72663158D01*
X78237890Y-72218435D01*
X78340948Y-71700360D01*
X78407130Y-71161514D01*
X78448373Y-70523397D01*
X78456322Y-70259595D01*
X78458576Y-69713836D01*
X78449115Y-69056290D01*
X78429525Y-68327665D01*
X78401388Y-67568669D01*
X78366290Y-66820012D01*
X78325816Y-66122402D01*
X78281548Y-65516548D01*
X78235073Y-65043158D01*
X78176476Y-64552982D01*
X78101798Y-64954035D01*
X78061481Y-65190875D01*
X77985139Y-65729519D01*
X77905350Y-66390872D01*
X77825585Y-67139594D01*
X77749319Y-67940346D01*
X77680025Y-68757791D01*
X77621175Y-69556590D01*
X77576243Y-70301403D01*
X77551955Y-70822593D01*
X77519863Y-72158159D01*
X77312278Y-72158159D01*
X77328886Y-71880947D01*
X77336208Y-71406981D01*
X77332112Y-70769654D01*
X77329313Y-70428658D01*
X77335726Y-69778082D01*
X77360759Y-69145617D01*
X77407488Y-68499186D01*
X77478990Y-67806712D01*
X77578344Y-67036121D01*
X77708624Y-66155336D01*
X77872910Y-65132281D01*
X78159676Y-63394386D01*
X78652382Y-62898585D01*
X78881855Y-62684932D01*
X79201847Y-62417550D01*
X79555443Y-62144250D01*
X79908798Y-61889351D01*
X80228070Y-61677172D01*
X80479416Y-61532030D01*
X80628994Y-61478245D01*
X80641376Y-61477117D01*
X80785999Y-61406123D01*
X80968811Y-61258595D01*
X81161113Y-61120946D01*
X81499872Y-60938267D01*
X81940393Y-60734151D01*
X82446785Y-60523477D01*
X82983158Y-60321128D01*
X83513620Y-60141982D01*
X83702152Y-60087558D01*
X86254489Y-60087558D01*
X86255869Y-60117982D01*
X86371462Y-60134367D01*
X86459065Y-60120096D01*
X86425307Y-60080522D01*
X86373770Y-60066283D01*
X86254489Y-60087558D01*
X83702152Y-60087558D01*
X84002281Y-60000919D01*
X84627258Y-59861891D01*
X85842656Y-59693660D01*
X87137310Y-59633686D01*
X88468915Y-59684962D01*
X88608958Y-59696751D01*
X89121163Y-59747325D01*
X89600551Y-59805171D01*
X89998768Y-59864034D01*
X90267463Y-59917659D01*
X90517099Y-59989719D01*
X90883176Y-60120096D01*
X91055925Y-60181620D01*
G37*
%TD*%
M02*
