%TF.GenerationSoftware,KiCad,Pcbnew,10.0.1*%
%TF.CreationDate,2026-05-16T14:36:44+02:00*%
%TF.ProjectId,Super3DMakerSTM,53757065-7233-4444-9d61-6b657253544d,rev?*%
%TF.SameCoordinates,Original*%
%TF.FileFunction,Soldermask,Top*%
%TF.FilePolarity,Negative*%
%FSLAX46Y46*%
G04 Gerber Fmt 4.6, Leading zero omitted, Abs format (unit mm)*
G04 Created by KiCad (PCBNEW 10.0.1) date 2026-05-16 14:36:44*
%MOMM*%
%LPD*%
G01*
G04 APERTURE LIST*
G04 Aperture macros list*
%AMRoundRect*
0 Rectangle with rounded corners*
0 $1 Rounding radius*
0 $2 $3 $4 $5 $6 $7 $8 $9 X,Y pos of 4 corners*
0 Add a 4 corners polygon primitive as box body*
4,1,4,$2,$3,$4,$5,$6,$7,$8,$9,$2,$3,0*
0 Add four circle primitives for the rounded corners*
1,1,$1+$1,$2,$3*
1,1,$1+$1,$4,$5*
1,1,$1+$1,$6,$7*
1,1,$1+$1,$8,$9*
0 Add four rect primitives between the rounded corners*
20,1,$1+$1,$2,$3,$4,$5,0*
20,1,$1+$1,$4,$5,$6,$7,0*
20,1,$1+$1,$6,$7,$8,$9,0*
20,1,$1+$1,$8,$9,$2,$3,0*%
G04 Aperture macros list end*
%ADD10RoundRect,0.135000X0.185000X-0.135000X0.185000X0.135000X-0.185000X0.135000X-0.185000X-0.135000X0*%
%ADD11RoundRect,0.250000X1.500000X0.550000X-1.500000X0.550000X-1.500000X-0.550000X1.500000X-0.550000X0*%
%ADD12R,1.200000X2.200000*%
%ADD13R,2.000000X2.300000*%
%ADD14R,1.700000X1.700000*%
%ADD15C,1.700000*%
%ADD16C,3.500000*%
%ADD17RoundRect,0.250000X2.050000X0.300000X-2.050000X0.300000X-2.050000X-0.300000X2.050000X-0.300000X0*%
%ADD18RoundRect,0.250002X4.449998X5.149998X-4.449998X5.149998X-4.449998X-5.149998X4.449998X-5.149998X0*%
%ADD19RoundRect,0.140000X-0.140000X-0.170000X0.140000X-0.170000X0.140000X0.170000X-0.140000X0.170000X0*%
%ADD20RoundRect,0.250000X-0.475000X0.250000X-0.475000X-0.250000X0.475000X-0.250000X0.475000X0.250000X0*%
%ADD21RoundRect,0.102000X-0.485000X-1.510000X0.485000X-1.510000X0.485000X1.510000X-0.485000X1.510000X0*%
%ADD22RoundRect,0.102000X-2.835000X-3.160000X2.835000X-3.160000X2.835000X3.160000X-2.835000X3.160000X0*%
%ADD23C,0.800000*%
%ADD24C,6.400000*%
%ADD25RoundRect,0.250000X-1.449569X0.671751X0.671751X-1.449569X1.449569X-0.671751X-0.671751X1.449569X0*%
%ADD26RoundRect,0.250000X-1.050000X1.050000X-1.050000X-1.050000X1.050000X-1.050000X1.050000X1.050000X0*%
%ADD27C,2.600000*%
%ADD28RoundRect,0.062500X-0.117500X-0.062500X0.117500X-0.062500X0.117500X0.062500X-0.117500X0.062500X0*%
%ADD29RoundRect,0.200000X-0.275000X0.200000X-0.275000X-0.200000X0.275000X-0.200000X0.275000X0.200000X0*%
%ADD30RoundRect,0.250000X-0.620000X-0.845000X0.620000X-0.845000X0.620000X0.845000X-0.620000X0.845000X0*%
%ADD31O,1.740000X2.190000*%
%ADD32RoundRect,0.250000X-0.600000X0.600000X-0.600000X-0.600000X0.600000X-0.600000X0.600000X0.600000X0*%
%ADD33RoundRect,0.140000X-0.170000X0.140000X-0.170000X-0.140000X0.170000X-0.140000X0.170000X0.140000X0*%
%ADD34RoundRect,0.135000X-0.135000X-0.185000X0.135000X-0.185000X0.135000X0.185000X-0.135000X0.185000X0*%
%ADD35RoundRect,0.225000X0.017678X-0.335876X0.335876X-0.017678X-0.017678X0.335876X-0.335876X0.017678X0*%
%ADD36RoundRect,0.250000X0.300000X-2.050000X0.300000X2.050000X-0.300000X2.050000X-0.300000X-2.050000X0*%
%ADD37RoundRect,0.250002X5.149998X-4.449998X5.149998X4.449998X-5.149998X4.449998X-5.149998X-4.449998X0*%
%ADD38RoundRect,0.250000X0.620000X0.845000X-0.620000X0.845000X-0.620000X-0.845000X0.620000X-0.845000X0*%
%ADD39RoundRect,0.225000X0.250000X-0.225000X0.250000X0.225000X-0.250000X0.225000X-0.250000X-0.225000X0*%
%ADD40R,2.900000X5.400000*%
%ADD41RoundRect,0.140000X0.140000X0.170000X-0.140000X0.170000X-0.140000X-0.170000X0.140000X-0.170000X0*%
%ADD42R,1.000000X0.750000*%
%ADD43R,0.800000X0.800000*%
%ADD44RoundRect,0.135000X0.135000X0.185000X-0.135000X0.185000X-0.135000X-0.185000X0.135000X-0.185000X0*%
%ADD45RoundRect,0.200000X0.275000X-0.200000X0.275000X0.200000X-0.275000X0.200000X-0.275000X-0.200000X0*%
%ADD46RoundRect,0.200000X-0.200000X-0.275000X0.200000X-0.275000X0.200000X0.275000X-0.200000X0.275000X0*%
%ADD47RoundRect,0.225000X0.225000X0.250000X-0.225000X0.250000X-0.225000X-0.250000X0.225000X-0.250000X0*%
%ADD48RoundRect,0.200000X0.200000X0.275000X-0.200000X0.275000X-0.200000X-0.275000X0.200000X-0.275000X0*%
%ADD49RoundRect,0.102000X-0.754000X-0.754000X0.754000X-0.754000X0.754000X0.754000X-0.754000X0.754000X0*%
%ADD50C,1.712000*%
%ADD51RoundRect,0.135000X0.226274X0.035355X0.035355X0.226274X-0.226274X-0.035355X-0.035355X-0.226274X0*%
%ADD52RoundRect,0.250000X-0.845000X0.620000X-0.845000X-0.620000X0.845000X-0.620000X0.845000X0.620000X0*%
%ADD53O,2.190000X1.740000*%
%ADD54RoundRect,0.250000X-0.550000X1.500000X-0.550000X-1.500000X0.550000X-1.500000X0.550000X1.500000X0*%
%ADD55RoundRect,0.250000X1.050000X1.050000X-1.050000X1.050000X-1.050000X-1.050000X1.050000X-1.050000X0*%
%ADD56RoundRect,0.200000X-0.053033X0.335876X-0.335876X0.053033X0.053033X-0.335876X0.335876X-0.053033X0*%
%ADD57RoundRect,0.225000X-0.225000X-0.250000X0.225000X-0.250000X0.225000X0.250000X-0.225000X0.250000X0*%
%ADD58RoundRect,0.102000X0.160000X-0.600000X0.160000X0.600000X-0.160000X0.600000X-0.160000X-0.600000X0*%
%ADD59RoundRect,0.102000X0.600000X-0.160000X0.600000X0.160000X-0.600000X0.160000X-0.600000X-0.160000X0*%
%ADD60RoundRect,0.250000X-0.450000X0.262500X-0.450000X-0.262500X0.450000X-0.262500X0.450000X0.262500X0*%
%ADD61RoundRect,0.102000X1.510000X-0.485000X1.510000X0.485000X-1.510000X0.485000X-1.510000X-0.485000X0*%
%ADD62RoundRect,0.102000X3.160000X-2.835000X3.160000X2.835000X-3.160000X2.835000X-3.160000X-2.835000X0*%
%ADD63RoundRect,0.062500X0.117500X0.062500X-0.117500X0.062500X-0.117500X-0.062500X0.117500X-0.062500X0*%
%ADD64RoundRect,0.250000X0.550000X-1.500000X0.550000X1.500000X-0.550000X1.500000X-0.550000X-1.500000X0*%
%ADD65RoundRect,0.250000X1.000000X0.650000X-1.000000X0.650000X-1.000000X-0.650000X1.000000X-0.650000X0*%
%ADD66RoundRect,0.250000X0.750000X0.950000X-0.750000X0.950000X-0.750000X-0.950000X0.750000X-0.950000X0*%
%ADD67RoundRect,0.140000X0.170000X-0.140000X0.170000X0.140000X-0.170000X0.140000X-0.170000X-0.140000X0*%
%ADD68RoundRect,0.062500X-0.062500X0.117500X-0.062500X-0.117500X0.062500X-0.117500X0.062500X0.117500X0*%
%ADD69RoundRect,0.250000X-1.000000X-0.650000X1.000000X-0.650000X1.000000X0.650000X-1.000000X0.650000X0*%
%ADD70RoundRect,0.062500X0.062500X-0.117500X0.062500X0.117500X-0.062500X0.117500X-0.062500X-0.117500X0*%
%ADD71RoundRect,0.150000X-0.512500X-0.150000X0.512500X-0.150000X0.512500X0.150000X-0.512500X0.150000X0*%
%ADD72RoundRect,0.200000X0.053033X-0.335876X0.335876X-0.053033X-0.053033X0.335876X-0.335876X0.053033X0*%
%ADD73RoundRect,0.250000X0.845000X-0.620000X0.845000X0.620000X-0.845000X0.620000X-0.845000X-0.620000X0*%
G04 APERTURE END LIST*
D10*
%TO.C,R46*%
X100460000Y-108280000D03*
X100460000Y-109300000D03*
%TD*%
D11*
%TO.C,C1*%
X58836317Y-97573336D03*
X64236317Y-97573336D03*
%TD*%
D12*
%TO.C,CARD1*%
X84420500Y-114040000D03*
X100249000Y-114040000D03*
D13*
X83620000Y-135990000D03*
X111620000Y-134788500D03*
D12*
X106899000Y-114040000D03*
X87770500Y-114040000D03*
X89471000Y-114040000D03*
X91900000Y-114040000D03*
X94401000Y-114040000D03*
X96899000Y-114040000D03*
X98600500Y-114040000D03*
X101900000Y-114040000D03*
X104401000Y-114040000D03*
%TD*%
D14*
%TO.C,J1*%
X76856250Y-128024000D03*
D15*
X74356250Y-128024000D03*
X74356250Y-130024000D03*
X76856250Y-130024000D03*
D16*
X81626250Y-132734000D03*
X69586250Y-132734000D03*
%TD*%
D14*
%TO.C,J25*%
X81730000Y-120350000D03*
D15*
X81730000Y-117810000D03*
X81730000Y-115270001D03*
X81730000Y-112730000D03*
%TD*%
D17*
%TO.C,U2*%
X69050000Y-84610000D03*
X69050000Y-86310000D03*
D18*
X59900000Y-88010000D03*
D17*
X69050000Y-88010000D03*
X69050000Y-89710000D03*
X69050000Y-91410000D03*
%TD*%
D19*
%TO.C,C20*%
X142590000Y-131750000D03*
X141630000Y-131750000D03*
%TD*%
%TO.C,C12*%
X144010000Y-129860000D03*
X143050000Y-129860000D03*
%TD*%
D20*
%TO.C,C34*%
X105160000Y-106390000D03*
X105160000Y-108290000D03*
%TD*%
D21*
%TO.C,Q1*%
X197979000Y-124250000D03*
X202551000Y-124250000D03*
D22*
X200265000Y-117720000D03*
%TD*%
D23*
%TO.C,H7*%
X57937486Y-138892583D03*
X58640430Y-137195527D03*
X58640430Y-140589639D03*
X60337486Y-136492583D03*
D24*
X60337486Y-138892583D03*
D23*
X60337486Y-141292583D03*
X62034542Y-137195527D03*
X62034542Y-140589639D03*
X62737486Y-138892583D03*
%TD*%
D25*
%TO.C,C30*%
X232760812Y-120690812D03*
X236579188Y-124509188D03*
%TD*%
D26*
%TO.C,J27*%
X68977500Y-71910000D03*
D27*
X68977500Y-76990000D03*
%TD*%
D28*
%TO.C,D4*%
X105217500Y-112088500D03*
X104377500Y-112088500D03*
%TD*%
D10*
%TO.C,R39*%
X156650000Y-130659999D03*
X156650000Y-129640001D03*
%TD*%
D29*
%TO.C,R19*%
X227470000Y-69945000D03*
X227470000Y-71595000D03*
%TD*%
D30*
%TO.C,J19*%
X173970000Y-138900000D03*
D31*
X176510000Y-138900000D03*
X179050000Y-138900000D03*
X181590000Y-138900000D03*
X184130000Y-138900000D03*
X186670000Y-138900000D03*
%TD*%
D32*
%TO.C,J31*%
X225580000Y-136060000D03*
D15*
X225580000Y-138600000D03*
X223040000Y-136060000D03*
X223040000Y-138600000D03*
X220500000Y-136060000D03*
X220500000Y-138600000D03*
X217960000Y-136060000D03*
X217960000Y-138600000D03*
X215420000Y-136060000D03*
X215420000Y-138600000D03*
%TD*%
D33*
%TO.C,C6*%
X141230000Y-134880000D03*
X141230000Y-135840000D03*
%TD*%
D14*
%TO.C,J30*%
X232990000Y-140510000D03*
D15*
X232990000Y-137970000D03*
X232990000Y-135430000D03*
X232990000Y-132890000D03*
X232990000Y-130350000D03*
%TD*%
D14*
%TO.C,J29*%
X217270000Y-117900000D03*
D15*
X217270000Y-120440000D03*
X217270000Y-122980000D03*
X217270000Y-125520000D03*
X217270000Y-128060000D03*
X217270000Y-130600000D03*
%TD*%
D34*
%TO.C,R42*%
X102680000Y-110520000D03*
X103700000Y-110520000D03*
%TD*%
D35*
%TO.C,C29*%
X159853984Y-131676016D03*
X160950000Y-130580000D03*
%TD*%
D36*
%TO.C,U8*%
X227740000Y-102605000D03*
X229440000Y-102605000D03*
X231140000Y-102605000D03*
D37*
X231140000Y-93455000D03*
D36*
X232840000Y-102605000D03*
X234540000Y-102605000D03*
%TD*%
D38*
%TO.C,J24*%
X131000000Y-93350000D03*
D31*
X128460000Y-93350000D03*
X125920001Y-93350000D03*
%TD*%
D39*
%TO.C,C11*%
X118532500Y-69550000D03*
X118532500Y-68000000D03*
%TD*%
D30*
%TO.C,J33*%
X155640000Y-138890000D03*
D31*
X158180000Y-138890000D03*
%TD*%
D40*
%TO.C,L1*%
X73300000Y-89710000D03*
X84200000Y-89710000D03*
%TD*%
D41*
%TO.C,C19*%
X149630000Y-131660000D03*
X148670000Y-131660000D03*
%TD*%
D42*
%TO.C,Reset2*%
X131890000Y-137490000D03*
X137890000Y-137490000D03*
X131890000Y-141240000D03*
X137890000Y-141240000D03*
%TD*%
D38*
%TO.C,J9*%
X153880000Y-93290000D03*
D31*
X151340000Y-93290000D03*
X148800001Y-93290000D03*
%TD*%
D43*
%TO.C,D3*%
X65676250Y-129862000D03*
X65676250Y-131360000D03*
%TD*%
D30*
%TO.C,J4*%
X121870000Y-61900000D03*
D31*
X124410000Y-61900000D03*
X126950000Y-61900000D03*
X129490000Y-61900000D03*
X132030000Y-61900000D03*
%TD*%
D29*
%TO.C,R11*%
X133580000Y-87015000D03*
X133580000Y-88665000D03*
%TD*%
D33*
%TO.C,C5*%
X148590000Y-134880000D03*
X148590000Y-135840000D03*
%TD*%
D19*
%TO.C,C18*%
X148170000Y-130740000D03*
X149130000Y-130740000D03*
%TD*%
D44*
%TO.C,R27*%
X162270000Y-125650000D03*
X161250000Y-125650000D03*
%TD*%
D45*
%TO.C,R10*%
X137640000Y-66910000D03*
X137640000Y-65260000D03*
%TD*%
D46*
%TO.C,R21*%
X199340000Y-126803000D03*
X200990000Y-126803000D03*
%TD*%
D47*
%TO.C,C26*%
X210035000Y-69450000D03*
X208485000Y-69450000D03*
%TD*%
D45*
%TO.C,R7*%
X114840000Y-66905000D03*
X114840000Y-65255000D03*
%TD*%
D29*
%TO.C,R5*%
X157380000Y-86975000D03*
X157380000Y-88625000D03*
%TD*%
D33*
%TO.C,C14*%
X153180000Y-112880000D03*
X153180000Y-113840000D03*
%TD*%
D29*
%TO.C,R8*%
X111610000Y-86985000D03*
X111610000Y-88635000D03*
%TD*%
D21*
%TO.C,Q2*%
X187945000Y-124140000D03*
X192517000Y-124140000D03*
D22*
X190231000Y-117610000D03*
%TD*%
D48*
%TO.C,R20*%
X218785000Y-87150000D03*
X217135000Y-87150000D03*
%TD*%
D34*
%TO.C,R24*%
X166520000Y-132250000D03*
X167540000Y-132250000D03*
%TD*%
D30*
%TO.C,J6*%
X190483000Y-61900000D03*
D31*
X193023000Y-61900000D03*
X195563000Y-61900000D03*
X198103000Y-61900000D03*
X200643000Y-61900000D03*
%TD*%
D28*
%TO.C,D5*%
X102690000Y-112088500D03*
X101850000Y-112088500D03*
%TD*%
D49*
%TO.C,U1*%
X97987500Y-66910000D03*
D50*
X97987500Y-69450000D03*
X97987500Y-71990000D03*
X97987500Y-74529999D03*
X97987500Y-77070001D03*
X97987500Y-79610000D03*
X97987500Y-82150000D03*
X97987500Y-84690000D03*
X110687500Y-66910000D03*
X110687500Y-69450000D03*
X110687500Y-71990000D03*
X110687500Y-74529999D03*
X110687500Y-77070001D03*
X110687500Y-79610000D03*
X110687500Y-82150000D03*
X110687500Y-84690000D03*
X105607500Y-84690000D03*
X108147500Y-84690000D03*
%TD*%
D30*
%TO.C,J26*%
X189005000Y-110740000D03*
D31*
X191545000Y-110740000D03*
%TD*%
D45*
%TO.C,R3*%
X160390000Y-66345000D03*
X160390000Y-64695000D03*
%TD*%
%TO.C,R12*%
X181620000Y-66910000D03*
X181620000Y-65260000D03*
%TD*%
D10*
%TO.C,R43*%
X93370000Y-111250000D03*
X93370000Y-110230000D03*
%TD*%
D51*
%TO.C,R40*%
X159790624Y-129450624D03*
X159069376Y-128729376D03*
%TD*%
D34*
%TO.C,R29*%
X135070000Y-124280000D03*
X136090000Y-124280000D03*
%TD*%
D44*
%TO.C,R33*%
X162270000Y-121900000D03*
X161250000Y-121900000D03*
%TD*%
D52*
%TO.C,J12*%
X69370000Y-107200000D03*
D53*
X69370000Y-109740000D03*
%TD*%
D54*
%TO.C,C10*%
X97760000Y-88475000D03*
X97760000Y-93875000D03*
%TD*%
D21*
%TO.C,Q4*%
X208499000Y-124090000D03*
X213071000Y-124090000D03*
D22*
X210785000Y-117560000D03*
%TD*%
D34*
%TO.C,R1*%
X135060000Y-123180000D03*
X136080000Y-123180000D03*
%TD*%
D55*
%TO.C,J14*%
X80921944Y-63161032D03*
D27*
X75841944Y-63161032D03*
%TD*%
D56*
%TO.C,R14*%
X178973363Y-88456637D03*
X177806637Y-89623363D03*
%TD*%
D49*
%TO.C,U5*%
X166596000Y-66910000D03*
D50*
X166596000Y-69450000D03*
X166596000Y-71990000D03*
X166596000Y-74529999D03*
X166596000Y-77070001D03*
X166596000Y-79610000D03*
X166596000Y-82150000D03*
X166596000Y-84690000D03*
X179296000Y-66910000D03*
X179296000Y-69450000D03*
X179296000Y-71990000D03*
X179296000Y-74529999D03*
X179296000Y-77070001D03*
X179296000Y-79610000D03*
X179296000Y-82150000D03*
X179296000Y-84690000D03*
X174216000Y-84690000D03*
X176756000Y-84690000D03*
%TD*%
D39*
%TO.C,C4*%
X140120000Y-111375000D03*
X140120000Y-109825000D03*
%TD*%
D48*
%TO.C,R30*%
X92675000Y-69910000D03*
X91025000Y-69910000D03*
%TD*%
D57*
%TO.C,C33*%
X96905000Y-108980000D03*
X98455000Y-108980000D03*
%TD*%
D41*
%TO.C,C32*%
X96900000Y-112150000D03*
X95940000Y-112150000D03*
%TD*%
D54*
%TO.C,C25*%
X191035000Y-88725000D03*
X191035000Y-94125000D03*
%TD*%
D49*
%TO.C,U6*%
X189465500Y-66910000D03*
D50*
X189465500Y-69450000D03*
X189465500Y-71990000D03*
X189465500Y-74529999D03*
X189465500Y-77070001D03*
X189465500Y-79610000D03*
X189465500Y-82150000D03*
X189465500Y-84690000D03*
X202165500Y-66910000D03*
X202165500Y-69450000D03*
X202165500Y-71990000D03*
X202165500Y-74529999D03*
X202165500Y-77070001D03*
X202165500Y-79610000D03*
X202165500Y-82150000D03*
X202165500Y-84690000D03*
X197085500Y-84690000D03*
X199625500Y-84690000D03*
%TD*%
D40*
%TO.C,L2*%
X228980000Y-111820000D03*
X239880000Y-111820000D03*
%TD*%
D38*
%TO.C,J17*%
X170375000Y-138860000D03*
D31*
X167835000Y-138860000D03*
%TD*%
D58*
%TO.C,IC1*%
X139130000Y-128530000D03*
X139630000Y-128530000D03*
X140130000Y-128530000D03*
X140630000Y-128530000D03*
X141130000Y-128530000D03*
X141630000Y-128530000D03*
X142130000Y-128530000D03*
X142630000Y-128530000D03*
X143130000Y-128530000D03*
X143630000Y-128530000D03*
X144130000Y-128530000D03*
X144630000Y-128530000D03*
X145130000Y-128530000D03*
X145630000Y-128530000D03*
X146130000Y-128530000D03*
X146630000Y-128530000D03*
X147130000Y-128530000D03*
X147630000Y-128530000D03*
X148130000Y-128530000D03*
X148630000Y-128530000D03*
X149130000Y-128530000D03*
X149630000Y-128530000D03*
X150130000Y-128530000D03*
X150630000Y-128530000D03*
X151130000Y-128530000D03*
D59*
X152880000Y-126780000D03*
X152880000Y-126280000D03*
X152880000Y-125780000D03*
X152880000Y-125280000D03*
X152880000Y-124780000D03*
X152880000Y-124280000D03*
X152880000Y-123780000D03*
X152880000Y-123280000D03*
X152880000Y-122780000D03*
X152880000Y-122280000D03*
X152880000Y-121780000D03*
X152880000Y-121280000D03*
X152880000Y-120780000D03*
X152880000Y-120280000D03*
X152880000Y-119780000D03*
X152880000Y-119280000D03*
X152880000Y-118780000D03*
X152880000Y-118280000D03*
X152880000Y-117780000D03*
X152880000Y-117280000D03*
X152880000Y-116780000D03*
X152880000Y-116280000D03*
X152880000Y-115780000D03*
X152880000Y-115280000D03*
X152880000Y-114780000D03*
D58*
X151130000Y-113030000D03*
X150630000Y-113030000D03*
X150130000Y-113030000D03*
X149630000Y-113030000D03*
X149130000Y-113030000D03*
X148630000Y-113030000D03*
X148130000Y-113030000D03*
X147630000Y-113030000D03*
X147130000Y-113030000D03*
X146630000Y-113030000D03*
X146130000Y-113030000D03*
X145630000Y-113030000D03*
X145130000Y-113030000D03*
X144630000Y-113030000D03*
X144130000Y-113030000D03*
X143630000Y-113030000D03*
X143130000Y-113030000D03*
X142630000Y-113030000D03*
X142130000Y-113030000D03*
X141630000Y-113030000D03*
X141130000Y-113030000D03*
X140630000Y-113030000D03*
X140130000Y-113030000D03*
X139630000Y-113030000D03*
X139130000Y-113030000D03*
D59*
X137380000Y-114780000D03*
X137380000Y-115280000D03*
X137380000Y-115780000D03*
X137380000Y-116280000D03*
X137380000Y-116780000D03*
X137380000Y-117280000D03*
X137380000Y-117780000D03*
X137380000Y-118280000D03*
X137380000Y-118780000D03*
X137380000Y-119280000D03*
X137380000Y-119780000D03*
X137380000Y-120280000D03*
X137380000Y-120780000D03*
X137380000Y-121280000D03*
X137380000Y-121780000D03*
X137380000Y-122280000D03*
X137380000Y-122780000D03*
X137380000Y-123280000D03*
X137380000Y-123780000D03*
X137380000Y-124280000D03*
X137380000Y-124780000D03*
X137380000Y-125280000D03*
X137380000Y-125780000D03*
X137380000Y-126280000D03*
X137380000Y-126780000D03*
%TD*%
D49*
%TO.C,U4*%
X143726500Y-66910000D03*
D50*
X143726500Y-69450000D03*
X143726500Y-71990000D03*
X143726500Y-74529999D03*
X143726500Y-77070001D03*
X143726500Y-79610000D03*
X143726500Y-82150000D03*
X143726500Y-84690000D03*
X156426500Y-66910000D03*
X156426500Y-69450000D03*
X156426500Y-71990000D03*
X156426500Y-74529999D03*
X156426500Y-77070001D03*
X156426500Y-79610000D03*
X156426500Y-82150000D03*
X156426500Y-84690000D03*
X151346500Y-84690000D03*
X153886500Y-84690000D03*
%TD*%
D45*
%TO.C,R15*%
X204490000Y-66910000D03*
X204490000Y-65260000D03*
%TD*%
D60*
%TO.C,R23*%
X65676250Y-132917500D03*
X65676250Y-134742500D03*
%TD*%
D41*
%TO.C,C15*%
X148130000Y-129810000D03*
X147170000Y-129810000D03*
%TD*%
D61*
%TO.C,Q5*%
X94261944Y-66197032D03*
X94261944Y-61625032D03*
D62*
X87731944Y-63911032D03*
%TD*%
D34*
%TO.C,R47*%
X89470000Y-111720000D03*
X90490000Y-111720000D03*
%TD*%
D63*
%TO.C,D8*%
X99410000Y-112138500D03*
X100250000Y-112138500D03*
%TD*%
D64*
%TO.C,C2*%
X89450000Y-89710000D03*
X89450000Y-84310000D03*
%TD*%
D14*
%TO.C,J18*%
X108160000Y-87975000D03*
D15*
X105620000Y-87975000D03*
%TD*%
D44*
%TO.C,R25*%
X162270000Y-123190000D03*
X161250000Y-123190000D03*
%TD*%
%TO.C,R44*%
X87770000Y-111730000D03*
X86750000Y-111730000D03*
%TD*%
D30*
%TO.C,J8*%
X198975000Y-110820000D03*
D31*
X201515000Y-110820000D03*
%TD*%
D30*
%TO.C,J2*%
X144744000Y-61900000D03*
D31*
X147284000Y-61900000D03*
X149824000Y-61900000D03*
X152364000Y-61900000D03*
X154904000Y-61900000D03*
%TD*%
D30*
%TO.C,J5*%
X167613500Y-61900000D03*
D31*
X170153500Y-61900000D03*
X172693500Y-61900000D03*
X175233500Y-61900000D03*
X177773500Y-61900000D03*
%TD*%
D38*
%TO.C,J16*%
X225910000Y-128940000D03*
D31*
X223370000Y-128940000D03*
X220830000Y-128940000D03*
%TD*%
D46*
%TO.C,R28*%
X209996000Y-126640000D03*
X211646000Y-126640000D03*
%TD*%
D23*
%TO.C,H6*%
X57937486Y-78892583D03*
X58640430Y-77195527D03*
X58640430Y-80589639D03*
X60337486Y-76492583D03*
D24*
X60337486Y-78892583D03*
D23*
X60337486Y-81292583D03*
X62034542Y-77195527D03*
X62034542Y-80589639D03*
X62737486Y-78892583D03*
%TD*%
D45*
%TO.C,R18*%
X227360000Y-67385000D03*
X227360000Y-65735000D03*
%TD*%
D33*
%TO.C,C17*%
X136100000Y-125820000D03*
X136100000Y-126780000D03*
%TD*%
D30*
%TO.C,J28*%
X178700000Y-110670000D03*
D31*
X181240000Y-110670000D03*
%TD*%
D49*
%TO.C,U3*%
X120857000Y-66910000D03*
D50*
X120857000Y-69450000D03*
X120857000Y-71990000D03*
X120857000Y-74529999D03*
X120857000Y-77070001D03*
X120857000Y-79610000D03*
X120857000Y-82150000D03*
X120857000Y-84690000D03*
X133557000Y-66910000D03*
X133557000Y-69450000D03*
X133557000Y-71990000D03*
X133557000Y-74529999D03*
X133557000Y-77070001D03*
X133557000Y-79610000D03*
X133557000Y-82150000D03*
X133557000Y-84690000D03*
X128477000Y-84690000D03*
X131017000Y-84690000D03*
%TD*%
D38*
%TO.C,J21*%
X108200000Y-93200000D03*
D31*
X105660000Y-93200000D03*
X103120001Y-93200000D03*
%TD*%
D44*
%TO.C,R2*%
X150770000Y-132700000D03*
X149750000Y-132700000D03*
%TD*%
D65*
%TO.C,D2*%
X225377500Y-111820000D03*
X221377500Y-111820000D03*
%TD*%
D30*
%TO.C,J34*%
X76600000Y-72390000D03*
D31*
X79140000Y-72390000D03*
X81680000Y-72390000D03*
%TD*%
D29*
%TO.C,R13*%
X181630000Y-69445000D03*
X181630000Y-71095000D03*
%TD*%
D54*
%TO.C,C23*%
X170010000Y-89000000D03*
X170010000Y-94400000D03*
%TD*%
D34*
%TO.C,R45*%
X108160000Y-112050000D03*
X109180000Y-112050000D03*
%TD*%
D10*
%TO.C,R48*%
X155640000Y-133420000D03*
X155640000Y-132400000D03*
%TD*%
D66*
%TO.C,Y2*%
X146730000Y-134880000D03*
X143030000Y-134880000D03*
%TD*%
D23*
%TO.C,H5*%
X235937486Y-78892583D03*
X236640430Y-77195527D03*
X236640430Y-80589639D03*
X238337486Y-76492583D03*
D24*
X238337486Y-78892583D03*
D23*
X238337486Y-81292583D03*
X240034542Y-77195527D03*
X240034542Y-80589639D03*
X240737486Y-78892583D03*
%TD*%
D32*
%TO.C,J32*%
X204220000Y-136060000D03*
D15*
X204220000Y-138600000D03*
X201680000Y-136060000D03*
X201680000Y-138600000D03*
X199140000Y-136060000D03*
X199140000Y-138600000D03*
X196600000Y-136060000D03*
X196600000Y-138600000D03*
X194060000Y-136060000D03*
X194060000Y-138600000D03*
%TD*%
D54*
%TO.C,C27*%
X212360000Y-88750000D03*
X212360000Y-94150000D03*
%TD*%
D30*
%TO.C,J3*%
X99005000Y-61900000D03*
D31*
X101545000Y-61900000D03*
X104085000Y-61900000D03*
X106625000Y-61900000D03*
X109165000Y-61900000D03*
%TD*%
D38*
%TO.C,J15*%
X164290000Y-138850000D03*
D31*
X161750000Y-138850000D03*
%TD*%
D46*
%TO.C,R34*%
X179250000Y-126700000D03*
X180900000Y-126700000D03*
%TD*%
D39*
%TO.C,C8*%
X164280000Y-71765000D03*
X164280000Y-70215000D03*
%TD*%
D34*
%TO.C,R41*%
X105060000Y-110988500D03*
X106080000Y-110988500D03*
%TD*%
D44*
%TO.C,R22*%
X162270000Y-124430000D03*
X161250000Y-124430000D03*
%TD*%
D47*
%TO.C,C36*%
X158035000Y-134670000D03*
X156485000Y-134670000D03*
%TD*%
D54*
%TO.C,C7*%
X142890000Y-88340000D03*
X142890000Y-93740000D03*
%TD*%
D14*
%TO.C,J23*%
X153885000Y-88070000D03*
D15*
X151345000Y-88070000D03*
%TD*%
D45*
%TO.C,R9*%
X135890000Y-66910000D03*
X135890000Y-65260000D03*
%TD*%
D47*
%TO.C,C3*%
X155905000Y-114850000D03*
X154355000Y-114850000D03*
%TD*%
D34*
%TO.C,R50*%
X166520001Y-131180000D03*
X167539999Y-131180000D03*
%TD*%
D64*
%TO.C,C31*%
X220190000Y-99840000D03*
X220190000Y-94440000D03*
%TD*%
D47*
%TO.C,C24*%
X187175000Y-71740000D03*
X185625000Y-71740000D03*
%TD*%
D67*
%TO.C,C35*%
X139320000Y-141240000D03*
X139320000Y-140280000D03*
%TD*%
D39*
%TO.C,C9*%
X95700000Y-71735000D03*
X95700000Y-70185000D03*
%TD*%
D68*
%TO.C,D6*%
X113420000Y-120626000D03*
X113420000Y-119786000D03*
%TD*%
D49*
%TO.C,U7*%
X212335000Y-66910000D03*
D50*
X212335000Y-69450000D03*
X212335000Y-71990000D03*
X212335000Y-74529999D03*
X212335000Y-77070001D03*
X212335000Y-79610000D03*
X212335000Y-82150000D03*
X212335000Y-84690000D03*
X225035000Y-66910000D03*
X225035000Y-69450000D03*
X225035000Y-71990000D03*
X225035000Y-74529999D03*
X225035000Y-77070001D03*
X225035000Y-79610000D03*
X225035000Y-82150000D03*
X225035000Y-84690000D03*
X219955000Y-84690000D03*
X222495000Y-84690000D03*
%TD*%
D39*
%TO.C,C22*%
X141390000Y-71815000D03*
X141390000Y-70265000D03*
%TD*%
D26*
%TO.C,J10*%
X60267500Y-108475000D03*
D27*
X60267500Y-113555000D03*
%TD*%
D33*
%TO.C,C13*%
X154210000Y-125880000D03*
X154210000Y-126840000D03*
%TD*%
D69*
%TO.C,D1*%
X76440000Y-98900000D03*
X80440000Y-98900000D03*
%TD*%
D21*
%TO.C,Q3*%
X177653000Y-124150000D03*
X182225000Y-124150000D03*
D22*
X179939000Y-117620000D03*
%TD*%
D45*
%TO.C,R4*%
X158740000Y-66345000D03*
X158740000Y-64695000D03*
%TD*%
D46*
%TO.C,R26*%
X189420000Y-126690000D03*
X191070000Y-126690000D03*
%TD*%
D29*
%TO.C,R16*%
X204490000Y-69445000D03*
X204490000Y-71095000D03*
%TD*%
D30*
%TO.C,J13*%
X209546000Y-110660000D03*
D31*
X212086000Y-110660000D03*
%TD*%
D57*
%TO.C,C28*%
X159475000Y-134670000D03*
X161025000Y-134670000D03*
%TD*%
D30*
%TO.C,J7*%
X213352500Y-61900000D03*
D31*
X215892500Y-61900000D03*
X218432500Y-61900000D03*
X220972500Y-61900000D03*
X223512500Y-61900000D03*
%TD*%
D52*
%TO.C,J11*%
X76180000Y-107200000D03*
D53*
X76180000Y-109740000D03*
%TD*%
D45*
%TO.C,R6*%
X113030000Y-66905000D03*
X113030000Y-65255000D03*
%TD*%
D42*
%TO.C,Flash1*%
X124390000Y-137485000D03*
X130390000Y-137485000D03*
X124390000Y-141235000D03*
X130390000Y-141235000D03*
%TD*%
D67*
%TO.C,C16*%
X138230000Y-113030000D03*
X138230000Y-112070000D03*
%TD*%
D70*
%TO.C,D7*%
X115280000Y-121120000D03*
X115280000Y-121960000D03*
%TD*%
D14*
%TO.C,J22*%
X131010000Y-88125000D03*
D15*
X128470000Y-88125000D03*
%TD*%
D71*
%TO.C,U9*%
X80322500Y-123280000D03*
X80322500Y-124230000D03*
X80322500Y-125180000D03*
X82597500Y-125180000D03*
X82597500Y-124230000D03*
X82597500Y-123280000D03*
%TD*%
D23*
%TO.C,H8*%
X235937486Y-138892583D03*
X236640430Y-137195527D03*
X236640430Y-140589639D03*
X238337486Y-136492583D03*
D24*
X238337486Y-138892583D03*
D23*
X238337486Y-141292583D03*
X240034542Y-137195527D03*
X240034542Y-140589639D03*
X240737486Y-138892583D03*
%TD*%
D72*
%TO.C,R17*%
X204766637Y-83423363D03*
X205933363Y-82256637D03*
%TD*%
D54*
%TO.C,C21*%
X120535000Y-88525000D03*
X120535000Y-93925000D03*
%TD*%
D73*
%TO.C,J20*%
X126860000Y-132670000D03*
D53*
X126860000Y-130130000D03*
X126860000Y-127590000D03*
%TD*%
M02*
