M48
; DRILL file KiCad 10.0.1 date 2026-05-16T14:36:38
; FORMAT={-:-/ absolute / metric / decimal}
; #@! TF.CreationDate,2026-05-16T14:36:38+02:00
; #@! TF.GenerationSoftware,Kicad,Pcbnew,10.0.1
; #@! TF.FileFunction,Plated,1,4,PTH
FMAT,2
METRIC
; #@! TA.AperFunction,Plated,PTH,ViaDrill
T1C0.300
; #@! TA.AperFunction,Plated,PTH,ViaDrill
T2C0.400
; #@! TA.AperFunction,Plated,PTH,ComponentDrill
T3C0.500
; #@! TA.AperFunction,Plated,PTH,ComponentDrill
T4C0.920
; #@! TA.AperFunction,Plated,PTH,ComponentDrill
T5C1.000
; #@! TA.AperFunction,Plated,PTH,ComponentDrill
T6C1.190
; #@! TA.AperFunction,Plated,PTH,ComponentDrill
T7C1.300
; #@! TA.AperFunction,Plated,PTH,ComponentDrill
T8C2.330
; #@! TA.AperFunction,Plated,PTH,ComponentDrill
T9C3.200
%
G90
G05
T1
X55.99Y-82.73
X56.26Y-96.88
X56.57Y-102.01
X56.9Y-113.46
X57.79Y-63.29
X58.22Y-67.33
X58.87Y-59.61
X59.41Y-124.5
X60.36Y-134.99
X61.53Y-133.3
X62.13Y-121.46
X64.84Y-113.56
X65.91Y-82.33
X65.95Y-77.48
X66.496Y-128.01
X68.38Y-115.17
X69.9Y-113.46
X70.25Y-120.37
X72.97Y-77.73
X73.09Y-82.54
X78.28Y-83.16
X78.3Y-124.23
X78.34Y-76.52
X80.4Y-78.18
X81.99Y-82.53
X82.016Y-137.04
X82.24Y-96.64
X83.38Y-99.28
X84.1Y-97.41
X84.97Y-78.3
X85.27Y-111.56
X86.02Y-81.2
X87.07Y-84.52
X87.14Y-87.03
X87.36Y-74.99
X88.34Y-70.19
X89.49Y-79.41
X91.19Y-81.02
X91.98Y-111.45
X93.81Y-116.38
X93.84Y-59.16
X94.262Y-75.882
X94.61Y-64.62
X95.18Y-110.21
X95.7Y-68.49
X96.48Y-59.78
X96.73Y-63.91
X98.07Y-131.23
X98.58Y-110.77
X99.38Y-135.85
X99.68Y-94.68
X100.11Y-91.88
X100.13Y-116.29
X100.16Y-95.74
X100.32Y-67.87
X103.161Y-111.324
X103.29Y-96.51
X103.87Y-67.95
X104.92Y-98.07
X105.66Y-96.73
X106.75Y-112.04
X107.82Y-67.95
X108.49Y-132.27
X110.022Y-107.597
X110.69Y-89.5
X112.54Y-62.66
X113.06Y-87.12
X113.79Y-68.24
X113.89Y-86.46
X114.49Y-85.92
X116.55Y-63.57
X116.9Y-134.33
X117.99Y-106.425
X118.08Y-129.99
X118.27Y-65.73
X121.92Y-96.38
X122.99Y-96.04
X123.64Y-95.29
X124.26Y-113.43
X125.545Y-109.64
X127.085Y-110.239
X127.6Y-110.852
X128.46Y-97.01
X128.46Y-108.32
X128.46Y-113.432
X128.56Y-117.73
X129.88Y-130.13
X131.87Y-139.755
X131.89Y-123.28
X132.27Y-121.44
X132.7Y-123.6
X132.766Y-117.738
X133.25Y-118.375
X133.37Y-120.78
X133.849Y-120.139
X134.15Y-117.375
X134.17Y-123.04
X134.21Y-124.27
X134.416Y-119.575
X134.77Y-116.775
X134.82Y-125.44
X135.02Y-126.78
X135.109Y-119.175
X135.325Y-116.175
X135.43Y-85.54
X135.88Y-63.0
X136.2Y-114.78
X136.45Y-68.23
X136.49Y-86.13
X137.09Y-85.552
X138.81Y-114.27
X139.051Y-129.99
X139.09Y-123.78
X139.19Y-65.7
X139.255Y-130.865
X139.396Y-114.926
X139.89Y-107.31
X139.9Y-118.94
X140.02Y-131.38
X140.15Y-122.77
X140.6Y-114.57
X140.735Y-107.306
X140.85Y-131.73
X141.191Y-115.109
X141.2Y-67.97
X141.571Y-107.294
X142.32Y-117.6
X142.418Y-107.292
X142.84Y-130.77
X142.9Y-96.79
X143.16Y-106.425
X144.1Y-107.29
X144.7Y-96.64
X144.965Y-107.273
X145.13Y-120.78
X145.629Y-126.011
X145.785Y-107.302
X145.83Y-95.36
X146.623Y-107.313
X146.63Y-125.93
X147.17Y-130.74
X147.36Y-131.662
X147.41Y-126.323
X147.487Y-107.297
X147.77Y-117.55
X148.02Y-126.84
X148.25Y-141.31
X148.316Y-107.316
X149.04Y-140.69
X149.178Y-107.303
X149.81Y-120.4
X150.061Y-107.268
X150.09Y-140.26
X150.41Y-130.63
X150.906Y-140.222
X150.91Y-118.67
X150.963Y-117.872
X151.01Y-117.07
X151.062Y-116.272
X151.2Y-107.27
X151.34Y-96.68
X151.355Y-130.055
X151.65Y-133.33
X151.669Y-107.918
X151.705Y-140.182
X151.986Y-128.524
X152.13Y-112.03
X152.49Y-132.71
X152.502Y-140.122
X152.88Y-128.57
X153.3Y-140.06
X153.78Y-127.71
X154.08Y-131.18
X156.43Y-89.48
X156.523Y-125.987
X156.59Y-132.58
X158.033Y-123.467
X158.426Y-87.916
X158.78Y-61.66
X159.026Y-87.31
X159.22Y-67.86
X159.32Y-130.3
X159.41Y-111.39
X159.766Y-86.576
X160.43Y-116.68
X161.055Y-117.18
X161.68Y-117.68
X162.305Y-118.18
X162.93Y-118.68
X163.13Y-66.42
X163.559Y-119.179
X163.57Y-62.75
X164.182Y-119.68
X164.7Y-106.425
X164.81Y-120.18
X165.34Y-120.78
X166.58Y-121.1
X167.7Y-121.09
X168.04Y-96.33
X169.52Y-131.12
X169.63Y-97.23
X172.309Y-130.52
X172.33Y-136.11
X173.54Y-128.44
X173.89Y-97.22
X175.42Y-136.7
X177.29Y-128.44
X181.54Y-62.01
X183.59Y-126.78
X183.82Y-64.28
X184.94Y-124.4
X184.97Y-120.92
X185.37Y-135.45
X185.55Y-66.7
X188.7Y-136.78
X191.0Y-97.5
X191.375Y-138.745
X191.49Y-133.53
X192.78Y-126.62
X194.05Y-126.58
X194.8Y-121.95
X195.07Y-124.16
X196.819Y-132.89
X197.0Y-92.0
X197.0Y-96.0
X197.46Y-133.53
X198.064Y-134.136
X198.63Y-134.701
X202.2Y-131.12
X202.84Y-127.44
X204.59Y-80.7
X205.22Y-61.31
X205.22Y-124.2
X205.35Y-121.3
X207.34Y-63.73
X209.41Y-65.8
X214.63Y-127.44
X215.02Y-114.84
X215.51Y-123.78
X215.54Y-121.46
X216.22Y-119.83
X216.49Y-113.5
X216.79Y-115.26
X220.24Y-111.2
X220.36Y-132.29
X223.047Y-87.157
X223.29Y-131.59
X227.1Y-90.66
X227.48Y-132.89
X228.43Y-132.29
X228.55Y-86.94
X230.62Y-64.17
X234.14Y-90.15
X234.65Y-80.46
X235.17Y-101.01
X236.88Y-135.93
X236.93Y-95.42
X237.24Y-84.04
X240.55Y-61.38
X241.83Y-69.37
X242.14Y-140.28
T2
X89.45Y-92.83
X101.825Y-106.425
T3
X57.937Y-78.893
X57.937Y-138.893
X58.64Y-77.196
X58.64Y-80.59
X58.64Y-137.196
X58.64Y-140.59
X60.337Y-76.493
X60.337Y-81.293
X60.337Y-136.493
X60.337Y-141.293
X62.035Y-77.196
X62.035Y-80.59
X62.035Y-137.196
X62.035Y-140.59
X62.737Y-78.893
X62.737Y-138.893
X235.937Y-78.893
X235.937Y-138.893
X236.64Y-77.196
X236.64Y-80.59
X236.64Y-137.196
X236.64Y-140.59
X238.337Y-76.493
X238.337Y-81.293
X238.337Y-136.493
X238.337Y-141.293
X240.035Y-77.196
X240.035Y-80.59
X240.035Y-137.196
X240.035Y-140.59
X240.737Y-78.893
X240.737Y-138.893
T4
X74.356Y-128.024
X74.356Y-130.024
X76.856Y-128.024
X76.856Y-130.024
T5
X81.73Y-112.73
X81.73Y-115.27
X81.73Y-117.81
X81.73Y-120.35
X97.987Y-66.91
X97.987Y-69.45
X97.987Y-71.99
X97.987Y-74.53
X97.987Y-77.07
X97.987Y-79.61
X97.987Y-82.15
X97.987Y-84.69
X105.608Y-84.69
X105.62Y-87.975
X108.147Y-84.69
X108.16Y-87.975
X110.688Y-66.91
X110.688Y-69.45
X110.688Y-71.99
X110.688Y-74.53
X110.688Y-77.07
X110.688Y-79.61
X110.688Y-82.15
X110.688Y-84.69
X120.857Y-66.91
X120.857Y-69.45
X120.857Y-71.99
X120.857Y-74.53
X120.857Y-77.07
X120.857Y-79.61
X120.857Y-82.15
X120.857Y-84.69
X128.47Y-88.125
X128.477Y-84.69
X131.01Y-88.125
X131.017Y-84.69
X133.557Y-66.91
X133.557Y-69.45
X133.557Y-71.99
X133.557Y-74.53
X133.557Y-77.07
X133.557Y-79.61
X133.557Y-82.15
X133.557Y-84.69
X143.726Y-66.91
X143.726Y-69.45
X143.726Y-71.99
X143.726Y-74.53
X143.726Y-77.07
X143.726Y-79.61
X143.726Y-82.15
X143.726Y-84.69
X151.345Y-88.07
X151.346Y-84.69
X153.885Y-88.07
X153.886Y-84.69
X156.427Y-66.91
X156.427Y-69.45
X156.427Y-71.99
X156.427Y-74.53
X156.427Y-77.07
X156.427Y-79.61
X156.427Y-82.15
X156.427Y-84.69
X166.596Y-66.91
X166.596Y-69.45
X166.596Y-71.99
X166.596Y-74.53
X166.596Y-77.07
X166.596Y-79.61
X166.596Y-82.15
X166.596Y-84.69
X174.216Y-84.69
X176.756Y-84.69
X179.296Y-66.91
X179.296Y-69.45
X179.296Y-71.99
X179.296Y-74.53
X179.296Y-77.07
X179.296Y-79.61
X179.296Y-82.15
X179.296Y-84.69
X189.465Y-66.91
X189.465Y-69.45
X189.465Y-71.99
X189.465Y-74.53
X189.465Y-77.07
X189.465Y-79.61
X189.465Y-82.15
X189.465Y-84.69
X194.06Y-136.06
X194.06Y-138.6
X196.6Y-136.06
X196.6Y-138.6
X197.085Y-84.69
X199.14Y-136.06
X199.14Y-138.6
X199.625Y-84.69
X201.68Y-136.06
X201.68Y-138.6
X202.165Y-66.91
X202.165Y-69.45
X202.165Y-71.99
X202.165Y-74.53
X202.165Y-77.07
X202.165Y-79.61
X202.165Y-82.15
X202.165Y-84.69
X204.22Y-136.06
X204.22Y-138.6
X212.335Y-66.91
X212.335Y-69.45
X212.335Y-71.99
X212.335Y-74.53
X212.335Y-77.07
X212.335Y-79.61
X212.335Y-82.15
X212.335Y-84.69
X215.42Y-136.06
X215.42Y-138.6
X217.27Y-117.9
X217.27Y-120.44
X217.27Y-122.98
X217.27Y-125.52
X217.27Y-128.06
X217.27Y-130.6
X217.96Y-136.06
X217.96Y-138.6
X219.955Y-84.69
X220.5Y-136.06
X220.5Y-138.6
X222.495Y-84.69
X223.04Y-136.06
X223.04Y-138.6
X225.035Y-66.91
X225.035Y-69.45
X225.035Y-71.99
X225.035Y-74.53
X225.035Y-77.07
X225.035Y-79.61
X225.035Y-82.15
X225.035Y-84.69
X225.58Y-136.06
X225.58Y-138.6
X232.99Y-130.35
X232.99Y-132.89
X232.99Y-135.43
X232.99Y-137.97
X232.99Y-140.51
T6
X69.37Y-107.2
X69.37Y-109.74
X76.18Y-107.2
X76.18Y-109.74
X76.6Y-72.39
X79.14Y-72.39
X81.68Y-72.39
X99.005Y-61.9
X101.545Y-61.9
X103.12Y-93.2
X104.085Y-61.9
X105.66Y-93.2
X106.625Y-61.9
X108.2Y-93.2
X109.165Y-61.9
X121.87Y-61.9
X124.41Y-61.9
X125.92Y-93.35
X126.86Y-127.59
X126.86Y-130.13
X126.86Y-132.67
X126.95Y-61.9
X128.46Y-93.35
X129.49Y-61.9
X131.0Y-93.35
X132.03Y-61.9
X144.744Y-61.9
X147.284Y-61.9
X148.8Y-93.29
X149.824Y-61.9
X151.34Y-93.29
X152.364Y-61.9
X153.88Y-93.29
X154.904Y-61.9
X155.64Y-138.89
X158.18Y-138.89
X161.75Y-138.85
X164.29Y-138.85
X167.613Y-61.9
X167.835Y-138.86
X170.153Y-61.9
X170.375Y-138.86
X172.694Y-61.9
X173.97Y-138.9
X175.233Y-61.9
X176.51Y-138.9
X177.773Y-61.9
X178.7Y-110.67
X179.05Y-138.9
X181.24Y-110.67
X181.59Y-138.9
X184.13Y-138.9
X186.67Y-138.9
X189.005Y-110.74
X190.483Y-61.9
X191.545Y-110.74
X193.023Y-61.9
X195.563Y-61.9
X198.103Y-61.9
X198.975Y-110.82
X200.643Y-61.9
X201.515Y-110.82
X209.546Y-110.66
X212.086Y-110.66
X213.352Y-61.9
X215.892Y-61.9
X218.432Y-61.9
X220.83Y-128.94
X220.972Y-61.9
X223.37Y-128.94
X223.512Y-61.9
X225.91Y-128.94
T7
X60.267Y-108.475
X60.267Y-113.555
X68.977Y-71.91
X68.977Y-76.99
X75.842Y-63.161
X80.922Y-63.161
T8
X69.586Y-132.734
X81.626Y-132.734
T9
X60.337Y-78.893
X60.337Y-138.893
X238.337Y-78.893
X238.337Y-138.893
M30
