%TF.GenerationSoftware,KiCad,Pcbnew,10.0.1*%
%TF.CreationDate,2026-05-16T14:36:44+02:00*%
%TF.ProjectId,Super3DMakerSTM,53757065-7233-4444-9d61-6b657253544d,rev?*%
%TF.SameCoordinates,Original*%
%TF.FileFunction,Profile,NP*%
%FSLAX46Y46*%
G04 Gerber Fmt 4.6, Leading zero omitted, Abs format (unit mm)*
G04 Created by KiCad (PCBNEW 10.0.1) date 2026-05-16 14:36:44*
%MOMM*%
%LPD*%
G01*
G04 APERTURE LIST*
%TA.AperFunction,Profile*%
%ADD10C,0.050000*%
%TD*%
%TA.AperFunction,Profile*%
%ADD11C,0.000000*%
%TD*%
G04 APERTURE END LIST*
D10*
X54610000Y-57880000D02*
X244200000Y-57880000D01*
X244200000Y-143740000D01*
X54610000Y-143740000D01*
X54610000Y-57880000D01*
D11*
%TA.AperFunction,Profile*%
%TO.C,CARD1*%
G36*
X109952228Y-137324948D02*
G01*
X110097117Y-137384963D01*
X110227515Y-137472092D01*
X110338408Y-137582985D01*
X110425537Y-137713383D01*
X110485552Y-137858272D01*
X110516148Y-138012086D01*
X110516148Y-138168914D01*
X110485552Y-138322728D01*
X110425537Y-138467617D01*
X110338408Y-138598015D01*
X110227515Y-138708908D01*
X110097117Y-138796037D01*
X109952228Y-138856052D01*
X109798414Y-138886648D01*
X109641586Y-138886648D01*
X109487772Y-138856052D01*
X109342883Y-138796037D01*
X109212485Y-138708908D01*
X109101592Y-138598015D01*
X109014463Y-138467617D01*
X108954448Y-138322728D01*
X108923852Y-138168914D01*
X108923852Y-138012086D01*
X108954448Y-137858272D01*
X109014463Y-137713383D01*
X109101592Y-137582985D01*
X109212485Y-137472092D01*
X109342883Y-137384963D01*
X109487772Y-137324948D01*
X109641586Y-137294352D01*
X109798414Y-137294352D01*
X109952228Y-137324948D01*
G37*
%TD.AperFunction*%
%TA.AperFunction,Profile*%
G36*
X85752228Y-137324948D02*
G01*
X85897117Y-137384963D01*
X86027515Y-137472092D01*
X86138408Y-137582985D01*
X86225537Y-137713383D01*
X86285552Y-137858272D01*
X86316148Y-138012086D01*
X86316148Y-138168914D01*
X86285552Y-138322728D01*
X86225537Y-138467617D01*
X86138408Y-138598015D01*
X86027515Y-138708908D01*
X85897117Y-138796037D01*
X85752228Y-138856052D01*
X85598414Y-138886648D01*
X85441586Y-138886648D01*
X85287772Y-138856052D01*
X85142883Y-138796037D01*
X85012485Y-138708908D01*
X84901592Y-138598015D01*
X84814463Y-138467617D01*
X84754448Y-138322728D01*
X84723852Y-138168914D01*
X84723852Y-138012086D01*
X84754448Y-137858272D01*
X84814463Y-137713383D01*
X84901592Y-137582985D01*
X85012485Y-137472092D01*
X85142883Y-137384963D01*
X85287772Y-137324948D01*
X85441586Y-137294352D01*
X85598414Y-137294352D01*
X85752228Y-137324948D01*
G37*
%TD.AperFunction*%
%TD*%
M02*
